<svg width="120" height="140" viewBox="0 0 120 140" fill="none" xmlns="http://www.w3.org/2000/svg">
<g clip-path="url(#clip0_2201_4335)">
<path d="M79.8902 116.996C76.5181 120.168 73.0021 122.76 69.0012 124.654C65.5396 126.294 61.9972 127.6 58.0525 127.233C55.1494 126.964 52.4957 125.914 49.9016 124.687C46.5237 123.07 43.3902 120.986 40.5933 118.496C40.4177 118.345 40.2755 118.145 39.9839 118.177C39.6625 118.27 39.673 118.612 39.529 118.846C38.9161 119.848 38.2188 120.101 37.1914 119.557C36.4256 119.13 35.6897 118.651 34.989 118.124C26.3622 111.928 20.4119 103.731 16.8642 93.7658C14.3896 86.8287 13.2515 79.646 12.967 72.3C12.7422 66.5074 12.7492 60.7254 13.4517 54.9714C14.574 45.7648 16.9467 36.9689 22.3754 29.249C27.862 21.4484 35.3719 16.6317 44.5432 14.2726C51.2417 12.5471 58.0473 12.3558 64.9161 12.8052C70.9332 13.2001 76.699 14.5096 82.147 17.1215C89.8589 20.8199 95.5264 26.6002 99.4218 34.1639C102.866 40.8517 104.62 48.0186 105.418 55.4524C106.274 63.4201 106.236 71.4584 105.305 79.4178C104.097 89.8058 100.793 99.4477 94.4164 107.882C91.2629 112.034 87.4646 115.655 83.1657 118.607C81.383 119.846 80.4118 119.4 79.8902 116.996ZM69.291 27.3726L69.0434 27.0742C69.6809 26.4265 70.4993 25.9121 70.6556 24.9046C70.0954 24.5096 69.6493 24.9379 69.1593 25.0345C68.434 25.1767 68.1881 24.8695 68.3338 24.0778C68.6271 22.47 68.2987 22.0662 66.6671 22.0311C66.4388 22.0311 66.0612 21.9785 66.1543 21.7538C66.639 20.5777 65.3587 21.185 65.1444 20.7216L65.7978 19.098C64.1293 18.2677 64.0713 20.3144 62.7559 20.6339C63.4268 19.349 62.1096 19.184 61.8777 18.3713C61.2332 18.696 61.4334 19.6 60.6782 19.6632C60.2567 18.9769 60.4639 18.1168 59.8668 17.5393C59.1941 17.4515 59.3399 19.0365 58.309 18.3098C58.0297 18.115 57.9999 18.5608 58.0016 18.7451C58.0224 19.0914 58.064 19.4361 58.1263 19.7773L57.8594 20.009C57.4291 19.8335 57.343 19.2279 56.8197 19.1612C56.5228 20.16 56.219 20.3583 55.3619 20.0687C55.1477 19.9967 54.972 19.8124 54.7648 19.7176C54.4574 19.5649 54.2168 19.6878 54.0043 19.9353C53.7918 20.1828 53.9341 20.3601 54.0394 20.5654C54.2484 20.9709 54.7771 21.1587 54.8034 21.6871L54.8473 21.659C54.2853 22.0697 53.9428 21.5186 53.5143 21.3536C53.1789 21.2237 52.8627 20.9235 52.4289 21.2447C52.868 22.1312 53.8515 22.4735 54.2151 23.3301L53.9393 23.6285C53.6548 23.574 53.365 23.5354 53.0858 23.4529C51.9934 23.1563 52.2621 23.876 52.3833 24.4324C51.7721 24.6501 51.2645 23.9866 50.5919 24.3833C51.0309 25.3452 51.7422 26.3334 50.641 27.3023C50.4654 27.4533 50.641 27.5656 50.7903 27.6534C51.3787 28.0466 51.2153 28.74 51.5684 29.2525C51.0134 29.407 50.6182 29.2648 50.2195 29.1981C49.9174 29.1472 49.668 29.1314 49.517 29.4912C49.315 29.9617 49.6171 30.0793 49.9385 30.2513C50.1528 30.3671 50.5075 30.411 50.4145 30.8762C49.8683 31.0728 49.2079 30.6848 48.4211 31.0763C49.1447 31.5274 49.7506 31.7889 50.065 32.4595C49.2009 32.5192 48.5827 32.8965 48.3543 33.7092C48.7161 34.1902 49.4081 34.1042 49.5996 34.7028C49.1745 35.2943 48.314 34.6607 47.8749 35.361C48.126 35.8472 48.9287 35.4892 49.092 36.1035C48.6617 36.6775 48.3403 37.3638 47.4025 37.2304C47.0178 37.1743 46.7684 37.4726 46.7245 37.8781C46.6648 38.4328 47.0477 38.5539 47.4709 38.6487C47.9803 38.7646 48.4878 38.8927 49.1271 39.0472C47.9574 40.4163 49.654 40.5181 50.0913 41.1764C49.4397 41.6556 48.6319 41.2905 48.04 41.9733C49.0428 41.8627 49.5486 42.4876 50.1475 43.1037C49.3625 43.7058 48.2964 43.3196 47.499 43.8936C48.6125 44.2833 47.9504 44.6396 47.3989 45.0784C48.6283 45.1539 49.2062 45.9316 49.7752 46.8215C49.3449 46.9356 49.0042 47.0128 48.6705 47.1164C47.6167 47.4446 47.4745 47.7536 47.8854 48.9437C47.9381 49.0964 48.0769 49.2473 47.9943 49.3948C47.478 50.3181 48.0259 50.4849 48.7794 50.5954C49.0832 50.6393 49.6452 51.0308 49.524 51.0817C48.5581 51.4784 49.4872 52.256 49.0938 52.8124C48.7003 53.3688 49.222 54.2272 49.7963 54.1306C50.6955 53.9814 50.778 54.7941 50.9396 55.1294C51.2663 55.8035 51.6544 56.2651 52.3692 56.3827C52.1427 57.0217 51.4665 57.1323 51.3752 57.8361C52.32 57.5676 53.2702 57.227 54.0553 58.1995C53.4985 59.2527 52.155 59.6143 51.4647 60.7938C52.4096 60.9606 52.9154 60.3199 53.5723 60.1655C54.0992 60.0391 54.5084 60.2005 54.1905 60.7236C53.5529 61.7768 54.1905 62.3614 54.67 63.0565C55.6394 62.7633 55.88 61.6399 56.8073 61.5574C57.278 61.9769 56.8214 62.658 57.3852 63.0442L58.1597 62.1928C57.8471 63.246 59.4769 62.9581 59.2837 63.8744C60.6887 63.8007 59.5331 65.1313 60.3094 65.5192C61.3333 65.6859 61.1524 64.5292 61.5247 64.0149C62.2694 62.9897 62.2272 62.8353 63.2002 63.5006C63.7464 63.8762 64.254 63.5339 64.7809 63.7094C65.2252 63.8551 64.9108 63.1828 65.0408 62.9143C65.234 62.5105 65.7258 62.9423 65.9699 62.5386C65.8803 62.3631 65.7785 62.1647 65.6625 61.9681C65.4588 61.6171 65.1515 61.2906 65.4869 60.8623C65.8224 60.434 66.2123 60.6745 66.5828 60.8324C66.8041 60.9272 67.1765 60.9641 67.1624 60.7447C67.0992 59.8073 67.4838 60.1181 68.0827 60.2076C68.7729 60.3129 68.6219 59.3299 68.9889 59.0578C69.558 58.6418 69.8565 58.5102 69.2752 57.7694C68.6482 56.9725 69.068 56.4652 70.1534 56.5109C70.3465 56.5196 70.6293 56.7232 70.6556 56.3125C70.0866 55.656 69.0083 55.6104 68.5797 54.6906C69.4702 54.3395 70.1428 55.0785 70.905 54.8539C70.6205 54.0359 70.6539 53.0757 69.5299 52.6544C70.2798 52.2876 71.7077 52.83 70.9771 51.2958C70.9226 51.1835 71.1773 51.0764 71.3634 51.0764C71.7042 51.0764 72.0519 51.1905 72.3838 51.0149C71.9325 50.4568 70.8875 50.7569 70.6276 49.9161C71.2265 49.2614 72.0326 49.8793 72.5858 49.5475C72.6631 48.9665 72.0396 49.1719 71.9869 48.7629L73.3357 48.4592C72.3821 47.9853 71.9307 47.3042 72.303 46.4125C72.5893 45.7262 71.6813 45.6103 71.799 45.0732C72.4383 44.5589 73.4236 45.1908 74.0172 44.4343C73.4903 43.7321 72.3944 43.8883 72.0624 43.0195C72.2662 42.6122 72.9019 42.9405 73.0108 42.2805C72.2065 42.2103 72.0958 41.3484 71.4899 40.9236C70.7751 40.4234 70.905 40.1302 71.7779 39.8055C72.5665 39.5124 73.5342 39.5755 74.033 38.6909C73.9059 38.4515 73.7182 38.2496 73.4886 38.1054C73.259 37.9613 72.9955 37.8799 72.7246 37.8694C71.4442 37.8097 73.0407 37.0057 72.3522 36.7021C71.6638 36.3984 72.0554 36.1386 72.5682 36.021C72.8932 35.9473 73.2708 35.8946 73.2901 35.426C72.8598 35.1416 72.0958 35.5471 71.9079 34.9152C71.7533 34.3886 72.2591 34.0498 72.8089 33.6724C72.4348 33.6724 72.2065 33.6724 71.9799 33.6724C71.7533 33.6724 71.5215 33.6724 71.3634 33.4635C71.4179 33.137 71.7147 33.023 71.9184 32.8264C72.0835 32.6701 72.3083 32.5016 72.3505 32.2998C72.4365 31.8995 72.0765 31.8767 71.7972 31.8118C71.4108 31.724 71.511 31.5994 71.7674 31.4449C71.9887 31.3133 72.419 31.0465 71.8798 30.9359C70.956 30.7445 70.8506 30.3759 71.4231 29.744C71.6532 29.4877 71.6444 29.3929 71.3652 29.2929C70.6434 29.0243 70.9911 28.7452 71.3564 28.4767C71.6251 28.2783 72.0308 28.2274 72.073 27.6885C71.172 27.3585 70.2693 27.1461 69.291 27.3726ZM59.8264 70.0953C59.5788 70.2708 59.4084 70.3445 59.3101 70.4727C55.5288 75.4437 50.4531 78.6893 44.9278 81.3714C42.1353 82.7265 39.2392 83.7955 36.322 84.8312C34.2865 85.5544 32.9991 86.9376 32.3897 88.9737C32.1958 89.587 32.0663 90.2188 32.0033 90.8589C31.5327 96.4847 33.2064 101.71 35.0435 106.903C35.1167 107.062 35.2074 107.213 35.3139 107.352C40.012 114.636 46.2292 120.076 54.4206 123.15C57.7997 124.414 61.1348 124.389 64.5086 123.115C72.6894 120.022 78.9102 114.58 83.5573 107.268C84.3371 106.039 85.1907 104.835 85.6174 103.42C86.2947 101.245 86.8292 99.0279 87.2174 96.7831C87.6635 94.0624 87.8971 91.3416 86.9469 88.656C86.3024 86.8322 85.1046 85.5667 83.2921 84.8944C81.924 84.3871 80.5383 83.9289 79.1824 83.3918C71.7674 80.4464 64.888 76.7128 59.8264 70.0953Z" fill="#261B18"/>
<path d="M59.8242 70.0952C64.8858 76.7128 71.7669 80.4516 79.1837 83.383C80.5396 83.9201 81.9253 84.3782 83.2934 84.8855C85.1059 85.5578 86.3037 86.8164 86.9482 88.6472C87.8984 91.3311 87.6648 94.0536 87.2187 96.7743C86.8305 99.019 86.296 101.236 85.6187 103.411C85.192 104.826 84.3384 106.032 83.5586 107.259C78.9062 114.571 72.6907 120.013 64.5099 123.106C61.1361 124.38 57.8009 124.405 54.4219 123.141C46.2305 120.076 40.0203 114.636 35.3152 107.343C35.2087 107.204 35.118 107.053 35.0447 106.894C33.2077 101.702 31.5322 96.4759 32.0046 90.8501C32.0676 90.21 32.1971 89.5782 32.391 88.9649C33.0004 86.9305 34.2878 85.5456 36.3233 84.8224C39.237 83.7867 42.1331 82.716 44.9291 81.3626C50.4544 78.6805 55.5301 75.4349 59.3113 70.4638C59.4062 70.3445 59.5765 70.2725 59.8242 70.0952ZM59.3096 116.544C62.3146 116.587 65.2054 113.157 64.6329 110.236C64.5451 109.787 64.3062 109.479 63.8672 109.397C63.6939 109.358 63.5127 109.378 63.352 109.454C63.1912 109.529 63.0599 109.655 62.9785 109.813C62.6272 110.48 62.276 111.154 61.9985 111.853C61.5383 112.997 60.9148 113.959 59.5397 114.022C58.0591 114.096 57.4005 113.065 56.8736 111.898C56.5873 111.264 56.3081 110.624 55.9955 110.006C55.7707 109.569 55.4317 109.244 54.875 109.423C54.3182 109.602 54.2058 110.032 54.2216 110.531C54.262 111.903 54.7362 113.144 55.4194 114.315C56.2905 115.802 57.606 116.515 59.3096 116.544ZM38.9542 90.2726C38.5433 90.2726 38.3676 90.2726 38.1938 90.2726C37.6669 90.2603 37.2348 90.4604 37.1295 90.9747C37.0364 91.4346 37.3859 91.7173 37.7898 91.884C38.2201 92.0595 38.6451 92.2596 39.0895 92.3966C42.9884 93.6025 46.8505 94.8996 50.5053 96.7357C50.8164 96.8958 51.1548 96.9958 51.5029 97.0306C52.2054 97.0832 52.5953 96.4724 52.2335 95.8703C51.856 95.2735 51.3188 94.7943 50.6827 94.4871C49.3374 93.7955 47.9868 93.1022 46.5923 92.5194C44.0633 91.4697 41.4113 90.7922 38.9542 90.2726ZM81.156 91.1099C81.1437 90.643 80.8557 90.3797 80.4114 90.306C79.7737 90.2144 79.1238 90.2641 78.5075 90.4516C76.7671 90.9344 74.995 91.3293 73.2966 91.9244C71.1487 92.6616 69.0499 93.5533 67.1496 94.8171C66.0221 95.5667 65.6357 96.3091 66.0449 96.7234C66.7474 97.4255 67.45 96.899 68.1138 96.5848C71.3716 95.0247 74.755 93.7417 78.2283 92.7494C79.0033 92.5017 79.7653 92.2153 80.5114 91.891C80.6822 91.8358 80.8336 91.7329 80.9478 91.5945C81.062 91.4561 81.1343 91.288 81.156 91.1099ZM72.199 100.729C72.7803 100.697 73.3739 100.729 73.9412 100.624C76.0242 100.234 77.8893 99.4986 78.6199 97.2395C78.7956 96.7129 79.1328 96.1564 78.5585 95.6263C77.9842 95.0962 77.5223 95.4684 77.0006 95.7545C74.5102 97.1184 71.8969 98.0241 68.9955 97.7801C68.7614 97.7643 68.5263 97.769 68.293 97.7942C67.7661 97.8398 67.1971 97.8872 67.0636 98.5349C66.9055 99.2511 67.378 99.6022 67.9558 99.8321C69.3028 100.373 70.6956 100.782 72.1867 100.729H72.199ZM46.5853 100.696C48.0694 100.789 49.4638 100.404 50.832 99.8882C51.4133 99.6706 51.9314 99.3616 51.8577 98.6595C51.7786 97.9223 51.1552 97.8082 50.5527 97.7906C49.9135 97.7731 49.2724 97.7819 48.6331 97.7766C46.999 97.7939 45.3839 97.4252 43.9193 96.7006C43.1447 96.3039 42.3386 95.9563 41.5711 95.5579C41.183 95.3578 40.8019 95.2349 40.4418 95.5368C40.0818 95.8388 40.0256 96.2021 40.1151 96.6444C40.412 98.1048 41.1935 99.2019 42.5335 99.8619C43.7821 100.493 45.1765 100.78 46.573 100.694L46.5853 100.696ZM58.9882 119.725C61.4013 119.704 63.2138 119.32 64.8753 118.393C66.1047 117.71 66.4998 117.099 66.1292 116.609C65.504 115.783 64.74 116.258 64.0744 116.53C60.9412 117.815 57.8343 117.784 54.7204 116.483C54.3959 116.354 54.0586 116.259 53.7141 116.2C53.5133 116.15 53.301 116.173 53.1164 116.267C52.9317 116.36 52.7872 116.518 52.7095 116.709C52.5338 117.092 52.7393 117.384 52.9993 117.631C53.5464 118.158 54.1922 118.571 54.8996 118.847C56.3696 119.423 57.8958 119.75 58.9759 119.725H58.9882Z" fill="#F8E8DA"/>
<path d="M58.1308 19.7733C58.0685 19.4321 58.0269 19.0874 58.0061 18.7412C58.0061 18.5657 58.0342 18.111 58.3135 18.3058C59.3497 19.0325 59.1916 17.4475 59.8713 17.5353C60.4684 18.1128 60.2612 18.9729 60.6827 19.6592C61.4379 19.5908 61.2377 18.692 61.8822 18.3673C62.107 19.18 63.4243 19.345 62.7604 20.6299C64.0758 20.3104 64.1338 18.2637 65.8023 19.094L65.1489 20.7176C65.3632 21.181 66.6435 20.5737 66.1588 21.7498C66.0657 21.9745 66.4433 22.0219 66.6716 22.0271C68.3032 22.0623 68.6316 22.466 68.3383 24.0738C68.1926 24.8655 68.4384 25.1727 69.1638 25.0305C69.6538 24.9339 70.0999 24.5039 70.6601 24.9006C70.5038 25.9081 69.6854 26.4225 69.0479 27.0702C68.8336 27.1439 68.4982 27.3405 68.5825 27.4563C68.7774 27.7267 69.0812 27.6231 69.2955 27.3686C70.2702 27.1421 71.1765 27.3545 72.0599 27.6968C72.0177 28.2357 71.612 28.2866 71.3433 28.4849C70.978 28.7535 70.6303 29.0326 71.3521 29.3012C71.6314 29.4047 71.6402 29.496 71.4101 29.7523C70.8375 30.3842 70.9429 30.7528 71.8667 30.9441C72.4059 31.0547 71.9756 31.3216 71.7543 31.4532C71.4979 31.6077 71.4031 31.7323 71.7842 31.82C72.0634 31.885 72.4235 31.9078 72.3374 32.308C72.2952 32.5046 72.0704 32.6731 71.9053 32.8346C71.6999 33.0312 71.4048 33.1453 71.3504 33.4718C71.5084 33.6825 71.7332 33.6877 71.9668 33.6807C72.2004 33.6737 72.4217 33.6807 72.7958 33.6807C72.2513 34.0581 71.742 34.4021 71.8948 34.9235C72.0827 35.5554 72.8467 35.1499 73.277 35.4342C73.263 35.9029 72.8801 35.9609 72.5552 36.0293C72.0423 36.1469 71.6384 36.4032 72.3392 36.7104C73.0399 37.0176 71.4312 37.818 72.7115 37.8776C72.9824 37.8881 73.2459 37.9696 73.4755 38.1137C73.7051 38.2579 73.8928 38.4598 74.0199 38.6992C73.5282 39.5768 72.5534 39.5206 71.7649 39.8138C70.8867 40.1385 70.762 40.4317 71.4768 40.9319C72.0827 41.3567 72.1934 42.2186 72.9978 42.2888C72.8889 42.9488 72.2531 42.6205 72.0494 43.0278C72.3813 43.9054 73.4684 43.7404 74.0041 44.4426C73.4105 45.1991 72.4235 44.5672 71.7859 45.0815C71.6683 45.6186 72.5763 45.7345 72.29 46.4208C71.9194 47.3125 72.369 48.0006 73.3227 48.4675L71.9738 48.7712C72.0265 49.1802 72.65 48.9748 72.5727 49.5558C72.0178 49.8875 71.2134 49.2697 70.6145 49.9244C70.8674 50.7652 71.9124 50.4651 72.3708 51.0233C72.0406 51.1988 71.6928 51.0864 71.3521 51.0847C71.166 51.0847 70.9113 51.1917 70.9657 51.3041C71.6963 52.8347 70.2632 52.2959 69.5186 52.6627C70.6426 53.084 70.6092 54.0441 70.8937 54.8621C70.1315 55.0868 69.4588 54.3513 68.5684 54.6989C68.9969 55.6187 70.0753 55.6643 70.6443 56.3208C70.618 56.7315 70.3352 56.5279 70.142 56.5192C69.0637 56.4735 68.6439 56.9808 69.2639 57.7777C69.8452 58.5185 69.5467 58.6554 68.9776 59.0661C68.6106 59.3347 68.7616 60.3212 68.0714 60.2158C67.4725 60.1263 67.0879 59.8156 67.1511 60.753C67.1651 60.9724 66.7998 60.9285 66.5715 60.8407C66.2009 60.6828 65.8216 60.4212 65.4756 60.8706C65.1296 61.3199 65.4563 61.6289 65.6512 61.9764C65.7671 62.173 65.869 62.3784 65.9586 62.5469C65.7144 62.9506 65.2227 62.5188 65.0295 62.9226C64.8995 63.1946 65.2051 63.8634 64.7696 63.7177C64.2427 63.5422 63.7386 63.8845 63.1889 63.5088C62.2194 62.8435 62.2581 62.998 61.5134 64.0232C61.1411 64.5375 61.322 65.6942 60.2981 65.5274C59.5218 65.1395 60.6809 63.809 59.2724 63.8827C59.4656 62.9664 57.8358 63.2525 58.1484 62.2011L57.3738 63.0525C56.8101 62.6663 57.2667 61.9852 56.796 61.5657C55.8687 61.6482 55.6281 62.7716 54.6586 63.0647C54.1792 62.3626 53.5416 61.7799 54.1792 60.7319C54.4971 60.2053 54.0949 60.0473 53.561 60.1737C52.9094 60.3282 52.4036 60.9689 51.4534 60.8021C52.1436 59.6226 53.4872 59.268 54.0439 58.2078C53.2589 57.2353 52.3087 57.5758 51.3638 57.8444C51.4552 57.1423 52.1313 57.03 52.3579 56.391C51.6431 56.2734 51.255 55.8118 50.9283 55.1377C50.7667 54.8024 50.6842 53.9897 49.7849 54.1389C49.2089 54.2355 48.7048 53.3526 49.0824 52.8207C49.46 52.2888 48.5468 51.4866 49.5127 51.0899C49.6339 51.039 49.0719 50.6476 48.768 50.6037C48.0146 50.4931 47.4666 50.3264 47.983 49.4031C48.0655 49.2556 47.9268 49.1047 47.8741 48.952C47.4631 47.7619 47.6089 47.4529 48.6592 47.1247C48.9929 47.0211 49.3336 46.9491 49.7639 46.8298C49.1948 45.9398 48.61 45.1622 47.3876 45.0868C47.9391 44.6479 48.6012 44.2916 47.4877 43.9019C48.2851 43.3279 49.3511 43.7141 50.1362 43.112C49.5443 42.4959 49.0385 41.871 48.0287 41.9816C48.6205 41.2988 49.4337 41.6639 50.08 41.1847C49.6427 40.5264 47.9461 40.4246 49.1158 39.0555C48.4765 38.901 47.9689 38.7729 47.4596 38.657C47.0364 38.5622 46.6535 38.4411 46.7132 37.8864C46.7571 37.4809 47.0065 37.1843 47.3911 37.2387C48.329 37.3721 48.6504 36.6858 49.0807 36.1118C48.9226 35.4975 48.1147 35.8555 47.8636 35.3693C48.3026 34.6672 49.1632 35.3026 49.5882 34.7111C49.3986 34.1125 48.7101 34.1985 48.343 33.7175C48.5714 32.9048 49.1896 32.5275 50.0537 32.4678C49.7393 31.7972 49.1334 31.5357 48.4098 31.0846C49.1966 30.6931 49.857 31.0846 50.4032 30.8845C50.4962 30.4193 50.1415 30.3754 49.9272 30.2596C49.6058 30.084 49.3037 29.9699 49.5057 29.4995C49.6603 29.1397 49.9096 29.1485 50.2082 29.2064C50.6069 29.2731 51.002 29.4153 51.557 29.2608C51.2058 28.7483 51.3674 28.0549 50.779 27.6617C50.6367 27.5652 50.4576 27.4528 50.6297 27.3106C51.7309 26.3417 51.0196 25.3535 50.5805 24.3916C51.2532 23.9949 51.7608 24.6584 52.3719 24.4407C52.249 23.8843 51.9803 23.1646 53.0745 23.4612C53.3537 23.5367 53.6435 23.5753 53.928 23.6368C54.1036 23.7667 54.2898 23.8562 54.4549 23.6368C54.4742 23.6104 54.2951 23.4384 54.209 23.3331C53.8455 22.4747 52.862 22.1342 52.4229 21.2478C52.8567 20.9265 53.1728 21.2267 53.5083 21.3566C53.9368 21.5216 54.2793 22.0728 54.8395 21.662C54.7236 21.7463 54.7025 21.8376 54.8044 21.8973C54.8553 21.9236 54.9449 21.8744 55.0152 21.8586L54.7974 21.6831C54.771 21.1565 54.2424 20.9669 54.0334 20.5614C53.928 20.3561 53.7998 20.163 53.9983 19.9313C54.1967 19.6996 54.4514 19.5609 54.7587 19.7136C54.966 19.8172 55.1416 20.0015 55.3559 20.0647C56.2129 20.3543 56.5168 20.156 56.8136 19.1572C57.3405 19.2239 57.423 19.8277 57.8533 20.0033C57.8691 20.2314 58.0289 20.5842 58.1413 20.5105C58.4259 20.3385 58.324 20.0226 58.1308 19.7733ZM56.6503 20.3718L56.7469 20.4456L56.7627 20.328L56.6503 20.3718Z" fill="#F5E5D6"/>
<path d="M59.312 116.543C57.6084 116.513 56.293 115.8 55.4236 114.314C54.7404 113.143 54.2662 111.902 54.2258 110.529C54.21 110.031 54.3435 109.594 54.8792 109.422C55.4148 109.25 55.7749 109.567 55.9997 110.004C56.3193 110.622 56.5986 111.263 56.8778 111.897C57.4047 113.064 58.0633 114.094 59.5439 114.021C60.9103 113.954 61.5337 112.995 62.0027 111.851C62.2854 111.149 62.6314 110.478 62.9827 109.811C63.0641 109.654 63.1954 109.527 63.3562 109.452C63.5169 109.377 63.698 109.357 63.8713 109.395C64.3104 109.478 64.5493 109.785 64.6371 110.234C65.2079 113.155 62.317 116.585 59.312 116.543Z" fill="#352A26"/>
<path d="M38.9538 90.2739C41.4126 90.8005 44.0629 91.4711 46.5972 92.5295C47.9917 93.1123 49.3422 93.8056 50.6876 94.4972C51.3236 94.8045 51.8609 95.2836 52.2384 95.8804C52.6002 96.4825 52.212 97.0933 51.5077 97.0407C51.1596 97.0059 50.8212 96.9059 50.5102 96.7458C46.8501 94.9097 42.988 93.6126 39.0943 92.4067C38.65 92.2697 38.2162 92.0732 37.7947 91.8941C37.3907 91.7186 37.0412 91.4447 37.1343 90.9848C37.2397 90.4582 37.6735 90.2616 38.1986 90.2827C38.3672 90.2774 38.5428 90.2739 38.9538 90.2739Z" fill="#352A26"/>
<path d="M81.1566 91.1108C81.1348 91.2888 81.0626 91.457 80.9484 91.5954C80.8342 91.7338 80.6828 91.8367 80.512 91.8919C79.7659 92.2162 79.0038 92.5026 78.2289 92.7503C74.7556 93.7425 71.3721 95.0255 68.1144 96.5856C67.4505 96.8981 66.741 97.4264 66.0455 96.7243C65.6363 96.31 66.0227 95.5675 67.1502 94.818C69.0523 93.5542 71.151 92.6625 73.2972 91.9253C75.0008 91.339 76.7676 90.9352 78.5081 90.4525C79.1244 90.265 79.7743 90.2153 80.4119 90.3069C80.8528 90.3806 81.1408 90.6439 81.1566 91.1108Z" fill="#352A26"/>
<path d="M72.1886 100.73C70.6975 100.782 69.3047 100.379 67.9436 99.8328C67.3658 99.6028 66.8899 99.2517 67.0514 98.5356C67.1919 97.8878 67.7539 97.8334 68.2808 97.7948C68.5141 97.7697 68.7492 97.7649 68.9833 97.7808C71.8847 98.0247 74.4981 97.119 76.9885 95.7552C77.5154 95.469 77.9632 95.0898 78.5463 95.627C79.1294 96.1641 78.7799 96.7136 78.6078 97.2401C77.8772 99.4992 76.012 100.235 73.929 100.624C73.3635 100.731 72.7699 100.695 72.1886 100.73Z" fill="#352A26"/>
<path d="M46.5751 100.693C45.1743 100.781 43.7754 100.493 42.5234 99.8592C41.1834 99.1992 40.4018 98.1039 40.105 96.6417C40.0154 96.1994 40.105 95.8167 40.4317 95.5341C40.7583 95.2515 41.1728 95.3586 41.561 95.5552C42.3355 95.9536 43.1416 96.3012 43.9091 96.6979C45.3737 97.4225 46.9888 97.7912 48.623 97.7739C49.2623 97.7739 49.9033 97.7739 50.5426 97.7879C51.152 97.8055 51.772 97.9196 51.8475 98.6568C51.9213 99.3589 51.4032 99.6679 50.8219 99.8855C49.4537 100.403 48.0592 100.788 46.5751 100.693Z" fill="#352A26"/>
<path d="M58.9788 119.725C57.8987 119.75 56.3725 119.423 54.8902 118.848C54.1828 118.571 53.537 118.158 52.9898 117.631C52.7299 117.384 52.5156 117.092 52.7001 116.71C52.7777 116.518 52.9223 116.361 53.1069 116.267C53.2916 116.173 53.5039 116.15 53.7047 116.201C54.0492 116.259 54.3865 116.354 54.711 116.483C57.8249 117.784 60.9318 117.816 64.065 116.531C64.7306 116.257 65.4946 115.783 66.1198 116.61C66.4904 117.099 66.09 117.71 64.8658 118.393C63.2044 119.32 61.3919 119.704 58.9788 119.725Z" fill="#352A26"/>
<path d="M69.2889 27.3731C69.0746 27.6276 68.762 27.7242 68.5758 27.4609C68.4915 27.345 68.827 27.1484 69.0412 27.0747L69.2889 27.3731Z" fill="#261B18"/>
<path d="M58.1322 19.7744C58.3219 20.0202 58.4272 20.3361 58.1533 20.5116C58.0391 20.5854 57.881 20.2326 57.8652 20.0044L58.1322 19.7744Z" fill="#261B18"/>
<path d="M56.6504 20.3759L56.7646 20.332L56.747 20.4496L56.6504 20.3759Z" fill="#261B18"/>
<path d="M54.8143 21.6773L55.0321 21.8529C54.9618 21.8687 54.8723 21.9178 54.8213 21.8915C54.7195 21.8388 54.7405 21.7405 54.8564 21.6562L54.8143 21.6773Z" fill="#261B18"/>
<path d="M54.2224 23.3203C54.3085 23.4256 54.4876 23.5976 54.4683 23.624C54.3085 23.8381 54.117 23.7486 53.9414 23.624L54.2224 23.3203Z" fill="#261B18"/>
</g>
<defs>
<clipPath id="clip0_2201_4335">
<rect width="93.192" height="114.698" fill="white" transform="translate(12.8398 12.5977)"/>
</clipPath>
</defs>
</svg>
