<svg width="22" height="23" viewBox="0 0 22 23" fill="none" xmlns="http://www.w3.org/2000/svg">
<g clip-path="url(#clip0_892_7149)">
<path d="M3.66703 1.88672H8.33703L10.672 7.72421L7.75328 9.47546C9.00362 12.0107 11.0555 14.0626 13.5908 15.313L15.342 12.3942L21.1795 14.7292V19.3992C21.1795 20.0185 20.9335 20.6124 20.4956 21.0503C20.0577 21.4882 19.4638 21.7342 18.8445 21.7342C14.2904 21.4574 9.99506 19.5235 6.76888 16.2974C3.5427 13.0712 1.60879 8.77582 1.33203 4.22172C1.33203 3.60244 1.57804 3.00852 2.01594 2.57062C2.45383 2.13273 3.04775 1.88672 3.66703 1.88672Z" fill="white"/>
</g>
<defs>
<clipPath id="clip0_892_7149">
<rect width="21.5014" height="21.5014" fill="white" transform="translate(0.230469 0.785156)"/>
</clipPath>
</defs>
</svg>
