<svg width="120" height="140" viewBox="0 0 120 140" fill="none" xmlns="http://www.w3.org/2000/svg">
<g clip-path="url(#clip0_2201_4363)">
<path d="M40.2248 118.107C40.0333 118.386 39.9279 118.523 39.84 118.671C39.0336 120.029 38.3415 120.218 37.0133 119.373C32.3288 116.362 28.2029 112.561 24.8192 108.141C19.8826 101.739 16.7871 94.4971 14.9811 86.6545C13.9129 82.0216 13.4281 77.329 13.2067 72.5925C12.9274 66.6259 13.0011 60.6786 13.6968 54.747C14.6297 46.7834 16.6395 39.1285 20.7241 32.1616C25.2918 24.3611 31.8289 18.8473 40.3214 15.7025C47.5138 13.0386 54.9943 12.3682 62.5908 12.6613C68.1107 12.8736 73.52 13.7142 78.7325 15.6306C88.8113 19.3334 95.9492 26.1862 100.459 35.8504C104.09 43.6491 105.631 51.9427 106.068 60.4697C106.386 66.6645 106.337 72.861 105.601 79.0242C104.291 90.0151 100.849 100.193 93.8305 108.947C90.802 112.748 87.2031 116.058 83.1614 118.76C81.6909 119.741 80.946 119.448 80.2697 117.758C80.231 117.662 80.1291 117.593 80.0395 117.491C79.3684 117.439 79.0311 117.995 78.6341 118.369C74.9149 121.761 70.6634 124.262 65.985 126.073C61.8213 127.682 57.6629 127.719 53.4887 126.145C48.9803 124.475 44.8133 122.001 41.191 118.843C40.9187 118.609 40.6306 118.414 40.2248 118.107ZM77.0705 27.0286C76.6998 26.7917 76.3977 26.8303 76.1921 27.2462C75.9918 27.1655 75.5315 27.2251 75.6018 27.0952C76.0972 26.1862 75.2504 26.3003 74.8762 26.0792C74.8762 25.5351 75.6123 25.1544 75.2153 24.484C74.0857 24.6103 73.5779 25.8229 72.3868 25.9563C72.5765 24.7454 72.3306 23.8364 70.941 23.7574L70.969 23.7978C70.5632 23.1204 71.215 22.7449 71.4381 22.257C71.7438 21.5989 71.9652 21.0093 71.2765 20.446C71.1462 20.5586 71.005 20.658 70.8549 20.7425C70.3278 20.983 70.0291 22.6449 69.1666 21.0198C69.0734 20.8443 68.7414 21.0514 68.5183 21.1058C67.6399 21.3252 67.4115 21.176 67.3746 20.3073C67.3588 19.9564 67.5503 19.5756 67.3746 19.2246C66.6315 19.386 66.4962 20.5197 65.7601 20.1424C65.1294 19.8195 65.3508 18.9999 65.3156 18.3699C65.3183 18.1934 65.3036 18.0171 65.2717 17.8435C65.2559 17.7838 65.0679 17.6961 65.0346 17.7224C63.8153 18.6437 63.7222 16.9959 63.0125 16.7695C62.0128 18.9315 61.1379 19.1491 59.4988 17.682C59.0016 18.2875 59.3723 19.1579 58.8593 19.7721C58.4711 19.2702 58.6064 18.5437 58.0951 18.119C57.7438 18.2155 57.8738 18.7666 57.2009 18.6911C55.3281 18.4788 55.3176 18.5788 55.2333 20.5109C55.2414 20.5691 55.2414 20.6282 55.2333 20.6864C55.1735 20.8391 55.1401 21.0602 55.0259 21.1233C54.9752 21.1525 54.9186 21.1698 54.8602 21.1738C54.8018 21.1778 54.7433 21.1684 54.6891 21.1464C54.6349 21.1244 54.5864 21.0904 54.5474 21.0468C54.5084 21.0033 54.4797 20.9515 54.4638 20.8952C54.1352 20.0968 53.7171 19.4299 52.6912 19.558C52.6402 19.4018 52.5875 19.2456 52.5365 19.0895C52.5067 19.1386 52.4522 19.1895 52.454 19.2386C52.454 19.4141 52.4452 19.6107 52.7245 19.5247C52.4382 19.8756 52.8001 20.3319 52.5787 20.6548C51.9937 20.7075 52.0183 19.7563 51.298 19.9528C51.2453 20.8742 51.9884 21.6674 51.7899 22.6203C51.1416 22.6062 50.9783 22.0938 50.7183 21.7428C50.0946 20.9233 49.8398 22.0938 49.2759 21.9798C48.7488 21.8745 48.9983 22.4202 49.0879 22.7238C49.2443 23.2503 49.6466 23.7452 49.2636 24.3541C48.2763 24.2611 47.823 23.1415 46.7109 23.1661C47.0096 23.9803 46.4263 24.8402 47.1888 25.5229C47.4295 25.7387 47.3188 26.0651 47.0781 26.288C46.8374 26.5109 46.6073 26.6057 46.2928 26.4635C45.6832 26.1968 45.186 25.644 44.3305 25.6211C44.5395 26.6829 45.7359 26.9408 45.8642 27.7393C44.3515 28.9555 43.1446 27.4708 41.718 27.3567C41.8937 28.4904 42.99 28.8256 43.6593 29.8803C42.8178 29.6012 42.333 29.4415 41.8463 29.2889H41.5758C41.6021 29.3292 41.6215 29.3941 41.6583 29.4082C41.7866 29.4556 41.8586 29.3924 41.8656 29.245C41.2753 30.1628 42.7177 30.2628 42.6052 31.0262C41.7374 31.1438 41.0031 30.3804 40.1246 30.6647C40.2072 31.2842 40.6921 31.4474 41.0803 31.6597C41.7497 32.0265 41.1998 32.4372 41.1717 32.8285L41.2174 32.8057C40.6394 33.0742 39.8119 32.9811 39.7276 33.934C39.6292 34.9993 40.8994 34.9186 41.1524 35.6767L40.4778 37.0227C40.4778 37.249 40.3021 37.2578 40.151 37.3368C39.5765 37.6457 39.4588 38.7126 40.0245 39.1303C40.3759 39.3935 40.4883 39.5883 40.3003 39.9656C40.1791 40.2095 39.8892 40.3938 40.0491 40.7395C40.3302 41.3467 40.3442 41.8047 39.5537 42.0943C39.2023 42.2206 39.3288 42.7962 39.1918 43.1577C39.4606 43.2578 39.7329 43.349 39.9964 43.4613C40.1545 43.528 40.3091 43.6211 40.1721 43.9668L37.9251 44.2475C38.1131 44.8021 38.8035 44.6301 38.9792 45.0864C39.0653 45.6128 37.9673 45.3566 38.3467 46.0726C38.8544 46.392 39.5326 46.0586 40.2634 46.4482C39.4588 46.8114 38.8773 47.0677 38.3028 47.3362C37.7582 47.5906 37.7846 48.3891 37.9796 48.4277C38.7508 48.5523 39.1795 48.7787 39.1478 49.6438C39.1478 49.7702 39.6749 49.6122 39.84 49.9141C39.6643 50.2844 39.0881 50.2843 39.0337 50.5125C38.8914 51.0951 38.1939 51.4812 38.6823 52.3481C39.1198 53.1203 39.5449 52.8833 40.0878 52.843C40.313 52.8378 40.5382 52.8466 40.7624 52.8693C40.5392 53.9714 41.6408 53.8345 42.0975 54.3048C42.2873 54.5031 42.1906 54.7418 42.0852 54.9488C41.9377 55.2331 41.5248 55.4051 41.7602 55.9456C42.4629 55.9246 43.2201 56.0246 43.5293 56.8792C43.2851 57.4794 42.398 57.6637 42.405 58.4692C43.0708 58.7096 43.5838 58.1744 44.1425 58.3148C44.1267 59.2606 42.737 59.3098 42.9566 60.3294L42.8284 60.3153H42.9285C44.0002 60.0959 44.8417 60.6329 45.374 61.3981C45.8097 62.0228 46.3929 62.3475 46.9077 62.1509C48.0566 61.7104 47.7861 63.0284 48.4063 63.1705C48.0549 64.0058 49.0668 64.7113 48.4326 65.5852C49.3462 65.4501 49.4322 64.4165 50.2492 64.4638L50.2175 64.4393C50.4213 65.3501 49.4428 65.9731 49.5868 66.933C50.4248 66.8593 50.4776 65.8801 51.1346 65.6554C51.5281 66.0275 50.9291 66.5768 51.486 66.9523C52.013 67.1278 52.3011 66.1591 53.0302 66.5539C52.9951 67.4595 52.7491 68.3229 52.0991 69.0389C51.1574 70.0742 50.2439 71.1447 49.2372 72.1064C46.0486 75.1669 42.3558 77.5466 38.5962 79.8279C37.9936 80.121 37.2874 80.2772 36.7621 81.2511C37.6405 80.9967 38.2062 80.8458 38.6858 80.4509C39.4236 80.1491 40.1721 79.8665 40.8994 79.5419C46.1171 77.2132 50.8342 74.1386 54.8661 70.0655C55.6014 69.284 56.4136 68.5785 57.2905 67.9596C57.8175 68.4861 57.3695 69.4442 58.3815 69.797C58.4728 68.7739 59.5726 68.379 59.7518 67.384C59.8063 67.0769 59.9573 66.7803 60.3017 66.8575C60.6161 66.926 60.6688 67.2664 60.6987 67.5595C60.7883 68.4527 60.7567 69.3741 61.1889 70.162C62.4081 69.797 61.7792 68.6036 62.243 67.9736C62.4011 67.9929 62.4942 67.9737 62.5117 68.0088C62.7419 68.4071 62.9457 68.8212 63.1846 69.2126C63.8364 70.2655 63.7995 68.8335 64.1754 68.9371C64.3415 68.986 64.4937 69.0732 64.6199 69.1916C64.8747 69.432 65.0978 69.704 65.342 69.9549C68.5747 73.3323 72.3725 76.1205 76.5645 78.1941C76.8456 78.5205 77.1988 78.7925 77.5484 78.3696C77.898 77.9467 77.5483 77.6413 77.2093 77.4079C77.0586 77.3324 76.9001 77.2736 76.7367 77.2324C76.0761 76.469 75.0431 76.2479 74.314 75.6267C72.0741 73.7209 69.7973 71.8502 67.8648 69.6092C67.4783 69.1599 67.0935 68.7107 67.148 68.086C67.1814 67.7016 66.4453 66.6031 67.8208 67.2577C68.0159 67.3507 68.0439 67.0962 68.1125 66.9488C68.7186 65.6291 68.7186 65.6344 69.7059 66.7733C69.7272 66.8122 69.7566 66.846 69.7922 66.8724C69.8278 66.8989 69.8687 66.9173 69.9121 66.9265C69.9555 66.9356 70.0003 66.9354 70.0436 66.9256C70.0868 66.9158 70.1275 66.8968 70.1627 66.8698C70.1768 66.5627 70.1926 66.2223 70.2084 65.8836C70.2839 65.8257 70.3595 65.7713 70.4385 65.7186C71.5998 65.838 71.6771 65.7695 71.3556 64.8956C71.0903 64.1796 70.5667 63.5583 70.3682 62.4528C71.5752 63.1284 72.3007 64.0866 73.5481 64.0164C73.8819 63.9971 74.04 64.1918 74.293 63.7689C74.5793 63.2881 74.8376 62.4054 75.3137 62.4457C77.1127 62.5949 75.8723 61.5683 75.86 61.1173C75.8425 60.4153 74.806 60.1082 74.892 59.2694C75.5948 59.0834 76.0252 59.8292 76.6893 59.5116C76.7648 58.5586 76.3484 57.3074 77.9296 57.1021C78.0947 57.081 78.1439 56.9442 78.1053 56.7283C77.9436 55.7 78.5058 55.542 79.3473 55.7526C79.6249 55.8228 79.9587 55.9281 80.0711 55.5403C80.1502 55.27 80.1836 54.9366 79.9745 54.7067C79.7352 54.4753 79.4792 54.2618 79.2085 54.0679C79.653 53.6502 80.2626 54.1153 80.7528 53.6362C80.4401 53.0325 79.7356 52.9062 79.2894 52.4833C79.1295 52.3323 78.9064 52.0972 78.9292 51.9322C78.9731 51.6304 79.2806 51.497 79.588 51.4724C80.2538 51.4198 80.9162 51.848 81.6294 51.5549C81.0427 50.6494 80.9759 50.6283 81.2183 49.8211C81.452 49.0489 81.271 48.6084 80.5262 48.3171C80.1748 48.182 79.7128 48.1416 79.5634 47.6152L80.6175 47.5274C80.9566 47.4958 81.336 47.5608 81.5205 47.1554C81.4309 46.7202 81.0672 46.6289 80.7229 46.6078C79.8129 46.5517 80.8775 46.027 80.5297 45.8498C80.4014 45.7848 80.3768 45.6234 80.5051 45.5795C80.7341 45.5336 80.9659 45.5031 81.199 45.4882C82.1758 45.3022 82.348 44.9793 81.9931 43.9474C81.9281 43.7597 81.9 43.535 82.0352 43.4912C82.6132 43.3034 82.3866 42.712 82.6466 42.3417C83.3687 41.3309 82.9418 40.4535 81.7682 40.2552C81.2763 40.1727 80.7791 40.1235 80.0501 40.027C80.7528 39.3566 81.5961 39.5356 82.03 38.9741C81.6892 38.2721 81.0409 38.0563 80.2064 38.051C81.2271 37.2402 80.6667 36.2786 80.9338 35.4661C80.2767 35.3713 79.9148 34.9782 79.5511 34.8115C79.6495 34.0657 79.8708 33.4076 80.7194 32.9776C79.3139 32.6951 78.8519 31.8931 78.8168 30.8156C78.2897 30.6155 77.9032 31.114 77.5589 31.028C76.5223 29.7294 77.8997 29.0642 78.3213 28.078C77.1952 28.0973 76.489 29.0818 75.4455 28.9431C75.4033 28.192 76.1798 28.006 76.3239 27.4357C76.5575 27.2865 76.7929 27.1391 77.016 26.9847C76.9528 26.9268 77.2005 26.732 76.9212 26.7706L77.0705 27.0286ZM55.1665 72.9417C54.6711 72.9277 54.787 73.4331 54.5639 73.6437C54.0843 73.9631 53.5748 74.2474 53.1304 74.6106C49.9488 77.2219 46.3684 79.1382 42.6211 80.7913C41.5196 81.2757 40.3372 81.6179 39.3411 82.3146L37.6194 82.8621C37.2312 82.7884 36.9466 82.9656 36.7006 83.2394C34.6768 83.7062 33.1676 84.7539 32.7144 86.9019C32.486 87.9846 32.2207 89.0551 32.1259 90.1712C31.8553 93.3599 32.4298 96.4608 33.0657 99.5424C33.9072 103.617 35.0598 107.587 37.9374 110.8C38.598 111.539 39.1971 112.334 39.8699 113.066C44.1144 117.716 49.1178 121.236 55.1068 123.304C58.0478 124.355 61.2626 124.355 64.2035 123.304C67.4326 122.189 70.4631 120.671 73.1633 118.622C80.3663 113.134 86.0759 106.625 87.318 97.1838C87.7537 93.8741 88.0207 90.5872 87.246 87.2739C86.7734 85.2523 85.6771 83.9835 83.6919 83.3693C81.9351 82.8235 80.2064 82.1409 78.4654 81.5319C78.0666 80.9633 77.3955 80.8651 76.821 80.6299C75.8196 80.2193 74.7726 79.9192 73.8344 79.3506C72.812 78.4731 71.598 77.987 70.3366 77.5957C71.4188 78.4626 72.487 79.326 73.7659 79.8595C75.0748 80.7264 76.3695 81.6144 77.8821 82.1163C78.1474 82.7112 79.0329 82.5849 79.4633 83.5658C71.2414 82.0268 64.0806 79.3436 59.6253 71.959C55.6848 76.7534 51.3367 79.7595 45.9221 81.4951L45.2967 80.9335C48.8279 79.0979 52.1096 76.9131 54.9153 74.0649C55.0824 73.9994 55.2282 73.8893 55.3369 73.7466C55.4457 73.6039 55.5131 73.4342 55.5319 73.2559C56.1011 73.1295 56.3488 72.7733 56.4384 72.1819C55.7919 72.238 55.5284 72.6715 55.1665 72.9417ZM67.1673 75.2757C67.0981 75.0604 67.0019 74.8546 66.881 74.6633C66.7053 74.4492 66.4242 74.2245 66.1782 74.558C66.0377 74.7545 66.2046 75.0055 66.3961 75.1353C66.5933 75.2478 66.8003 75.3424 67.0145 75.4179C67.5415 75.9444 67.9175 76.6586 68.7713 76.7533C69.0875 76.9288 69.2737 77.4957 69.8254 77.1781C69.6497 76.6042 69.0893 76.5603 68.8293 76.1988C68.3883 75.6881 67.914 75.2406 67.1673 75.2757ZM81.1358 79.856C80.9829 79.8192 80.7844 79.7209 80.7247 79.9455C80.6386 80.2439 80.8881 80.2965 81.0954 80.3526C81.647 80.7036 82.1934 81.0827 82.926 80.9686C82.4377 80.4467 81.8202 80.0629 81.1358 79.856ZM79.9306 79.856C80.1186 79.9332 80.3206 80.1333 80.4945 79.8683C80.6685 79.6033 80.4506 79.491 80.2609 79.3804C79.711 78.7434 78.9222 78.4855 78.2124 78.1046C78.1386 78.0581 78.0493 78.0422 77.9639 78.0606C77.8785 78.079 77.8038 78.1301 77.7557 78.2029C77.6116 78.417 77.58 78.6399 77.7715 78.8188C78.3684 79.3768 79.1217 79.7393 79.9306 79.8578V79.856ZM56.846 71.4238C56.7828 71.501 56.6616 71.5835 56.6703 71.6537C56.6844 71.7958 56.7968 71.8063 56.8794 71.6765C56.9191 71.5938 56.9486 71.5065 56.9672 71.4167L56.846 71.4238Z" fill="#271C19"/>
<path d="M37.6188 82.8702L39.3405 82.3226C39.5373 82.6596 39.7621 82.9667 40.168 83.0737C40.1876 83.1279 40.2177 83.1776 40.2566 83.2201C40.2955 83.2625 40.3424 83.2969 40.3946 83.3212C40.4469 83.3455 40.5034 83.3592 40.561 83.3617C40.6185 83.3641 40.676 83.3551 40.7301 83.3352C42.4869 82.7719 44.3158 82.4578 45.9251 81.4926C51.3413 79.757 55.6894 76.7544 59.6282 71.9565C64.0835 79.3411 71.2443 82.0243 79.4662 83.5634C79.0323 82.5824 78.1468 82.7087 77.8851 82.1138L78.4648 81.5312C80.2058 82.1489 81.9293 82.8228 83.6913 83.3686C85.6765 83.9828 86.7728 85.2516 87.2454 87.2732C88.0201 90.5865 87.7531 93.8734 87.3174 97.1831C86.0753 106.624 80.3674 113.133 73.1627 118.621C70.459 120.679 67.4285 122.188 64.2029 123.303C61.262 124.354 58.0471 124.354 55.1062 123.303C49.1172 121.236 44.1138 117.715 39.8693 113.065C39.2017 112.333 38.6026 111.538 37.9368 110.799C35.0591 107.586 33.9066 103.616 33.0651 99.5416C32.4291 96.4601 31.8547 93.3592 32.1252 90.1705C32.2201 89.0544 32.4854 87.9839 32.7138 86.9012C33.167 84.7532 34.6762 83.7055 36.7 83.2387C37.1392 83.4423 37.473 83.3826 37.6188 82.8702ZM59.8513 116.534C61.0038 116.534 62.2195 116.204 63.0962 115.116C64.1099 113.858 64.6334 112.391 64.8758 110.808C64.976 110.152 64.8301 109.604 64.1415 109.432C63.5108 109.274 63.1893 109.783 62.9503 110.246C62.5252 111.077 62.1159 111.917 61.7592 112.777C61.0881 114.39 58.4213 114.532 57.6184 112.905C57.3619 112.379 57.1195 111.852 56.8648 111.338C56.6521 110.858 56.4146 110.389 56.1532 109.934C55.9336 109.583 55.591 109.302 55.1308 109.408C54.5844 109.545 54.4368 109.98 54.4667 110.489C54.5563 112.033 54.9762 113.472 55.888 114.734C56.7997 115.995 58.1033 116.596 59.8513 116.534ZM46.8807 100.823C48.2862 100.879 49.6917 100.438 51.0479 99.8944C51.5978 99.675 52.1775 99.4188 52.0616 98.666C51.9457 97.9131 51.3589 97.8587 50.7334 97.8447C49.6793 97.8236 48.6341 97.7674 47.5852 97.6955C45.4771 97.5551 43.6623 96.6197 41.8721 95.6265C41.4223 95.3773 40.9936 95.2316 40.5773 95.5651C40.1609 95.8985 40.2101 96.3688 40.3278 96.8496C40.6194 98.0359 41.2273 98.9853 42.2902 99.6294C43.6706 100.467 45.2667 100.882 46.8807 100.823ZM72.6568 100.823C74.1629 100.835 75.6438 100.436 76.9399 99.6697C77.3991 99.4117 77.802 99.0646 78.1248 98.6486C78.4476 98.2327 78.6839 97.7565 78.8197 97.248C78.9954 96.6829 79.222 96.095 78.7266 95.6054C78.1679 95.0544 77.6549 95.5037 77.1454 95.7809C75.3465 96.7707 73.493 97.6148 71.4024 97.7464C70.4133 97.8078 69.4207 97.8429 68.4299 97.8499C67.8483 97.8499 67.3635 97.9622 67.23 98.601C67.0965 99.2398 67.4952 99.5627 68.0153 99.7943C69.4688 100.472 71.0528 100.824 72.6568 100.826V100.823ZM81.3267 91.1199C81.3267 90.7216 81.1773 90.4075 80.7522 90.3882C80.1707 90.3618 79.5645 90.3039 79.0059 90.4285C74.9951 91.3165 71.1002 92.5344 67.5866 94.7262C67.0982 95.0438 66.6514 95.4211 66.2567 95.8493C66.1363 95.9822 66.066 96.1529 66.058 96.3319C66.05 96.511 66.1047 96.6873 66.2128 96.8303C66.299 96.952 66.4217 97.0431 66.5632 97.0904C66.7047 97.1377 66.8576 97.1389 66.9998 97.0936C67.6195 96.9309 68.2234 96.713 68.8041 96.4425C71.9365 94.8403 75.2516 93.7294 78.6071 92.7169C79.2765 92.515 79.9335 92.2711 80.587 92.0149C80.7803 91.9484 80.9516 91.8301 81.0821 91.6728C81.2125 91.5156 81.2972 91.3255 81.3267 91.1234V91.1199ZM39.1279 90.3548C38.7765 90.3548 38.6008 90.3548 38.4252 90.3548C37.9297 90.3548 37.4625 90.4162 37.35 91.0041C37.2569 91.492 37.5995 91.7833 37.9702 91.9553C38.5041 92.1907 39.0535 92.3895 39.6145 92.5501C43.1914 93.6452 46.7525 94.7841 50.0852 96.525C50.447 96.7156 50.8243 96.8753 51.213 97.0023C51.661 97.1462 52.1635 97.2726 52.4762 96.7742C52.8275 96.2073 52.499 95.7634 52.0809 95.4071C51.7221 95.1082 51.3396 94.8389 50.9373 94.6016C48.3126 93.0222 45.4788 91.9482 42.5432 91.127C41.3644 90.7988 40.1908 90.432 39.1279 90.3583V90.3548ZM59.6739 119.783C61.6345 119.853 63.379 119.221 65.0726 118.407C65.5058 118.225 65.8816 117.929 66.1601 117.55C66.3586 117.254 66.5395 116.948 66.2883 116.596C66.1952 116.447 66.0589 116.33 65.8977 116.26C65.7364 116.19 65.5578 116.171 65.3853 116.204C65.2122 116.232 65.0426 116.279 64.8793 116.343C61.3657 117.817 57.8591 117.813 54.3595 116.331C53.8588 116.118 53.2878 116.02 52.9646 116.597C52.5798 117.285 53.1403 117.65 53.59 118.019C53.8178 118.201 54.0682 118.352 54.3349 118.47C56.0408 119.26 57.7888 119.883 59.6739 119.786V119.783Z" fill="#F8E8DA"/>
<path d="M76.5658 78.2107C72.3738 76.1371 68.576 73.3489 65.3433 69.9715C65.0991 69.7205 64.876 69.445 64.6212 69.2081C64.495 69.0897 64.3428 69.0026 64.1767 68.9536C63.8008 68.8501 63.8377 70.2909 63.1859 69.2292C62.947 68.8378 62.7432 68.4237 62.513 68.0253C62.4955 67.9955 62.4024 68.0095 62.2442 67.9902C61.7717 68.6202 62.4006 69.8135 61.1902 70.1785C60.758 69.3906 60.7896 68.4693 60.7 67.5761C60.6701 67.276 60.6174 66.9355 60.303 66.8741C59.9516 66.7987 59.8076 67.0952 59.7531 67.4006C59.5774 68.3956 58.4741 68.7905 58.3828 69.8136C57.3708 69.4626 57.8188 68.4974 57.2918 67.9762C56.4149 68.595 55.6027 69.3005 54.8674 70.082C50.8355 74.1551 46.1184 77.2297 40.9007 79.5584C40.1734 79.8831 39.4249 80.1656 38.6871 80.4675L38.5975 79.8445C42.3571 77.5631 46.0499 75.1905 49.2385 72.123C50.2452 71.156 51.1587 70.0908 52.1004 69.0554C52.7504 68.3394 52.9964 67.476 53.0315 66.5705C52.3024 66.1756 52.0125 67.1408 51.4873 66.9688C50.9391 66.5933 51.5382 66.044 51.1359 65.672C50.4788 65.8984 50.4332 66.8759 49.5881 66.9496C49.4441 65.9896 50.4226 65.3702 50.2188 64.4559C50.5368 64.4857 50.5439 64.2804 50.4964 64.0663C50.4705 64.0207 50.4285 63.9863 50.3787 63.9698C50.2171 64.1084 50.0765 64.2576 50.2505 64.4804C49.4335 64.433 49.3475 65.4667 48.4339 65.6018C49.0681 64.7244 48.0632 64.0224 48.4076 63.1871C47.7874 63.0537 48.0562 61.727 46.909 62.1675C46.3942 62.364 45.811 62.0394 45.3753 61.4146C44.8482 60.6495 44.0015 60.1125 42.9298 60.3319L42.9649 60.3459C42.7383 59.321 44.1279 59.2719 44.1438 58.326C43.5851 58.1856 43.0721 58.7209 42.4063 58.4805C42.4063 57.675 43.2847 57.4907 43.5306 56.8905C43.2214 56.0359 42.4765 55.9359 41.7615 55.9569C41.5261 55.4164 41.9372 55.2444 42.0865 54.9602C42.1919 54.7531 42.2886 54.5144 42.0988 54.3161C41.6456 53.8458 40.5405 53.9827 40.7636 52.8806C40.5395 52.8579 40.3143 52.8491 40.0891 52.8543C39.5515 52.8946 39.1263 53.1315 38.6836 52.3594C38.1934 51.4925 38.8909 51.1064 39.035 50.5238C39.0894 50.2957 39.6727 50.2957 39.8413 49.9254C39.6797 49.6235 39.1386 49.7815 39.1491 49.6551C39.1808 48.797 38.7521 48.5636 37.9809 48.439C37.7859 48.4074 37.7595 47.6019 38.3041 47.3475C38.8786 47.079 39.4601 46.821 40.2647 46.4595C39.5339 46.0699 38.8593 46.4033 38.348 46.0839C37.9685 45.3679 39.0666 45.6312 38.9805 45.0977C38.8048 44.6414 38.1197 44.8134 37.9264 44.2588L40.1734 43.978C40.3016 43.6271 40.147 43.5393 39.9977 43.4727C39.7342 43.3603 39.4619 43.2691 39.1931 43.1691C39.3301 42.8181 39.2089 42.2319 39.555 42.1056C40.3455 41.816 40.3315 41.358 40.0504 40.7508C39.8905 40.3998 40.1804 40.2244 40.3016 39.9769C40.4896 39.5996 40.3824 39.4048 40.0258 39.1416C39.4601 38.7239 39.5778 37.657 40.1523 37.3481C40.2998 37.2691 40.4843 37.2604 40.4791 37.034L41.1537 35.6879C40.9007 34.9298 39.6305 35.0106 39.7289 33.9454C39.815 33.0012 40.6407 33.0855 41.2152 32.8187C41.0535 32.8626 41.0131 32.9503 41.1132 33.0697C41.1431 33.1048 41.2134 33.1048 41.2661 33.1206C41.2345 33.0258 41.2046 32.9328 41.173 32.8398C41.2011 32.4484 41.751 32.0378 41.0816 31.671C40.6934 31.4587 40.2032 31.2955 40.1259 30.676C41.0043 30.3917 41.7387 31.1551 42.6065 31.0375C42.719 30.2741 41.2766 30.1741 41.8669 29.2563L41.8511 29.3002L43.6606 29.9003C42.9913 28.8474 41.9038 28.5105 41.7193 27.3768C43.1459 27.4909 44.3546 28.9755 45.8654 27.7594C45.7319 26.9609 44.5408 26.7064 44.3317 25.6412C45.1873 25.664 45.6845 26.2168 46.2941 26.4836C46.6086 26.6222 46.8563 26.5134 47.0794 26.3081C47.3025 26.1027 47.4308 25.7588 47.1901 25.543C46.4276 24.8603 47.0144 24.0004 46.7122 23.1861C47.8243 23.1615 48.2776 24.2812 49.2649 24.3742C49.6409 23.7652 49.2386 23.2651 49.0892 22.7439C48.9996 22.4403 48.7378 21.8945 49.2772 21.9998C49.8464 22.1139 50.0959 20.9469 50.7196 21.7629C50.9796 22.1051 51.1429 22.6211 51.7912 22.6404C51.9897 21.6875 51.2466 20.8855 51.2993 19.9729C52.0196 19.7711 52.002 20.7223 52.58 20.6749C52.8014 20.352 52.4395 19.8992 52.7258 19.5447L52.6942 19.5781C53.7184 19.45 54.1365 20.1168 54.4651 20.9153C54.481 20.9715 54.5096 21.0234 54.5487 21.0669C54.5877 21.1104 54.6362 21.1445 54.6904 21.1665C54.7446 21.1885 54.8031 21.1978 54.8615 21.1938C54.9199 21.1898 54.9765 21.1726 55.0272 21.1434C55.1414 21.0803 55.1748 20.8592 55.2346 20.7065C55.2427 20.6483 55.2427 20.5892 55.2346 20.531C55.3189 18.6006 55.3294 18.4988 57.2022 18.7111C57.8751 18.7866 57.7451 18.2356 58.0964 18.1391C58.6077 18.5567 58.4724 19.2903 58.8606 19.7922C59.3736 19.178 59.0029 18.3075 59.5001 17.7021C61.1463 19.1692 62.0212 18.9516 63.0138 16.7896C63.7165 17.0159 63.8166 18.6638 65.0359 17.7424C65.0692 17.7161 65.2572 17.8039 65.273 17.8636C65.3049 18.0372 65.3196 18.2135 65.3169 18.39C65.3521 19.02 65.1307 19.8395 65.7614 20.1624C66.4957 20.5397 66.6398 19.4061 67.3759 19.2446C67.541 19.5956 67.3566 19.9712 67.3759 20.3274C67.4128 21.1961 67.6324 21.3452 68.5196 21.1259C68.7427 21.0715 69.0747 20.8626 69.1678 21.0399C70.0304 22.6649 70.3274 21.0031 70.8562 20.7626C71.0063 20.6781 71.1475 20.5787 71.2778 20.466C71.9612 21.0294 71.7451 21.619 71.4394 22.2771C71.2163 22.7579 70.561 23.1405 70.9703 23.8179C70.8737 23.6828 70.7841 23.6863 70.7262 23.8372C70.7221 23.8632 70.7239 23.8898 70.7315 23.915C70.7391 23.9402 70.7523 23.9634 70.7701 23.9828C70.9141 24.0004 70.9721 23.9232 70.9458 23.7775C72.3354 23.8565 72.5814 24.7655 72.3916 25.9764C73.5827 25.843 74.0905 24.6304 75.2201 24.504C75.6172 25.1744 74.8687 25.557 74.881 26.0992C75.257 26.3204 76.1108 26.2063 75.6066 27.1153C75.5363 27.2452 75.9966 27.1855 76.1969 27.2662C76.2479 27.3327 76.2954 27.4019 76.3392 27.4733C76.1916 28.0419 75.4151 28.2279 75.4608 28.979C76.5043 29.1176 77.2176 28.1332 78.3367 28.1139C77.9151 29.1001 76.5377 29.7652 77.5742 31.0638C77.9256 31.1498 78.2998 30.6514 78.8321 30.8515C78.8672 31.929 79.3258 32.731 80.7347 33.0135C79.8862 33.4364 79.6649 34.1016 79.5665 34.8474C79.9301 35.0141 80.292 35.4072 80.9491 35.502C80.682 36.3145 81.2425 37.2761 80.2218 38.0869C81.0563 38.0869 81.7045 38.301 82.0453 39.01C81.6114 39.5733 80.7751 39.3943 80.0654 40.0629C80.7945 40.1594 81.2952 40.2085 81.7836 40.291C82.9589 40.4893 83.3858 41.3668 82.662 42.3776C82.3967 42.7479 82.6286 43.3393 82.0506 43.5271C81.9153 43.5709 81.9434 43.7955 82.0084 43.9833C82.3598 45.0152 82.1841 45.3381 81.2144 45.5241C80.9813 45.5389 80.7494 45.5694 80.5204 45.6154C80.3922 45.6592 80.4167 45.8207 80.545 45.8856C80.8964 46.0611 79.8282 46.5876 80.7383 46.6437C81.0896 46.6648 81.441 46.756 81.5359 47.1913C81.3602 47.5966 80.9719 47.5317 80.6328 47.5633L79.5787 47.6511C79.7281 48.1775 80.1919 48.2179 80.5415 48.353C81.2864 48.6443 81.4674 49.0848 81.2337 49.8569C80.9913 50.6642 81.058 50.6852 81.6448 51.5908C80.9315 51.8838 80.2692 51.4557 79.6034 51.5083C79.2907 51.5329 78.9885 51.6662 78.9446 51.9681C78.9217 52.133 79.1448 52.3682 79.3047 52.5191C79.7509 52.942 80.4554 53.0684 80.7681 53.672C80.2867 54.1511 79.6684 53.6861 79.2239 54.1038C79.4945 54.2977 79.7505 54.5112 79.9899 54.7425C80.1989 54.9724 80.1655 55.3059 80.0865 55.5761C79.9741 55.9604 79.6402 55.8587 79.3627 55.7885C78.5211 55.5779 77.9572 55.7358 78.1206 56.7642C78.154 56.98 78.1048 57.1151 77.9449 57.138C76.3638 57.3433 76.7802 58.5946 76.7046 59.5475C76.0405 59.8651 75.6013 59.1192 74.9074 59.3053C74.816 60.1441 75.8578 60.4442 75.8754 61.1532C75.8877 61.5971 77.128 62.6308 75.329 62.4816C74.8529 62.4413 74.5947 63.324 74.3083 63.8048C74.0553 64.226 73.8972 64.0329 73.5634 64.0522C72.3213 64.1224 71.5905 63.1643 70.3836 62.4887C70.5821 63.5942 71.1056 64.2155 71.3709 64.9314C71.6924 65.8089 71.6151 65.8738 70.4521 65.7562C70.3888 65.5421 70.1886 65.2297 70.0849 65.2999C69.7951 65.5105 69.9268 65.7632 70.2237 65.9194C70.2079 66.2581 70.1921 66.5986 70.178 66.9057C70.1428 66.9326 70.1022 66.9517 70.059 66.9614C70.0157 66.9712 69.9708 66.9715 69.9274 66.9624C69.8841 66.9532 69.8432 66.9347 69.8076 66.9083C69.772 66.8819 69.7425 66.848 69.7213 66.8092C68.7339 65.6632 68.7339 65.658 68.1278 66.9847C68.0593 67.1321 68.0312 67.3865 67.8362 67.2935C66.4606 66.6389 67.1967 67.7375 67.1633 68.1218C67.1089 68.7466 67.4936 69.1958 67.8801 69.6451C69.8126 71.886 72.0965 73.7568 74.3294 75.6626C75.0585 76.2838 76.0862 76.5049 76.7521 77.2683C76.6853 77.5795 76.6232 77.8936 76.5658 78.2107ZM41.2362 52.6613L41.173 52.749H41.2872L41.2362 52.6613ZM69.4366 22.3017C69.4718 22.2648 69.5368 22.2262 69.5368 22.1876C69.5368 22.149 69.47 22.1122 69.4331 22.0753L69.3277 22.2508L69.4366 22.3017Z" fill="#F7E7D8"/>
<path d="M40.1712 83.0729C39.7654 82.9658 39.5405 82.6587 39.3438 82.3218C40.3469 81.6198 41.5222 81.2829 42.6237 80.7985C46.371 79.1454 49.9514 77.2291 53.133 74.6178C53.5775 74.2546 54.0869 73.9703 54.5666 73.6509L54.9179 74.0615C52.107 76.9097 48.8305 79.0945 45.2993 80.9302L40.1712 83.0729Z" fill="#C1B0BC"/>
<path d="M40.168 83.0744L45.2979 80.9316L45.9233 81.4932C44.3158 82.4514 42.4799 82.7725 40.7301 83.3358C40.6761 83.3557 40.6186 83.3647 40.561 83.3623C40.5034 83.3599 40.4469 83.3461 40.3946 83.3218C40.3424 83.2975 40.2955 83.2631 40.2566 83.2207C40.2177 83.1782 40.1876 83.1285 40.168 83.0744Z" fill="#352A26"/>
<path d="M78.4655 81.5309L77.8857 82.1136C76.3731 81.6169 75.0748 80.7237 73.7695 79.8568L73.838 79.3496C74.7727 79.9182 75.8197 80.2183 76.8246 80.6289C77.4026 80.8641 78.0667 80.9623 78.4655 81.5309Z" fill="#C1B0BC"/>
<path d="M73.8377 79.3504L73.7692 79.8576C72.4902 79.3311 71.422 78.4536 70.3398 77.5938C71.6048 77.9868 72.8152 78.4694 73.8377 79.3504Z" fill="#D3A7AC"/>
<path d="M79.9316 79.8603C79.123 79.7408 78.37 79.3785 77.7725 78.8214C77.581 78.6459 77.6126 78.4195 77.7567 78.2054C77.8048 78.1326 77.8795 78.0815 77.9649 78.0631C78.0503 78.0448 78.1396 78.0606 78.2134 78.1071C78.9162 78.488 79.712 78.7459 80.2619 79.383L79.9316 79.8603Z" fill="#C1B0BC"/>
<path d="M81.1361 79.8564C81.8205 80.0634 82.4381 80.4471 82.9263 80.969C82.1937 81.0831 81.6473 80.7093 81.0957 80.353C81.1098 80.1898 81.1221 80.0144 81.1361 79.8564Z" fill="#D3A7AC"/>
<path d="M38.5881 79.8394L38.6777 80.4623C38.198 80.8572 37.6341 81.0081 36.7539 81.2626C37.2792 80.2869 37.9855 80.1307 38.5881 79.8394Z" fill="#D3A7AC"/>
<path d="M68.7803 76.7544C67.9264 76.6597 67.5505 75.9472 67.0234 75.419C67.0671 75.3668 67.116 75.3192 67.1693 75.2768C67.9142 75.2417 68.3902 75.6892 68.833 76.1999L68.7803 76.7544Z" fill="#352A26"/>
<path d="M55.168 72.9416C55.5299 72.6713 55.7846 72.2396 56.4417 72.1782C56.3521 72.7696 56.1044 73.1258 55.5352 73.2522L55.168 72.9416Z" fill="#D3A7AC"/>
<path d="M68.7793 76.7537L68.832 76.1992C69.092 76.5607 69.6507 76.6046 69.8281 77.1785C69.2817 77.4961 69.0955 76.9327 68.7793 76.7537Z" fill="#D3A7AC"/>
<path d="M67.0203 75.4198C66.8061 75.3443 66.5991 75.2497 66.4019 75.1372C66.2104 75.0074 66.0505 74.7564 66.184 74.5599C66.4229 74.2264 66.7005 74.4511 66.8867 74.6652C67.0076 74.8564 67.1039 75.0622 67.1731 75.2776C67.1174 75.3196 67.0662 75.3673 67.0203 75.4198Z" fill="#352A26"/>
<path d="M76.5645 78.2088C76.6207 77.8859 76.6792 77.5642 76.7401 77.2437C76.9036 77.2848 77.0621 77.3436 77.2127 77.4191C77.5641 77.6525 77.8961 77.9702 77.5518 78.3808C77.2075 78.7915 76.8455 78.5353 76.5645 78.2088Z" fill="#C1B0BC"/>
<path d="M37.6219 82.8693C37.4761 83.3817 37.1423 83.4414 36.7031 83.2466C36.9491 82.9728 37.2337 82.7956 37.6219 82.8693Z" fill="#C1B0BC"/>
<path d="M55.1653 72.9427L55.5325 73.2533C55.5137 73.4316 55.4462 73.6014 55.3375 73.744C55.2287 73.8867 55.0829 73.9968 54.9158 74.0623L54.5645 73.6517C54.7858 73.434 54.6698 72.9286 55.1653 72.9427Z" fill="#C1B0BC"/>
<path d="M56.8465 71.4248H56.966C56.9473 71.5146 56.9178 71.6018 56.8781 71.6845C56.7956 71.8144 56.6831 71.8038 56.6691 71.6617C56.655 71.5915 56.7763 71.502 56.8465 71.4248Z" fill="#D3A7AC"/>
<path d="M77.0325 27.0165C76.7988 27.164 76.5634 27.3114 76.3298 27.4605C76.2864 27.3903 76.239 27.3219 76.1875 27.2552C76.3948 26.8393 76.697 26.8007 77.0659 27.0376L77.0325 27.0165Z" fill="#F7E7D8"/>
<path d="M52.7178 19.5319C52.4385 19.6179 52.449 19.4178 52.4473 19.2458C52.4473 19.1967 52.5 19.1458 52.5298 19.0967C52.5808 19.2529 52.6335 19.409 52.6845 19.5652L52.7178 19.5319Z" fill="#F7E7D8"/>
<path d="M77.072 27.0304L76.9297 26.7882C77.209 26.7496 76.9613 26.9444 77.0298 27.0058L77.072 27.0304Z" fill="#F7E7D8"/>
<path d="M42.9302 60.333H42.8301L42.9618 60.3486L42.9302 60.333Z" fill="#F7E7D8"/>
<path d="M81.1376 79.8561C81.1235 80.021 81.1112 80.186 81.0972 80.3527C80.8898 80.2912 80.6404 80.2439 80.7264 79.9456C80.7914 79.7209 80.9847 79.8192 81.1376 79.8561Z" fill="#C1B0BC"/>
<path d="M41.868 29.2559C41.868 29.4033 41.7889 29.4664 41.6607 29.4191C41.6238 29.405 41.6045 29.3401 41.5781 29.2997C41.6677 29.2997 41.7538 29.2997 41.8504 29.2997L41.868 29.2559Z" fill="#F7E7D8"/>
<path d="M80.2639 79.3833C80.4536 79.4939 80.668 79.6114 80.4976 79.8712C80.3272 80.1309 80.1216 79.9361 79.9336 79.8589L80.2639 79.3833Z" fill="#C1B0BC"/>
<path d="M59.8512 116.536C58.0944 116.597 56.8119 116.028 55.8878 114.751C54.9637 113.473 54.5561 112.05 54.4665 110.506C54.4367 109.997 54.5843 109.562 55.1306 109.425C55.5909 109.311 55.9335 109.59 56.1531 109.951C56.4145 110.407 56.652 110.875 56.8646 111.355C57.1194 111.882 57.3618 112.408 57.6183 112.922C58.4229 114.544 61.088 114.407 61.7591 112.794C62.1105 111.934 62.5251 111.094 62.9502 110.264C63.1891 109.795 63.5106 109.291 64.1413 109.449C64.83 109.625 64.9758 110.169 64.8757 110.825C64.6332 112.405 64.1097 113.875 63.096 115.133C62.2194 116.206 61.0037 116.541 59.8512 116.536Z" fill="#352A26"/>
<path d="M46.8826 100.822C45.2688 100.882 43.6728 100.469 42.292 99.6321C41.2291 98.988 40.6213 98.0386 40.3296 96.8523C40.2119 96.3715 40.1539 95.9029 40.5791 95.5677C41.0042 95.2325 41.4241 95.38 41.8739 95.6292C43.6641 96.6224 45.4859 97.5596 47.5871 97.6982C48.6412 97.7701 49.6864 97.8263 50.7353 97.8474C51.3642 97.8614 51.9475 97.9123 52.0634 98.6686C52.1794 99.425 51.5996 99.6742 51.0497 99.8971C49.6865 100.438 48.2968 100.878 46.8826 100.822Z" fill="#352A26"/>
<path d="M72.6565 100.826C71.0551 100.824 69.4736 100.472 68.0221 99.7962C67.495 99.5645 67.105 99.2363 67.2367 98.6028C67.3685 97.9693 67.8551 97.8552 68.4366 97.8517C69.4275 97.8517 70.4201 97.8096 71.4092 97.7482C73.4998 97.6166 75.3533 96.7725 77.1522 95.7827C77.6547 95.5072 78.1677 95.058 78.7334 95.6073C79.2288 96.0969 78.9934 96.6847 78.8265 97.2498C78.6907 97.7583 78.4544 98.2346 78.1316 98.6505C77.8088 99.0664 77.4059 99.4136 76.9467 99.6716C75.6487 100.44 74.1652 100.839 72.6565 100.826Z" fill="#352A26"/>
<path d="M81.3279 91.1224C81.3003 91.3269 81.2164 91.5198 81.0855 91.6794C80.9546 91.839 80.7818 91.959 80.5865 92.0262C79.9329 92.2736 79.2759 92.5175 78.6066 92.7281C75.251 93.7407 71.9306 94.8515 68.8035 96.4538C68.2228 96.7242 67.6189 96.9421 66.9993 97.1048C66.8571 97.1501 66.7042 97.149 66.5627 97.1017C66.4212 97.0544 66.2984 96.9633 66.2122 96.8416C66.1041 96.6985 66.0494 96.5223 66.0574 96.3432C66.0654 96.1642 66.1357 95.9935 66.2561 95.8606C66.6509 95.4324 67.0976 95.0551 67.586 94.7375C71.0996 92.5491 74.9963 91.3277 79.0053 90.4398C79.564 90.3152 80.1701 90.3731 80.7516 90.3994C81.1785 90.4099 81.3314 90.7188 81.3279 91.1224Z" fill="#352A26"/>
<path d="M39.1295 90.3569C40.1836 90.4306 41.3659 90.7974 42.5465 91.1273C45.4822 91.9486 48.3159 93.0261 50.9405 94.602C51.3429 94.8392 51.7254 95.1086 52.0842 95.4075C52.5024 95.7585 52.8362 96.2077 52.4795 96.7746C52.1668 97.2729 51.6644 97.1466 51.2164 97.0027C50.8276 96.8757 50.4503 96.716 50.0885 96.5254C46.7506 94.7845 43.1948 93.6456 39.6179 92.5505C39.0568 92.3898 38.5075 92.1911 37.9735 91.9556C37.6028 91.7802 37.2602 91.4923 37.3534 91.0045C37.4658 90.4166 37.9331 90.3464 38.4285 90.3552C38.6042 90.3674 38.7799 90.3569 39.1295 90.3569Z" fill="#352A26"/>
<path d="M59.6727 119.785C57.7877 119.882 56.0396 119.259 54.3337 118.472C54.067 118.355 53.8167 118.203 53.5889 118.021C53.1461 117.658 52.5787 117.288 52.9634 116.6C53.2867 116.023 53.8577 116.121 54.3584 116.333C57.872 117.819 61.3786 117.823 64.8782 116.346C65.0414 116.282 65.2111 116.235 65.3841 116.207C65.5566 116.173 65.7353 116.192 65.8965 116.262C66.0578 116.332 66.194 116.449 66.2871 116.598C66.5384 116.949 66.3574 117.256 66.1589 117.553C65.8804 117.931 65.5047 118.227 65.0714 118.409C63.3779 119.224 61.6333 119.85 59.6727 119.785Z" fill="#352A26"/>
<path d="M50.2507 64.4814C50.075 64.2585 50.2173 64.1093 50.3789 63.9707C50.4288 63.9873 50.4707 64.0216 50.4967 64.0672C50.5441 64.2901 50.5371 64.4866 50.2191 64.4568L50.2507 64.4814Z" fill="#271C19"/>
<path d="M70.209 65.9033C69.9121 65.7471 69.7803 65.4944 70.0702 65.2838C70.1738 65.2084 70.3741 65.526 70.4374 65.7401C70.3601 65.7909 70.2845 65.8454 70.209 65.9033Z" fill="#271C19"/>
<path d="M41.2351 52.6572L41.2861 52.7537L41.1719 52.745L41.2351 52.6572Z" fill="#271C19"/>
<path d="M70.9385 23.7576C70.9684 23.9033 70.9104 23.9805 70.7628 23.963C70.745 23.9435 70.7319 23.9203 70.7243 23.8951C70.7167 23.8699 70.7148 23.8433 70.7189 23.8173C70.7769 23.6664 70.8665 23.6628 70.9631 23.798L70.9385 23.7576Z" fill="#271C19"/>
<path d="M69.437 22.2919L69.3281 22.2375L69.4335 22.062C69.4704 22.0989 69.5354 22.1357 69.5372 22.1743C69.5389 22.2129 69.4722 22.2551 69.437 22.2919Z" fill="#271C19"/>
<path d="M41.1708 32.8389C41.2024 32.9319 41.2323 33.0249 41.2639 33.1197C41.2112 33.1039 41.1409 33.1039 41.1111 33.0688C41.0109 32.9495 41.0513 32.8617 41.213 32.8179L41.1708 32.8389Z" fill="#271C19"/>
</g>
<defs>
<clipPath id="clip0_2201_4363">
<rect width="93.1974" height="114.698" fill="white" transform="translate(13.0547 12.5977)"/>
</clipPath>
</defs>
</svg>
