<svg width="120" height="140" viewBox="0 0 120 140" fill="none" xmlns="http://www.w3.org/2000/svg">
<path d="M30.7852 93.6737L31.1882 93.0684C31.1882 93.0684 44.6671 93.0684 48.3431 93.0684C52.0192 93.0684 51.815 96.3372 51.4065 97.563C50.9981 98.7889 47.5773 102.466 45.8924 109.208C44.2076 115.951 45.6882 120.854 48.9558 124.736C51.4028 127.642 54.6742 129.387 58.9629 130.047C63.2516 130.707 68.3573 129.026 70.6038 127.187C72.8503 125.348 76.1179 120.445 76.7306 116.972C77.3432 113.499 77.7517 113.294 77.139 108.8C76.5263 104.305 70.808 98.5848 70.808 95.9287C70.808 93.2727 73.8714 93.0684 78.7728 93.0684C83.6742 93.0684 91.6391 93.0684 91.6391 93.0684L92.0421 93.6737" stroke="black" stroke-width="2.22582"/>
<g clip-path="url(#clip0_2201_4419)">
<path d="M59.9685 62.4793C59.2275 60.4815 58.4149 58.4704 57.531 56.4459C53.8848 45.931 51.839 33.0027 51.839 33.0027C51.4004 39.7065 53.349 48.0092 53.349 48.0092C50.9942 43.7593 48.326 39.6911 45.3668 35.8384C40.6793 29.1883 37.0297 9.98193 37.0297 9.98193C38.2016 20.6678 41.5498 31.1827 41.5498 31.1827C37.453 26.5091 32.9139 22.2435 27.9961 18.4455C27.9961 18.4455 54.2162 43.4003 55.9741 79.6879C55.9741 79.6879 56.6772 100.47 54.3903 117.916C54.3903 117.916 53.6872 123.376 60.3737 124.62C60.3737 124.62 66.5345 125.146 66.886 116.341C66.8894 116.341 70.3615 90.5614 59.9685 62.4793Z" fill="#251A17"/>
</g>
<defs>
<clipPath id="clip0_2201_4419">
<rect width="39.4457" height="114.625" fill="white" transform="translate(28 10)"/>
</clipPath>
</defs>
</svg>
