<svg width="120" height="140" viewBox="0 0 120 140" fill="none" xmlns="http://www.w3.org/2000/svg">
<path d="M33.1816 94.7532L33.5781 94.1577C33.5781 94.1577 46.8373 94.1577 50.4534 94.1577C54.0696 94.1577 53.8687 97.3732 53.4669 98.5791C53.0651 99.785 49.7001 103.403 48.0427 110.035C46.3852 116.667 47.8418 121.49 51.0561 125.309C53.4632 128.168 56.6812 129.885 60.9001 130.534C65.1189 131.183 70.1413 129.529 72.3512 127.72C74.5611 125.912 77.7754 121.088 78.3781 117.672C78.9808 114.255 79.3826 114.054 78.7799 109.633C78.1772 105.211 72.5521 99.5842 72.5521 96.9714C72.5521 94.3587 75.5655 94.1577 80.3871 94.1577C85.2086 94.1577 93.0436 94.1577 93.0436 94.1577L93.44 94.7532" stroke="black" stroke-width="2.22582"/>
<g clip-path="url(#clip0_2201_4472)">
<path d="M63.9111 63.8617L63.7602 64.8498C63.4618 63.6433 62.6818 64.0264 62.6818 64.0264C63.0413 64.592 63.0125 65.7448 63.0125 65.7448C62.8256 65.0288 61.9737 65.2508 61.9737 65.2508C62.5632 66.6828 62.1642 69.1316 62.1642 69.1316C62.3763 67.4132 60.6509 65.931 60.6509 65.931C61.1254 67.005 60.6509 67.295 60.6509 67.295C59.7056 65.7914 59.3749 66.4036 59.3749 66.4036C59.4521 67.2617 59.7451 68.0866 60.2268 68.8022C59.9135 68.7501 59.614 68.6358 59.346 68.466C59.078 68.2963 58.847 68.0746 58.6667 67.8141C59.0945 68.8882 58.7171 70.825 58.7171 70.825C58.4798 69.3643 57.7717 68.7557 57.7717 68.7557C58.3361 72.2356 57.0528 74.4159 57.0528 74.4159C55.1621 35.654 27.0137 9 27.0137 9C30.4397 11.6373 33.6978 14.4843 36.7691 17.5243L39.2457 20.0697C52.1571 33.7816 59.6445 49.3515 63.9255 63.7972" fill="#251A17"/>
<path d="M66.6756 76.8961C71.2011 98.903 68.8718 116.088 68.8718 116.088C68.5124 125.496 61.8806 124.934 61.8806 124.934C54.6916 123.617 55.4572 117.774 55.4572 117.774C57.9158 99.1572 57.1574 76.9605 57.1574 76.9605C57.2157 76.2042 57.2325 75.4453 57.2077 74.6871C57.8106 75.2212 58.1945 75.958 58.2861 76.7564C58.4549 76.633 58.5917 76.4711 58.6849 76.2842C58.778 76.0974 58.8249 75.891 58.8216 75.6824C58.8216 75.6824 59.483 76.4987 59.4507 77.1144C59.4507 77.1144 60.2091 75.7361 59.3572 73.4448C59.3572 73.4448 60.964 76.4557 60.8382 77.3364C60.8382 77.3364 60.9963 75.7039 61.4025 75.2492C61.4025 75.2492 61.3737 76.803 61.877 77.1467C61.877 77.1467 62.6318 75.2635 62.0962 74.1358C62.0962 74.1358 63.419 75.797 63.2285 77.1789C63.2285 77.1789 64.1127 75.2027 64.0157 74.2289C64.0157 74.2289 64.961 77.272 64.7741 77.8376C64.7741 77.8376 64.5225 74.6155 65.7482 73.8995C65.7482 73.8995 65.6548 75.4998 66.2515 76.2516L66.6756 76.8961Z" fill="#251A17"/>
<path d="M60.0625 66.4148C60.0625 66.4148 62.7224 73.4568 62.381 78.0036L64.2357 77.0513C64.2357 77.0513 62.0574 70.7001 61.1624 64.6963L60.0625 66.4148Z" fill="#251A17"/>
<path d="M58.786 77.8178C58.786 77.8178 58.2216 69.2864 65.3351 68.2231C65.3351 68.2231 58.786 73.2711 61.1188 78.004" fill="#251A17"/>
</g>
<defs>
<clipPath id="clip0_2201_4472">
<rect width="42.4725" height="115.938" fill="white" transform="translate(27 9)"/>
</clipPath>
</defs>
</svg>
