<svg width="120" height="140" viewBox="0 0 120 140" fill="none" xmlns="http://www.w3.org/2000/svg">
<g clip-path="url(#clip0_2201_4276)">
<path d="M79.9458 117.501C78.6996 118.538 77.5708 119.524 76.3929 120.449C72.4055 123.584 68.0446 126.007 63.0949 127.246C60.3593 127.931 57.4868 127.832 54.8044 126.962C50.1281 125.495 45.932 123.136 42.1303 120.054C41.452 119.505 40.7842 118.944 39.9394 118.245C39.7519 119.105 39.5889 119.9 38.6879 120.132C37.8414 120.349 37.2191 119.916 36.5847 119.498C31.2042 115.958 26.5847 111.377 22.9974 106.023C17.7234 98.1489 14.8857 89.3881 13.7937 80.0271C12.672 70.4063 12.6632 60.7856 14.2582 51.214C15.5377 43.5395 17.953 36.2652 22.4576 29.8034C27.6422 22.3676 34.6777 17.5642 43.3239 15.0476C50.3682 12.996 57.5685 12.7327 64.8319 13.1873C70.4687 13.5383 75.9022 14.7264 81.0885 17.0166C89.4456 20.7021 95.4961 26.7848 99.6115 34.8752C103.08 41.6898 104.752 49.0115 105.518 56.5561C106.381 65.0765 106.279 73.5969 105.001 82.0751C103.461 92.3136 99.8604 101.696 93.2491 109.784C90.3928 113.265 87.0629 116.328 83.3566 118.882C83.1224 119.055 82.8751 119.209 82.6169 119.344C81.4181 119.935 80.6889 119.623 80.2087 118.331C80.1315 118.126 80.0755 117.908 79.9458 117.501ZM59.4054 18.1697L59.3686 18.1995H59.4387C59.3861 18.8102 59.4667 19.3245 58.6394 19.7176C58.1136 19.9685 57.5685 20.8618 57.5177 21.6954C57.4738 22.3974 57.5177 23.0994 57.5177 23.8154C56.3959 24.0084 56.8744 25.2018 56.3346 25.8477C55.9332 26.3268 55.5458 27.4465 55.8228 28.273C56.303 29.7086 55.7141 30.8932 55.2444 32.1445C55.1322 32.4481 54.9148 32.7219 55.0253 33.1238C55.4687 34.7418 55.4319 35.0542 54.8745 36.6091C54.8344 36.7141 54.8289 36.829 54.8587 36.9373C55.2093 37.9412 55.1041 38.9275 54.7325 39.8944C54.6116 40.2121 54.6659 40.3999 54.9236 40.6368C55.9752 41.6055 55.9963 41.8653 55.0007 43.0674C54.8149 43.292 54.4539 43.5079 54.7413 43.7343C55.3513 44.2117 55.2777 44.6908 55.3215 45.4208C55.4161 46.9898 55.6317 46.974 55.2303 47.9778C55.1725 48.1252 55.1129 48.3832 55.1865 48.4604C55.8263 49.1203 55.4056 50.0592 55.7386 50.6998C56.1418 51.472 55.8648 52.081 55.8613 52.7864C55.8613 53.2778 56.0506 53.8394 56.0787 54.4151C56.1032 54.8924 56.7079 55.1714 56.1207 55.8822C55.6527 56.4491 56.9971 56.3245 57.1163 56.8983C57.1846 57.2248 57.3178 57.7267 57.1583 57.8811C56.594 58.4339 56.8954 58.9447 56.9515 59.5571C57.1023 61.2033 57.246 61.6631 58.4554 62.3773C58.5854 62.4352 58.6903 62.5379 58.7511 62.6668C58.8119 62.7956 58.8245 62.942 58.7866 63.0793C58.7183 63.4128 58.5167 63.7445 58.8708 64.1481C59.8102 63.5778 60.8426 63.6444 61.8119 64.0586C61.8923 63.9416 61.9372 63.8038 61.9412 63.6619C61.9453 63.5199 61.9083 63.3798 61.8347 63.2583C61.4648 62.5915 61.4841 62.1773 62.399 62.1106C63.0633 62.0632 63.0896 61.2612 62.988 61.0436C62.4884 59.9678 63.7802 59.6642 63.7855 59.0798C63.7855 58.3778 63.0844 57.6758 63.5979 56.8632C63.6277 56.8141 63.6347 56.7509 63.6628 56.7C63.9432 56.1735 63.7189 55.5224 64.3639 55.0188C64.9072 54.5888 63.8381 53.9026 64.1886 53.1743C64.5584 52.3968 64.0642 51.3877 64.6075 50.6682C64.9686 50.1926 64.9283 49.7907 64.958 49.2642C65.0019 48.2112 64.7477 47.053 65.6591 46.1702C65.8625 45.9719 66.0921 45.6034 65.9098 45.3875C65.0948 44.4205 65.4926 43.192 65.2087 42.1092C64.8319 40.6719 64.5426 39.0468 65.2525 37.534C65.3952 37.2193 65.4583 36.8742 65.4363 36.5293C65.4143 36.1844 65.3078 35.8502 65.1263 35.5562C64.7249 34.891 64.6408 34.4926 65.3682 34.0943C65.4979 34.0241 65.5627 33.8363 65.6276 33.7433C65.5487 32.9992 63.7714 32.6903 65.1789 31.6689C65.195 31.5903 65.1936 31.5092 65.1748 31.4313C65.156 31.3533 65.1203 31.2804 65.0702 31.2178C63.7206 30.6299 64.4059 30.107 65.0702 29.5015C65.4681 29.14 65.3577 28.7872 64.8231 28.5924C64.5917 28.5082 64.2272 28.5749 64.2079 28.2204C64.306 27.8273 65.2297 27.6237 64.639 27.2973C63.3455 26.5812 63.9853 25.3422 63.7241 24.391C63.6067 23.9663 64.2499 23.3679 63.2281 23.3012C63.1696 23.2959 63.1136 23.2752 63.0656 23.2414C63.0176 23.2075 62.9793 23.1616 62.9547 23.1083C62.93 23.055 62.9197 22.9961 62.925 22.9375C62.9302 22.879 62.9507 22.8228 62.9845 22.7747C63.8258 21.9639 62.9108 21.7217 62.5515 21.3005C62.3763 21.09 62.1098 20.8829 62.2904 20.5459C62.4709 20.209 63.0966 19.9018 62.4551 19.4104C62.0695 19.1174 61.7067 18.8558 61.2019 19.1665C61.1635 19.1877 61.1207 19.1997 61.0769 19.2015C61.0331 19.2033 60.9894 19.1948 60.9495 19.1767C60.9095 19.1587 60.8743 19.1315 60.8466 19.0975C60.8189 19.0634 60.7995 19.0233 60.79 18.9804C60.6253 18.1714 59.8611 18.4276 59.4089 18.1626L59.4054 18.1697ZM59.7559 70.3975C56.6974 74.5621 52.8799 77.4841 48.6383 79.9078C44.8278 82.0874 40.7912 83.7511 36.6513 85.1727C34.6233 85.8659 33.321 87.1611 32.62 89.2091C32.0223 90.9641 31.9189 92.7542 32.0661 94.567C32.3746 98.2525 33.293 101.808 34.4673 105.302C34.8179 106.355 35.186 107.392 35.8134 108.331C40.304 115.06 46.1406 120.151 53.6686 123.248C57.6631 124.893 61.556 124.828 65.5435 123.159C71.1256 120.866 76.0719 117.256 79.9615 112.638C82.8273 109.246 85.395 105.65 86.4379 101.167C87.2074 97.847 87.8156 94.5319 87.451 91.1167C87.1338 88.1333 85.7228 86.0273 82.7046 85.0709C80.2092 84.2691 77.7688 83.3047 75.3991 82.184C70.4021 79.8341 65.7222 77.0296 61.9381 72.9195C61.2475 72.1297 60.585 71.3312 59.7682 70.3906L59.7559 70.3975Z" fill="#251A17"/>
<path d="M59.7686 70.3882C60.5854 71.3288 61.2479 72.1326 61.9508 72.8978C65.735 77.0079 70.4148 79.8123 75.4119 82.1622C77.7815 83.283 80.2219 84.2474 82.7173 85.0492C85.7355 86.0109 87.1465 88.1134 87.4637 91.0951C87.8283 94.5102 87.2201 97.8254 86.4506 101.146C85.4112 105.628 82.84 109.219 79.9742 112.616C76.0847 117.235 71.1383 120.844 65.5562 123.137C61.5669 124.799 57.6688 124.871 53.6814 123.227C46.1533 120.131 40.3167 115.04 35.8262 108.31C35.1987 107.371 34.8306 106.33 34.4801 105.28C33.3127 101.786 32.3873 98.2325 32.0788 94.5453C31.9281 92.7324 32.035 90.9494 32.6327 89.1874C33.3338 87.1464 34.6361 85.853 36.664 85.151C40.804 83.733 44.8405 82.0692 48.651 79.8861C52.8926 77.4747 56.7101 74.5527 59.7686 70.3882ZM59.4601 116.928C62.4941 116.897 65.1811 113.636 64.7324 110.735C64.6658 110.303 64.494 109.936 64.0558 109.798C63.5861 109.649 63.2408 109.914 63.0428 110.291C62.6081 111.116 62.2242 111.967 61.8246 112.809C61.3636 113.78 60.666 114.424 59.5338 114.413C58.4015 114.403 57.6829 113.803 57.2447 112.808C57.0326 112.327 56.8486 111.834 56.619 111.363C56.4241 110.941 56.1924 110.537 55.9266 110.156C55.8315 110.006 55.6921 109.89 55.5277 109.823C55.3634 109.756 55.1824 109.743 55.0099 109.784C54.5244 109.905 54.3895 110.301 54.3842 110.726C54.3851 111.959 54.6891 113.173 55.2693 114.261C56.1738 116.023 57.5952 116.988 59.4601 116.928ZM79.8253 90.6528C79.6092 90.6554 79.3937 90.6736 79.1802 90.7072C75.1787 91.5707 71.3227 92.85 67.7366 94.8577C67.2419 95.1671 66.7798 95.5258 66.3572 95.9283C66.0277 96.2143 65.8804 96.6004 66.0732 97.0286C66.2871 97.5007 66.727 97.5112 67.1249 97.3936C67.6805 97.2235 68.2216 97.0087 68.7427 96.7513C71.0933 95.5955 73.5306 94.6255 76.0323 93.8504C77.4223 93.4239 78.7999 92.9536 80.1705 92.4692C80.7121 92.2779 81.3396 92.0691 81.1573 91.2741C80.9978 90.5721 80.3861 90.6967 79.8253 90.6528ZM39.06 90.6616C38.6674 90.6616 38.5517 90.6616 38.436 90.6616C37.9522 90.6756 37.4737 90.7265 37.3458 91.3074C37.2178 91.8883 37.5649 92.1621 38.0469 92.3376C38.3729 92.4569 38.6937 92.5938 39.0197 92.7149C41.6891 93.7047 44.4795 94.3435 47.0823 95.5421C48.4015 96.1494 49.7301 96.7343 51.068 97.2971C51.4992 97.4814 52.018 97.6025 52.3458 97.1427C52.7261 96.6057 52.4159 96.1441 51.9952 95.7721C51.6934 95.4981 51.3699 95.2493 51.0277 95.0279C49.6465 94.1505 48.1515 93.4941 46.6458 92.8799C44.193 91.9017 41.653 91.159 39.06 90.6616ZM46.772 101.07C46.9736 101.07 47.3838 101.097 47.7869 101.07C49.0036 100.959 50.1907 100.631 51.2924 100.102C51.7533 99.8874 52.0758 99.5751 51.9935 99.024C51.9111 98.473 51.4676 98.2729 50.9891 98.2185C50.5263 98.1798 50.0618 98.1658 49.5975 98.1763C48.6107 98.1798 47.6251 98.1076 46.6494 97.9605C44.8843 97.6762 43.3822 96.7847 41.8241 96.03C41.3771 95.8124 40.9792 95.6316 40.5375 95.9739C40.0958 96.3161 40.1642 96.7917 40.2746 97.2515C40.422 97.9383 40.7331 98.5792 41.1815 99.1195C41.6298 99.6598 42.2021 100.083 42.8494 100.354C44.0735 100.929 45.4258 101.176 46.7738 101.07H46.772ZM72.2657 101.088C73.7857 101.199 75.305 100.864 76.6388 100.126C77.9358 99.3908 78.714 98.2764 78.8385 96.7759C78.9051 95.9651 78.374 95.5755 77.6273 95.8247C77.4157 95.9191 77.2128 96.0318 77.0209 96.1616C74.539 97.5393 71.9292 98.4027 69.0424 98.1728C68.8086 98.1633 68.5745 98.168 68.3413 98.1869C67.7909 98.2115 67.2651 98.336 67.1337 98.9573C66.9812 99.6751 67.4719 100.01 68.0468 100.24C69.4122 100.768 70.8004 101.174 72.2674 101.084L72.2657 101.088ZM59.6635 120.098C61.2006 120.135 62.7746 119.768 64.2942 119.141C64.8902 118.903 65.4339 118.55 65.8945 118.102C66.1907 117.809 66.3817 117.449 66.1819 117.004C65.9681 116.523 65.5544 116.509 65.1495 116.607C64.5879 116.749 64.0354 116.925 63.495 117.134C60.822 118.139 58.1596 118.153 55.4954 117.111C55.12 116.955 54.7354 116.822 54.3439 116.712C53.7848 116.568 53.117 116.346 52.8225 117.063C52.5438 117.737 53.1082 118.143 53.592 118.467C54.076 118.787 54.5895 119.059 55.1256 119.28C56.5667 119.862 58.112 120.14 59.6652 120.098H59.6635Z" fill="#FDF1E6"/>
<path d="M59.4054 18.1582C59.8629 18.4302 60.6324 18.1705 60.7849 18.9795C60.7944 19.0224 60.8137 19.0625 60.8414 19.0965C60.8691 19.1306 60.9043 19.1577 60.9443 19.1758C60.9843 19.1939 61.0279 19.2023 61.0717 19.2006C61.1155 19.1988 61.1584 19.1868 61.1967 19.1656C61.7015 18.8549 62.0644 19.1164 62.45 19.4095C63.0915 19.9009 62.4762 20.1852 62.2852 20.545C62.0941 20.9047 62.3693 21.089 62.5464 21.2996C62.9057 21.7278 63.8206 21.963 62.9793 22.7738C62.9455 22.8219 62.925 22.878 62.9198 22.9366C62.9146 22.9951 62.9248 23.054 62.9495 23.1074C62.9742 23.1607 63.0124 23.2066 63.0604 23.2405C63.1084 23.2743 63.1644 23.295 63.2229 23.3003C64.236 23.367 63.6015 23.9654 63.7189 24.3901C63.9801 25.3413 63.3404 26.5803 64.6339 27.2963C65.2245 27.6228 64.3009 27.8228 64.2027 28.2195C64.222 28.5705 64.5865 28.5073 64.8179 28.5915C65.3437 28.7863 65.4629 29.1391 65.065 29.5006C64.4008 30.1061 63.7154 30.629 65.065 31.2169C65.1151 31.2795 65.1508 31.3524 65.1696 31.4303C65.1884 31.5083 65.1898 31.5894 65.1737 31.668C63.7715 32.6911 65.5435 32.9982 65.6224 33.7423C65.5576 33.8354 65.4927 34.0231 65.363 34.0933C64.6356 34.4917 64.7198 34.8901 65.1211 35.5552C65.3027 35.8492 65.4091 36.1834 65.4311 36.5284C65.4531 36.8733 65.39 37.2184 65.2473 37.5331C64.5462 39.0459 64.8267 40.671 65.2035 42.1083C65.4857 43.1911 65.0878 44.4196 65.9046 45.3866C66.0799 45.6025 65.8573 45.971 65.654 46.1693C64.746 47.0468 65.0002 48.2068 64.9529 49.2633C64.9301 49.7898 64.9704 50.1917 64.6023 50.6673C64.059 51.3868 64.5532 52.3959 64.1834 53.1734C63.8329 53.9017 64.9038 54.5879 64.3587 55.0178C63.7207 55.5215 63.945 56.1709 63.6576 56.6991C63.6296 56.75 63.6225 56.8132 63.5927 56.8623C63.088 57.6766 63.7855 58.3768 63.7803 59.0788C63.7803 59.6632 62.4833 59.9669 62.9828 61.0427C63.0845 61.2603 63.0582 62.0623 62.3939 62.1097C61.4859 62.1764 61.4597 62.5905 61.8295 63.2574C61.9031 63.3788 61.9401 63.519 61.9361 63.6609C61.932 63.8029 61.8871 63.9407 61.8067 64.0577C60.8374 63.6435 59.8051 63.5768 58.8656 64.1472C58.515 63.7436 58.7131 63.4119 58.7815 63.0784C58.8194 62.9411 58.8068 62.7947 58.746 62.6658C58.6852 62.537 58.5802 62.4343 58.4502 62.3764C57.2408 61.6622 57.0971 61.2024 56.9463 59.5562C56.8903 58.9437 56.5958 58.433 57.1532 57.8802C57.3127 57.7258 57.1795 57.2238 57.1111 56.8974C56.9919 56.3235 55.6476 56.4481 56.1155 55.8813C56.7027 55.1793 56.098 54.8915 56.0735 54.4141C56.0454 53.8438 55.8526 53.2769 55.8561 52.7855C55.8561 52.0835 56.1366 51.471 55.7334 50.6988C55.4004 50.0583 55.8211 49.1194 55.1813 48.4595C55.1077 48.3823 55.1673 48.1243 55.2252 47.9769C55.6265 46.973 55.4109 46.9889 55.3163 45.4199C55.2725 44.6899 55.3461 44.2107 54.7361 43.7334C54.4487 43.507 54.8098 43.2911 54.9955 43.0665C55.9911 41.8626 55.9788 41.6046 54.9184 40.6359C54.6608 40.399 54.6064 40.2112 54.7274 39.8935C55.099 38.9265 55.2094 37.9402 54.8536 36.9364C54.8237 36.8281 54.8293 36.7131 54.8693 36.6082C55.4267 35.0551 55.4635 34.7409 55.0201 33.1228C54.9097 32.7209 55.127 32.4472 55.2392 32.1435C55.7089 30.8923 56.2908 29.7077 55.8176 28.2721C55.5406 27.4455 55.928 26.3258 56.3294 25.8467C56.8692 25.2009 56.3907 24.0075 57.5125 23.8145C57.5125 23.1125 57.4599 22.3982 57.5125 21.6945C57.5633 20.8609 58.1067 19.9676 58.6342 19.7166C59.4615 19.3235 59.3809 18.8093 59.4335 18.1986L59.4054 18.1582Z" fill="#F5E5D6"/>
<path d="M59.4375 18.1898H59.3691C59.3816 18.1802 59.3934 18.1696 59.4042 18.1582L59.4375 18.1898Z" fill="#F5E5D6"/>
<path d="M59.4607 116.93C57.5958 116.989 56.1743 116.024 55.2699 114.262C54.6897 113.174 54.3857 111.961 54.3848 110.727C54.3848 110.303 54.525 109.906 55.0105 109.785C55.183 109.744 55.364 109.758 55.5283 109.824C55.6926 109.891 55.8321 110.007 55.9272 110.157C56.193 110.538 56.4247 110.942 56.6195 111.365C56.8491 111.835 57.0332 112.328 57.2452 112.809C57.6834 113.804 58.4143 114.402 59.5343 114.415C60.6543 114.427 61.3642 113.781 61.8252 112.811C62.2248 111.968 62.6086 111.117 63.0433 110.292C63.2414 109.915 63.5867 109.65 64.0564 109.799C64.4946 109.938 64.6664 110.305 64.733 110.736C65.1817 113.637 62.4947 116.898 59.4607 116.93Z" fill="#352A26"/>
<path d="M79.8259 90.6533C80.3868 90.6972 80.9932 90.5726 81.1545 91.2746C81.3297 92.0696 80.7093 92.2784 80.1677 92.4697C78.797 92.9541 77.4194 93.4244 76.0295 93.8509C73.5277 94.626 71.0904 95.596 68.7398 96.7518C68.2187 97.0092 67.6777 97.224 67.122 97.3941C66.7276 97.5117 66.2877 97.5012 66.0704 97.0291C65.8776 96.6009 66.0248 96.2148 66.3543 95.9288C66.7769 95.5263 67.2391 95.1676 67.7337 94.8582C71.3198 92.8505 75.1759 91.5712 79.1774 90.7077C79.3919 90.6739 79.6087 90.6557 79.8259 90.6533Z" fill="#352A26"/>
<path d="M39.0604 90.6618C41.6549 91.1612 44.1961 91.9063 46.6498 92.8871C48.1537 93.5013 49.6487 94.1594 51.0317 95.0351C51.3738 95.2565 51.6974 95.5053 51.9992 95.7792C52.4146 96.1513 52.7248 96.6129 52.3497 97.1499C52.022 97.6097 51.5031 97.4886 51.072 97.3043C49.7352 96.7369 48.4066 96.1519 47.0862 95.5493C44.4904 94.3507 41.7001 93.7119 39.0236 92.7221C38.6976 92.601 38.3769 92.4641 38.0508 92.3448C37.5653 92.1693 37.22 91.8885 37.3497 91.3146C37.4795 90.7407 37.9562 90.6828 38.44 90.6688C38.5521 90.66 38.6678 90.6618 39.0604 90.6618Z" fill="#352A26"/>
<path d="M46.7734 101.071C45.4237 101.173 44.0707 100.922 42.8472 100.343C42.1999 100.072 41.6277 99.6484 41.1793 99.1081C40.731 98.5678 40.4198 97.927 40.2725 97.2402C40.162 96.7804 40.0849 96.31 40.5354 95.9626C40.9858 95.6151 41.3749 95.8011 41.8219 96.0187C43.3801 96.7803 44.8822 97.6719 46.6472 97.9492C47.623 98.0963 48.6085 98.1685 49.5953 98.1651C50.0596 98.1545 50.5241 98.1685 50.987 98.2072C51.4725 98.2616 51.9054 98.4634 51.9913 99.0127C52.0772 99.562 51.7547 99.8761 51.2902 100.09C50.1885 100.619 49.0014 100.947 47.7847 101.059C47.3851 101.098 46.9749 101.071 46.7734 101.071Z" fill="#352A26"/>
<path d="M72.269 101.085C70.8019 101.171 69.4138 100.765 68.0624 100.237C67.4875 100.016 66.9967 99.6721 67.1492 98.9543C67.2807 98.3331 67.8065 98.2084 68.3569 98.1839C68.5901 98.165 68.8242 98.1603 69.058 98.1698C71.9447 98.3997 74.5546 97.5363 77.0364 96.1586C77.2284 96.0288 77.4313 95.9161 77.6429 95.8217C78.3896 95.5725 78.9206 95.9621 78.854 96.7729C78.7296 98.2734 77.9514 99.3878 76.6543 100.123C75.317 100.864 73.7931 101.198 72.269 101.085Z" fill="#352A26"/>
<path d="M59.6642 120.099C58.1101 120.134 56.5654 119.849 55.1264 119.26C54.5903 119.039 54.0767 118.767 53.5928 118.447C53.109 118.128 52.5411 117.723 52.8233 117.043C53.1178 116.333 53.7856 116.556 54.3447 116.692C54.7362 116.802 55.1208 116.935 55.4962 117.091C58.1604 118.133 60.8228 118.119 63.4957 117.114C64.0362 116.905 64.5887 116.729 65.1503 116.587C65.5552 116.489 65.9689 116.503 66.1827 116.984C66.3825 117.43 66.1915 117.789 65.8952 118.082C65.4346 118.53 64.891 118.883 64.295 119.121C62.7684 119.769 61.2014 120.136 59.6642 120.099Z" fill="#352A26"/>
</g>
<defs>
<clipPath id="clip0_2201_4276">
<rect width="93.0794" height="114.698" fill="white" transform="translate(13 13)"/>
</clipPath>
</defs>
</svg>
