<svg width="215" height="105" viewBox="0 0 215 105" fill="none" xmlns="http://www.w3.org/2000/svg">
<g clip-path="url(#clip0_49_423)">
<path d="M214.13 102.454C214.269 102.472 214.225 102.316 214.252 102.289C214.014 102.313 214.134 102.494 214.13 102.454Z" fill="#27AAE1"/>
<path d="M211.822 102.714L211.866 102.652L211.522 102.794L211.822 102.714Z" fill="#27AAE1"/>
<path d="M209.678 102.625C209.87 102.897 210.456 102.613 210.835 102.722L210.895 102.785L211.077 102.579C210.611 102.594 210.002 102.711 209.678 102.625Z" fill="#27AAE1"/>
<path d="M208.556 102.007C208.622 102.113 208.305 102.086 208.822 102.05C208.806 102.042 208.79 102.032 208.775 102.022C208.728 102.022 208.664 102.018 208.556 102.007Z" fill="#27AAE1"/>
<path d="M208.774 102.021C208.63 101.93 209 102.021 208.774 102.021V102.021Z" fill="#27AAE1"/>
<path d="M207.729 102.039L208.03 101.959C207.971 101.895 207.705 101.871 207.806 101.836C207.499 101.869 207.56 101.938 207.729 102.039Z" fill="#27AAE1"/>
<path d="M207.439 102.219L207.589 102.184C207.569 102.161 207.528 102.151 207.439 102.219Z" fill="#27AAE1"/>
<path d="M207.924 102.119L207.59 102.184C207.631 102.228 207.632 102.313 207.741 102.161C207.712 102.241 207.783 102.168 207.924 102.119Z" fill="#27AAE1"/>
<path d="M208.108 102.166C208.273 102.231 208.487 102.275 208.185 102.355C208.756 102.342 208.684 102.152 208.108 102.166Z" fill="#27AAE1"/>
<path d="M209.558 102.893L209.778 102.98L209.974 102.9C209.875 102.939 209.547 102.81 209.558 102.893Z" fill="#27AAE1"/>
<path d="M205.88 101.827C205.859 101.883 205.975 101.981 205.994 102.054L206.216 101.998C206.105 101.955 205.887 101.911 205.88 101.827Z" fill="#27AAE1"/>
<path d="M205.994 102.054L205.661 102.137C205.954 102.161 206.009 102.116 205.994 102.054Z" fill="#27AAE1"/>
<path d="M207.375 102.512L207.922 102.331L207.27 102.51L207.375 102.512Z" fill="#27AAE1"/>
<path d="M204.625 101.769L204.816 101.647L204.477 101.83L204.625 101.769Z" fill="#27AAE1"/>
<path d="M203.791 101.758C203.933 101.656 203.608 101.569 203.757 101.512C203.548 101.531 203.344 101.589 203.156 101.683C203.37 101.643 203.591 101.669 203.791 101.758Z" fill="#27AAE1"/>
<path d="M202.859 101.789C202.961 101.76 203.06 101.724 203.156 101.679C203.052 101.7 202.952 101.737 202.859 101.789Z" fill="#27AAE1"/>
<path d="M205.102 102.087C205.075 102.041 205.038 102.002 204.995 101.973C204.951 101.943 204.902 101.924 204.85 101.916L204.972 102.08L205.102 102.087Z" fill="#27AAE1"/>
<path d="M205.137 102.089H205.102C205.115 102.104 205.122 102.109 205.137 102.089Z" fill="#27AAE1"/>
<path d="M206.519 102.333C206.321 102.414 205.91 102.493 206.3 102.643C206.442 102.541 206.222 102.455 206.519 102.333Z" fill="#27AAE1"/>
<path d="M205.288 102.293L205.636 102.343C205.636 102.301 205.57 102.237 205.667 102.198L205.288 102.293Z" fill="#27AAE1"/>
<path d="M205.115 102.336L205.287 102.292L205.159 102.274L205.115 102.336Z" fill="#27AAE1"/>
<path d="M203.455 101.961C203.292 102.014 203.12 102.036 202.949 102.027C203.147 102.066 203.348 102.09 203.55 102.098C203.577 102.05 203.665 101.964 203.455 101.961Z" fill="#27AAE1"/>
<path d="M204.193 102.035L204.158 102.043C204.186 102.062 204.196 102.062 204.193 102.035Z" fill="#27AAE1"/>
<path d="M201.11 101.951L201.137 101.981C201.137 101.971 201.137 101.964 201.145 101.955L201.11 101.951Z" fill="#27AAE1"/>
<path d="M203.577 102.13C203.631 102.145 203.688 102.149 203.745 102.141C203.801 102.134 203.855 102.115 203.904 102.086C203.783 102.098 203.661 102.102 203.539 102.098C203.533 102.12 203.53 102.135 203.577 102.13Z" fill="#27AAE1"/>
<path d="M202.343 101.842C202.427 101.88 202.513 101.913 202.601 101.94C202.526 101.886 202.373 101.802 202.343 101.842Z" fill="#27AAE1"/>
<path d="M204.109 101.995L204.13 101.99C204.084 101.956 204.09 101.971 204.109 101.995Z" fill="#27AAE1"/>
<path d="M204.109 101.997C204.038 102.019 203.97 102.048 203.906 102.086C203.991 102.079 204.075 102.064 204.158 102.043C204.14 102.03 204.123 102.014 204.109 101.997Z" fill="#27AAE1"/>
<path d="M200.514 102.946C200.547 102.801 200.947 102.68 201.282 102.851C201.621 102.754 201.42 102.263 201.138 101.982C201.126 102.045 201.124 102.105 200.773 102.178C200.895 102.263 201.532 102.396 201.235 102.517C200.776 102.574 200.863 102.45 200.644 102.364C200.826 102.554 200.052 102.61 200.141 102.88L200.546 102.801C200.553 102.843 200.405 102.904 200.514 102.946Z" fill="#27AAE1"/>
<path d="M201.796 102.023L201.938 102.011C201.764 101.968 201.6 101.894 201.452 101.791C201.209 101.854 201.163 101.907 201.144 101.955L201.842 102.003L201.796 102.023Z" fill="#27AAE1"/>
<path d="M202.576 102.035C202.454 102.192 202.115 102.246 202.318 102.425C202.735 102.425 202.615 102.302 202.866 102.246C202.193 102.258 203.063 102.164 202.581 102.054C202.701 102.036 202.823 102.027 202.945 102.027C202.824 102.002 202.71 101.974 202.601 101.94L202.616 101.95C202.644 101.971 202.654 101.983 202.616 101.97C202.616 101.97 202.605 101.97 202.601 101.97C202.595 101.992 202.584 102.012 202.568 102.029C202.375 101.988 202.54 101.986 202.601 101.97C202.605 101.962 202.609 101.955 202.611 101.947L201.934 102.007C202.146 102.038 202.361 102.048 202.576 102.035Z" fill="#27AAE1"/>
<path d="M205.928 102.973C205.921 102.969 205.916 102.963 205.912 102.956C205.908 102.949 205.907 102.942 205.908 102.934C205.862 102.953 205.844 102.965 205.928 102.973Z" fill="#27AAE1"/>
<path d="M205.653 102.865C205.688 102.838 205.729 102.819 205.772 102.808C205.816 102.798 205.861 102.797 205.904 102.805C206.041 102.859 205.904 102.882 205.904 102.934C206.002 102.896 206.245 102.833 205.947 102.743L205.898 102.764C205.628 102.698 205.29 102.485 205.336 102.465C205.409 102.622 205.518 102.759 205.653 102.865Z" fill="#27AAE1"/>
<path d="M204.094 102.491L203.529 102.546L203.81 102.695L203.799 102.613C204.117 102.657 204.052 102.554 204.094 102.491Z" fill="#27AAE1"/>
<path d="M201.049 101.87L201.13 101.704L200.796 101.929L201.049 101.87Z" fill="#27AAE1"/>
<path d="M200.318 101.862L200.351 101.716L200.156 101.798L200.318 101.862Z" fill="#27AAE1"/>
<path d="M159.11 102.291L158.944 102.329C159 102.323 159.056 102.31 159.11 102.291Z" fill="#27AAE1"/>
<path d="M160.302 102.328L160.334 102.256C160.281 102.294 160.253 102.323 160.302 102.328Z" fill="#27AAE1"/>
<path d="M182.406 101.199C182.171 101.053 181.91 100.83 181.933 100.997L182.001 101.16C182.137 101.139 182.276 101.152 182.406 101.199Z" fill="#27AAE1"/>
<path d="M170.105 101.734L170.174 101.784L170.341 101.635L170.105 101.734Z" fill="#27AAE1"/>
<path d="M169.916 102.393L169.602 102.281C169.702 102.331 169.807 102.368 169.916 102.393Z" fill="#27AAE1"/>
<path d="M152.595 102.363L152.402 102.524C152.701 102.526 152.57 102.443 152.595 102.363Z" fill="#27AAE1"/>
<path d="M192.848 101.629C192.682 101.567 192.51 101.525 192.334 101.506C192.58 101.614 192.777 101.759 192.848 101.629Z" fill="#27AAE1"/>
<path d="M159.613 100.595C159.511 100.621 159.468 100.653 159.47 100.688C159.574 100.664 159.634 100.635 159.613 100.595Z" fill="#27AAE1"/>
<path d="M191.736 101.488C191.771 101.506 191.807 101.516 191.843 101.53C192.004 101.505 192.167 101.499 192.33 101.512C192.238 101.464 192.138 101.438 192.035 101.434C191.933 101.43 191.831 101.448 191.736 101.488Z" fill="#27AAE1"/>
<path d="M129.176 103.478C129.157 103.478 129.136 103.478 129.12 103.468C129.118 103.491 129.148 103.488 129.176 103.478Z" fill="#27AAE1"/>
<path d="M122.121 103.614C122.183 103.583 122.289 103.546 122.387 103.51C122.293 103.53 122.203 103.565 122.121 103.614Z" fill="#27AAE1"/>
<path d="M197.388 101.677C197.414 101.659 197.546 101.677 197.388 101.677V101.677Z" fill="#27AAE1"/>
<path d="M198.116 102.342C198.099 102.348 198.085 102.358 198.073 102.372C198.062 102.386 198.054 102.402 198.05 102.42C198.061 102.386 198.085 102.358 198.116 102.342Z" fill="#27AAE1"/>
<path d="M190.158 102.43H190.144C190.192 102.463 190.183 102.456 190.158 102.43Z" fill="#27AAE1"/>
<path d="M197.617 101.759C197.553 101.735 197.488 101.716 197.422 101.704C197.485 101.727 197.55 101.745 197.617 101.759Z" fill="#27AAE1"/>
<path d="M197.589 101.682L197.723 101.702C197.738 101.677 197.726 101.66 197.589 101.682Z" fill="#27AAE1"/>
<path d="M197.171 101.677C197.255 101.679 197.339 101.688 197.422 101.704C197.391 101.692 197.379 101.682 197.388 101.677H197.171Z" fill="#27AAE1"/>
<path d="M141.636 101.884C141.625 101.88 141.614 101.875 141.603 101.87C141.451 101.937 141.518 101.927 141.636 101.884Z" fill="#27AAE1"/>
<path d="M178.323 102.717C178.329 102.715 178.334 102.713 178.34 102.71H178.318L178.323 102.717Z" fill="#27AAE1"/>
<path d="M177.764 102.818C177.835 102.747 177.926 102.698 178.024 102.678C178.123 102.657 178.225 102.666 178.318 102.704L178.15 102.235L177.764 102.818Z" fill="#27AAE1"/>
<path d="M156.252 102.278L156.64 102.43C156.166 102.657 155.827 102.572 156.189 102.78C156.252 102.278 157.704 102.76 157.77 102.258L158.025 102.37C157.951 102.37 157.939 102.392 157.866 102.386C158.362 102.632 158.244 102.03 158.888 102.115C159.111 102.158 159.266 102.238 159.113 102.291L159.615 102.178C159.76 102.19 159.723 102.277 159.578 102.264L160.341 102.241V102.256C160.496 102.16 160.659 102.078 160.827 102.009C161.021 102.086 160.73 102.061 160.778 102.125L161.203 102.012C161.372 102.146 161.02 102.265 160.728 102.241C161.111 102.751 161.082 102.118 161.926 102.433L161.525 102.488C161.776 102.779 162.09 102.682 162.536 102.87C162.432 102.774 161.645 102.402 162.106 102.286C162.286 102.342 162.481 102.33 162.653 102.252C162.653 102.432 162.896 102.391 163.196 102.39L163.17 102.626C163.498 102.568 163.475 102.446 163.67 102.345C164.034 102.379 164.104 102.565 164.186 102.722C164.768 102.776 163.791 102.416 164.482 102.391C164.968 102.496 165.308 102.408 165.891 102.283C166.23 102.375 165.828 102.427 165.949 102.498L166.255 102.317C166.328 102.317 166.303 102.381 166.29 102.411C166.546 102.344 166.317 102.174 166.717 102.121C166.839 101.863 167.526 102.526 168.027 102.244C168.149 102.316 167.964 102.389 167.999 102.481C168.681 102.306 168.583 102.358 169.147 102.112L169.615 102.281C169.274 102.093 169.724 101.896 170.119 101.734C170.025 101.66 169.926 101.591 169.825 101.528L170.451 101.418C170.524 101.459 170.459 101.541 170.355 101.635C170.397 101.617 170.439 101.599 170.476 101.582C170.695 101.676 170.576 101.809 170.413 101.937C170.339 101.889 170.265 101.836 170.193 101.784C170.036 101.924 169.888 102.08 169.915 102.219C169.979 102.187 170.049 102.167 170.121 102.161C170.08 102.199 170.053 102.233 170.07 102.257C170.087 102.28 170.158 102.232 170.261 102.174L170.394 102.443L170.431 102.339L171.239 102.529C171.829 102.283 172.348 101.913 173.275 101.831C173.039 102.017 173.215 102.146 173.196 102.375C172.952 102.129 172.477 102.454 172 102.389C172.243 102.422 172.191 102.53 172.122 102.566L172.983 102.374C172.957 102.561 173.159 102.52 173.379 102.605C173.224 102.228 174.024 102.38 174.375 102.278C174.392 102.401 174.305 102.524 173.889 102.483C174.346 102.779 174.507 102.068 174.958 102.321C174.855 102.321 174.799 102.299 174.756 102.361C174.999 102.258 175.589 102.361 175.447 102.47H175.343C176.028 102.538 177.434 102.544 177.547 102.232C177.517 102.384 177.468 102.531 177.4 102.671L178.662 101.652C178.541 101.919 178.937 102.578 178.362 102.711C178.593 102.783 178.84 102.788 179.073 102.723C178.963 102.682 178.808 102.322 178.962 102.304C179.37 102.619 179.247 102.475 179.753 102.748C179.589 102.684 179.789 102.267 180.052 102.29C180.01 102.352 180.06 102.71 179.962 102.751L180.634 102.358C180.467 102.427 180.592 102.71 180.736 102.833C180.67 102.749 181.304 102.863 181.481 102.833L181.205 102.726C181.946 102.817 181.959 102.168 182.696 102.217C182.604 102.3 182.453 102.738 182.829 102.805C183.009 102.598 183.627 101.806 184.288 101.667L184.41 101.79L184.915 101.667C184.39 102.125 183.819 102.526 183.212 102.864C183.487 102.971 183.284 103.01 183.698 103.015C183.841 103.138 183.465 103.18 183.342 103.183L184.309 103.292C184.275 103.046 185.058 103.071 185.029 102.861L183.967 103.081C183.934 102.834 184.601 102.396 185.287 102.465C185.457 102.571 185.14 102.904 185.151 102.987C185.243 102.904 185.809 102.848 185.869 102.911L185.574 103.034C185.952 103.141 186.209 102.726 186.66 102.981C186.818 103.003 187.121 103.319 187.154 103.173C186.91 102.88 186.887 101.998 187.067 101.791C187.122 101.812 187.891 102.094 188.066 102.241C188.319 102.474 187.655 102.758 187.87 102.957C187.882 102.89 188.029 102.811 188.09 102.786C188.254 102.85 188.013 102.994 188.376 102.977C188.446 102.731 189.106 103.025 188.556 102.77C188.912 102.711 188.929 102.835 189.345 102.84C189.223 102.672 189.739 102.299 190.097 102.24C190.072 102.304 190.149 102.39 190.187 102.429C190.916 102.481 191.296 102.611 191.972 102.64C192.033 102.704 192.356 102.79 192.215 102.893C192.336 102.817 192.474 102.775 192.615 102.77C193.012 103.004 192.15 102.785 192.448 103.06C192.479 102.914 192.995 102.879 193.299 102.799C193.216 102.568 192.614 102.728 192.313 102.808C192.323 102.496 192.854 102.193 193.566 102.07C194.131 102.013 193.802 102.28 193.901 102.24C194.954 102.336 194.821 101.73 195.689 101.993C196.029 102.205 195.689 102.39 195.762 102.536C195.301 102.594 195.063 102.382 194.752 102.379L195.132 102.487C194.933 102.561 194.717 102.573 194.511 102.522C194.796 102.712 196.293 102.626 197.101 102.823C197.248 102.762 197.501 102.7 197.385 102.619L197.126 102.636C196.896 102.466 197.62 102.433 197.296 102.345C197.647 102.246 198.041 102.083 198.523 102.193L198.606 102.424C198.599 102.357 198.294 102.277 198.154 102.341C198.361 102.247 198.883 102.677 199.127 102.387L198.792 102.217C199.144 102.116 199.582 101.892 200.008 101.981C199.821 101.748 199.909 102.003 199.612 101.729C199.865 102.065 198.51 101.671 198.924 102.031C198.621 101.714 198.384 101.881 197.983 101.604C197.993 101.681 198.123 101.753 197.762 101.703C197.738 101.728 197.711 101.749 197.681 101.766L197.656 101.759L197.676 101.769C197.66 101.779 197.659 101.782 197.683 101.769C197.753 101.793 197.815 101.836 197.863 101.892C197.677 102.057 197.102 102.029 196.904 102.11C196.69 102.066 196.997 102.028 196.883 101.944L196.586 102.067C196.564 101.9 196.027 101.769 196.536 101.698L196.081 101.672C195.798 101.552 195.488 101.516 195.185 101.569C194.971 101.524 194.635 101.731 194.828 101.608L194.109 101.683V101.641C193.405 101.593 192.649 101.86 191.853 101.528C191.562 101.582 191.264 101.586 190.972 101.54L190.901 101.394C190.594 101.432 189.991 101.213 189.855 101.358C189.54 100.959 188.378 101.219 187.846 101.13L187.818 101.317C187.421 101.304 187.025 101.328 186.633 101.391L186.655 101.559C186.256 101.682 185.644 101.404 185.02 101.397C185.064 101.335 185.222 101.358 185.333 101.397C184.603 100.995 183.752 101.612 183.083 101.314C182.95 101.36 182.804 101.354 182.674 101.296C182.689 101.297 182.703 101.294 182.716 101.289C182.693 101.288 182.67 101.288 182.647 101.289C182.574 101.257 182.498 101.221 182.415 101.192C182.476 101.232 182.541 101.264 182.61 101.288C182.435 101.288 182.26 101.304 182.087 101.335L182.01 101.152H181.965C181.778 101.08 181.811 101.231 181.907 101.369C181.817 101.391 181.73 101.424 181.648 101.468C181.503 101.173 181.137 101.545 180.938 101.23C180.802 101.375 179.965 101.308 179.843 101.619C179.843 101.577 179.781 101.556 179.886 101.557C179.672 101.513 179.458 101.47 179.262 101.557L179.178 101.327L178.692 101.617C178.411 101.469 178.295 101.385 178.585 101.22C177.89 101.466 178.025 101.303 177.433 101.549L177.467 101.402C177.258 101.402 176.918 101.586 176.797 101.461C176.34 101.166 174.486 101.338 173.304 101.045C173.522 101.485 172.753 100.833 172.696 101.168C172.629 101.064 172.464 101.001 172.661 100.922C172.053 101.002 171.749 100.729 171.323 100.997C171.256 100.893 171.458 100.852 171.398 100.789C171.348 100.809 171.201 100.872 171.139 100.808C171.077 100.744 171.232 100.725 171.329 100.685C170.705 100.685 170.632 100.995 170.577 101.289C170.266 101.139 170.108 101.155 169.873 101.342C169.766 101.242 169.586 101.135 169.974 101.112C169.756 101.092 168.646 100.932 168.617 101.168C168.55 101.107 168.313 101.143 168.252 101.168C167.915 101.136 167.577 101.121 167.239 101.125L167.372 101.168C167.173 101.449 166.97 101.22 166.582 101.244L166.594 101.215C165.711 100.984 166.208 101.303 165.338 101.043L165.381 101.221C165.288 101.602 164.61 100.975 164.098 101.106L164.279 101.213C163.998 101.336 163.515 100.67 163.238 100.614C163.177 100.58 163.335 100.564 163.42 100.542C162.691 100.295 163.321 100.771 162.774 100.813C162.677 100.689 162.912 100.496 162.545 100.464C162.365 100.358 161.472 100.85 160.977 100.598C161.085 100.697 161.193 100.797 160.938 100.863C160.55 100.89 159.898 100.475 159.541 100.773C159.492 100.746 159.475 100.72 159.473 100.696C159.175 100.768 158.507 100.806 158.326 100.968C158.063 100.352 156.478 101.227 156.494 100.662L155.582 100.68L155.606 100.622C155.024 100.579 154.816 100.712 154.609 100.846C154.475 100.805 154.574 100.753 154.585 100.723C153.734 100.6 153.65 100.623 152.932 100.898L152.863 100.707C152.668 100.811 151.632 100.406 150.795 100.612C150.803 100.592 150.816 100.574 150.832 100.56C150.848 100.546 150.867 100.536 150.888 100.531C149.948 100.73 148.634 100.026 148.29 100.692L147.67 100.859C148.474 100.907 147.548 101.15 147.883 101.261C147.568 101.301 147.067 101.063 147.453 101.026L147.514 101.059C147.655 100.709 146.517 100.936 146.541 100.703C144.96 100.713 143.414 100.58 141.931 100.597L142.109 100.864H141.593C141.454 100.804 141.403 100.656 141.773 100.659C141.573 100.51 141.165 100.803 141.15 100.862C140.42 100.771 141.421 100.539 141.2 100.538L140.899 100.566L140.967 100.596C140.724 100.719 140.711 100.825 140.267 100.842C139.984 100.803 140.116 100.683 140.004 100.678C140.004 100.659 139.967 100.651 139.835 100.678L139.181 100.689L139.452 100.889C139.168 101.012 138.844 100.91 139.152 101.135C138.692 100.789 136.719 101.12 136.437 101.038C136.044 101.229 135.646 101.261 135.151 101.284C135.272 101.317 135.371 101.55 134.944 101.559C135.055 101.05 134.145 101.413 133.764 101.088C133.931 101.192 133.629 101.234 133.351 101.285C133.072 101.337 132.819 101.422 133.078 101.556C132.713 101.564 133.036 101.375 132.754 101.294C132.341 101.447 131.873 101.476 131.374 101.496C131.131 101.505 130.87 101.511 130.612 101.528C130.349 101.542 130.089 101.583 129.835 101.651C129.835 101.718 130.018 101.784 129.812 101.922L129.204 101.702C129.003 101.77 129.082 102.107 128.665 101.954C128.728 101.998 128.822 102.064 128.688 102.11C127.638 102.118 126.62 102.454 125.599 102.726C125.083 102.849 124.58 103.024 124.06 103.137C123.536 103.257 123.002 103.325 122.465 103.34C122.773 103.371 122.596 103.442 122.392 103.516C122.535 103.5 122.438 103.672 122.49 103.747L121.584 103.795C121.509 104.078 120.698 104.112 120.687 104.363L120.93 104.24C120.67 104.62 121.612 104.658 121.672 105.012C121.815 104.797 122.107 104.821 122.423 104.819C122.74 104.817 123.077 104.786 123.332 104.483C123.495 104.51 123.246 104.627 123.345 104.684C123.467 104.49 123.649 104.403 124.031 104.361L124.001 104.409C124.414 104.27 124.837 104.165 125.267 104.094C125.66 104.033 126.076 104.008 126.663 103.914L126.541 103.764C126.69 103.74 126.841 103.747 126.987 103.784C127.213 103.455 126.286 103.936 126.478 103.589C126.685 103.722 127.123 103.619 127.548 103.524C127.655 103.5 127.761 103.476 127.862 103.458C127.958 103.445 128.055 103.437 128.152 103.435C128.329 103.435 128.471 103.461 128.547 103.551C128.932 103.482 128.395 103.372 128.782 103.305L128.903 103.393L128.975 103.236C129.233 103.212 129.385 103.323 129.41 103.413C129.33 103.43 129.252 103.457 129.177 103.492C129.526 103.558 130.091 103.278 130.212 103.298H129.83C130.099 103.221 130.373 103.159 130.65 103.113L131.524 102.989C132.09 102.925 132.648 102.805 133.19 102.63L133.103 102.558C133.33 102.464 133.578 102.429 133.823 102.459C134.084 102.494 134.35 102.484 134.608 102.43L134.579 102.453C134.775 102.347 134.992 102.289 135.214 102.281C135.002 102.398 135.643 102.433 135.365 102.566C136.216 102.326 135.778 102.4 136.323 102.041L136.464 102.164C136.649 102.025 136.661 101.951 137.096 101.895C136.745 102.031 137.388 102.089 136.998 102.264C137.931 102.51 138.336 101.895 138.786 102.307C139.187 101.905 137.981 102.137 138.213 102.044C138.007 101.931 138.545 101.741 138.836 101.764C139.13 101.757 139.359 102.225 140.093 102.178C140.02 102.178 140.016 102.209 139.943 102.211C140.222 102.296 140.477 102.046 140.822 102.196C141.004 101.963 141.262 102.196 141.308 101.905L140.633 101.988C141.014 101.902 141.363 101.55 142.002 101.702C141.893 101.787 141.77 101.85 141.638 101.89C141.826 101.972 141.993 101.825 142.187 101.908C142.141 102.204 141.366 101.993 140.963 102.227C141.165 102.35 141.732 101.995 141.537 102.318C141.821 101.906 142.266 102.35 142.753 102.029L142.725 102.206C142.845 102.144 142.976 102.105 143.11 102.091L142.853 102.325C143.253 102.12 143.636 102.475 144.021 102.359C143.21 102.385 143.834 102.152 143.489 102.033C144.487 101.773 144.074 102.476 145.191 102.368C145.039 102.391 144.62 102.275 144.856 102.187C145.075 102.209 145.289 102.272 145.486 102.375C146.23 102.336 145.364 102.195 145.685 102.086C145.94 102.299 146.05 101.997 146.376 101.927V102.105C147.227 102.216 146.597 101.736 147.363 101.867L147.042 102.113L147.44 102.046L147.358 102.251C147.79 102.097 147.926 102.136 148.351 102.19C148.251 102.067 148.406 101.867 148.781 101.859C149.038 101.964 148.638 102.029 149.17 102.001C149.049 102.114 148.919 102.254 148.684 102.091C148.661 102.15 148.562 102.204 148.542 102.262C148.818 102.385 149.235 102.286 149.427 102.284C149.356 102.282 149.286 102.268 149.219 102.243L149.991 101.997C150.113 102.064 150.017 102.12 149.921 102.171C150.078 102.151 150.186 102.067 150.416 102.055C150.356 102.2 150.37 102.347 150.044 102.417C150.287 102.361 150.53 102.313 150.781 102.261C150.829 102.325 151.158 102.439 151.062 102.491C151.469 102.581 152.064 102.22 152.605 102.338C152.663 102.294 152.732 102.269 152.804 102.264C153.313 102.302 153.761 102.485 154.366 102.293L154.705 102.556C155.177 102.502 154.247 102.224 155.034 102.134C155.592 102.056 155.238 102.358 155.433 102.432C155.711 102.309 156.196 102.04 156.705 102.264C156.543 102.307 156.412 102.262 156.252 102.278ZM162.081 102.285C161.967 102.32 161.74 102.432 161.659 102.325C161.793 102.121 161.89 102.222 162.081 102.285ZM170.959 102.102C170.874 102.158 170.744 102.125 170.594 102.054C170.716 102.04 170.839 102.057 170.953 102.102H170.959ZM195.692 101.756L195.68 101.764C195.428 101.684 195.513 101.716 195.686 101.756H195.692ZM196.213 101.854C196.266 101.831 196.264 101.806 196.242 101.78C196.204 101.825 196.086 101.823 195.954 101.805C195.983 101.853 196.049 101.887 196.207 101.854H196.213ZM139.946 100.746L140.049 100.787C139.815 100.846 139.878 100.795 139.94 100.741L139.946 100.746Z" fill="#27AAE1"/>
<path d="M169.944 102.32C169.917 102.293 169.9 102.257 169.896 102.219C169.85 102.249 169.848 102.285 169.944 102.32Z" fill="#27AAE1"/>
<path d="M152.631 102.333H152.614C152.604 102.342 152.598 102.353 152.595 102.365L152.631 102.333Z" fill="#27AAE1"/>
<path d="M188.044 103.055C187.97 103.038 187.9 103.005 187.841 102.956C187.833 102.999 187.881 103.036 188.044 103.055Z" fill="#27AAE1"/>
<path d="M198.992 101.658L198.655 101.692C198.759 101.689 198.862 101.713 198.954 101.763C198.948 101.72 198.887 101.657 198.992 101.658Z" fill="#27AAE1"/>
<path d="M201.858 102.879C201.908 102.859 201.962 102.879 202.011 102.86L202 102.778C201.793 102.774 201.644 102.835 201.858 102.879Z" fill="#27AAE1"/>
<path d="M199.279 102.264C199.299 102.416 199.512 102.374 199.748 102.354C199.734 102.356 199.721 102.356 199.707 102.354C199.783 102.146 199.53 102.205 199.279 102.264Z" fill="#27AAE1"/>
<path d="M199.807 102.352C199.879 102.345 199.951 102.345 200.023 102.352C200.05 102.273 199.928 102.336 199.807 102.352Z" fill="#27AAE1"/>
<path d="M196.874 101.78C196.984 101.823 196.952 101.591 197.012 101.657C197.144 101.468 196.261 101.857 196.874 101.78Z" fill="#27AAE1"/>
<path d="M199.45 102.768L199.372 102.578L199.235 102.723L199.45 102.768Z" fill="#27AAE1"/>
<path d="M197.602 102.554L197.975 102.62C197.975 102.588 198.019 102.572 198.077 102.561C197.846 102.554 197.594 102.503 197.602 102.554Z" fill="#27AAE1"/>
<path d="M198.077 102.566C198.179 102.579 198.282 102.572 198.381 102.546C198.279 102.544 198.178 102.55 198.077 102.566Z" fill="#27AAE1"/>
<path d="M198.935 102.803L198.825 102.76L198.561 102.736L198.935 102.803Z" fill="#27AAE1"/>
<path d="M193.57 102.365L193.159 102.402C193.114 102.464 193.225 102.508 193.378 102.488C193.483 102.448 193.631 102.43 193.57 102.365Z" fill="#27AAE1"/>
<path d="M194.788 102.923C194.679 102.88 194.674 102.838 194.613 102.775L194.593 103.004L194.788 102.923Z" fill="#27AAE1"/>
<path d="M193.593 102.929C193.549 102.991 192.992 103.089 193.512 103.094C193.555 103.032 193.969 102.996 193.593 102.929Z" fill="#27AAE1"/>
<path d="M187.435 102.401L187.539 102.402L187.538 102.024L187.435 102.401Z" fill="#27AAE1"/>
<path d="M181.965 103.103C182.452 103.211 182.087 102.874 182.524 103.003C182.645 102.918 182.169 102.897 182.288 102.824C181.992 102.908 181.84 102.849 181.965 103.103Z" fill="#27AAE1"/>
<path d="M182.294 102.824C182.345 102.81 182.396 102.793 182.445 102.773C182.393 102.783 182.342 102.8 182.294 102.824Z" fill="#27AAE1"/>
<path d="M120.962 103.792L120.636 103.819L120.87 103.873L120.962 103.792Z" fill="#27AAE1"/>
<path d="M120.476 104.251L120.328 104.048L120.22 104.314C120.284 104.277 120.408 104.218 120.476 104.251Z" fill="#27AAE1"/>
<path d="M162.935 102.787L162.961 102.731C162.913 102.667 162.839 102.661 162.695 102.648L162.935 102.787Z" fill="#27AAE1"/>
<path d="M158.712 102.519L158.785 102.525L158.653 102.305L158.712 102.519Z" fill="#27AAE1"/>
<path d="M155.161 102.732C155.306 102.742 155.476 102.695 155.621 102.706C155.306 102.742 155.126 102.46 155.161 102.732Z" fill="#27AAE1"/>
<path d="M13.2318 83.1184H12.8122C12.4596 81.9795 11.8867 80.5057 9.83509 80.5057H7.78464V93.4547C7.78464 94.3264 8.00476 94.7278 8.8427 94.7943V95.2868H4.38791V94.7943C5.22706 94.7278 5.44718 94.3264 5.44718 93.4547V80.5057H3.39673C1.34507 80.5057 0.772261 81.9832 0.419575 83.1184H0L0.419575 79.6525H12.8122L13.2318 83.1184Z" fill="#231F20"/>
<path d="M25.8008 94.7967V95.2892H21.4129V94.7967C22.229 94.7302 22.4491 94.3289 22.4491 93.4571V88.4768C22.4491 86.6681 21.6549 85.3507 19.9353 85.3507C18.4139 85.3507 17.3546 86.6016 17.3546 88.2761V93.4547C17.3546 94.3264 17.5759 94.7278 18.3908 94.7943V95.2868H14.0029V94.7943C14.8189 94.7278 15.039 94.3264 15.039 93.4547V81.4661C15.039 80.5956 14.8189 80.2164 14.0029 80.1487V79.6562L17.0019 78.8534H17.3546V86.0426C18.1925 84.9936 19.3613 84.5023 20.6625 84.5023C23.3977 84.5023 24.7428 86.3554 24.7428 88.6996V93.4547C24.7428 94.3264 24.9629 94.7278 25.8008 94.7967Z" fill="#231F20"/>
<path d="M36.6502 89.6378H29.0638C29.0603 89.7055 29.0677 89.7733 29.0857 89.8385C29.3289 94.7721 34.2896 95.2412 36.2087 92.7184L36.5176 92.9868C35.7673 94.4643 34.0914 95.5096 32.2173 95.5096C29.3058 95.5096 26.792 93.3439 26.792 89.8385C26.792 86.4452 29.0638 84.5023 31.9972 84.5023C35.1944 84.5023 36.694 86.758 36.6502 89.5036V89.6378ZM29.0857 88.8338H34.5304C34.5961 86.8466 33.78 84.9714 31.9497 84.9936C30.4089 85.0158 29.2401 86.4896 29.0857 88.8338Z" fill="#231F20"/>
<path d="M56.1659 81.4661V93.4547C56.1659 94.3264 56.386 94.7056 57.2021 94.7943V95.2868H52.7728V94.7943C53.6108 94.7056 53.8321 94.3264 53.8321 93.4547V87.7171H45.9149V93.4547C45.9149 94.3264 46.135 94.7056 46.973 94.7943V95.2868H42.5145V94.7943C43.3524 94.7056 43.5738 94.3264 43.5738 93.4547V81.4661C43.5738 80.5956 43.3524 80.2164 42.5145 80.1487V79.6562H46.9693V80.1487C46.1314 80.2164 45.9112 80.5956 45.9112 81.4661V86.8688H53.8284V81.4661C53.8284 80.5956 53.6071 80.2164 52.7692 80.1487V79.6562H57.2021V80.1487C56.386 80.2164 56.1659 80.5956 56.1659 81.4661Z" fill="#231F20"/>
<path d="M69.3734 89.9949C69.3734 93.4781 66.772 95.5096 63.8386 95.5096C60.9053 95.5096 58.3039 93.4781 58.3039 89.9949C58.3039 86.5117 60.9053 84.5023 63.8386 84.5023C66.772 84.5023 69.3734 86.5117 69.3734 89.9949ZM66.9921 89.9949C66.9921 87.0929 65.8234 85.1278 63.8386 85.1278C61.8539 85.1278 60.6851 87.0978 60.6851 89.9949C60.6851 92.892 61.8539 94.862 63.8386 94.862C65.8234 94.862 66.9921 92.8969 66.9921 89.9949Z" fill="#231F20"/>
<path d="M89.198 94.7967V95.2892H84.7882V94.7967C85.6261 94.7302 85.8463 94.3289 85.8463 93.4571V88.4768C85.8463 86.6681 85.1628 85.3507 83.465 85.3507C81.9874 85.3507 81.0327 86.6016 81.0327 88.2761V93.4547C81.0327 94.3264 81.2528 94.7278 82.0689 94.7943V95.2868H77.6871V94.7943C78.5031 94.7278 78.7232 94.3264 78.7232 93.4547V88.4768C78.7232 86.6681 78.0616 85.3507 76.3639 85.3507C74.8862 85.3507 73.9157 86.6016 73.9157 88.2761V93.4547C73.9157 94.3264 74.1371 94.7278 74.975 94.7943V95.2868H70.5859V94.7943C71.4019 94.7278 71.6221 94.3264 71.6221 93.4547V87.115C71.6221 86.2433 71.4019 85.8419 70.5859 85.7754V85.2829L73.4974 84.5011H73.8501V86.0869C74.6442 85.0145 75.7959 84.5011 77.0911 84.5011C78.8996 84.5011 80.0683 85.3273 80.618 86.6004C81.4109 85.1709 82.6855 84.5011 84.2118 84.5011C86.88 84.5011 88.1375 86.3541 88.1375 88.6984V93.4547C88.1399 94.3264 88.3601 94.7278 89.198 94.7967Z" fill="#231F20"/>
<path d="M100.046 89.6378H92.461C92.4575 89.7055 92.4649 89.7733 92.4829 89.8385C92.7261 94.7721 97.6868 95.2412 99.6059 92.7184L99.9148 92.9868C99.1644 94.4643 97.4825 95.5096 95.6145 95.5096C92.703 95.5096 90.1892 93.3439 90.1892 89.8385C90.1892 86.4452 92.461 84.5023 95.3931 84.5023C98.5916 84.5023 100.091 86.758 100.046 89.5036V89.6378ZM92.4829 88.8338H97.93C97.9957 86.8466 97.1797 84.9714 95.3494 84.9936C93.806 85.0158 92.6373 86.4896 92.4829 88.8338Z" fill="#231F20"/>
<path d="M112.351 89.9949C112.351 93.4781 109.749 95.5096 106.817 95.5096C103.884 95.5096 101.281 93.4781 101.281 89.9949C101.281 86.5117 103.883 84.5023 106.817 84.5023C109.75 84.5023 112.351 86.5117 112.351 89.9949ZM109.97 89.9949C109.97 87.0929 108.801 85.1278 106.817 85.1278C104.832 85.1278 103.663 87.0978 103.663 89.9949C103.663 92.892 104.832 94.862 106.817 94.862C108.801 94.862 109.97 92.8969 109.97 89.9949Z" fill="#231F20"/>
<path d="M125.031 89.9949C125.031 93.3882 122.914 95.5096 120.288 95.5096C118.568 95.5096 117.421 94.6613 116.694 93.5667V98.5237C116.694 99.3942 116.914 99.7734 117.73 99.8399V100.332H113.338V99.8399C114.176 99.7734 114.397 99.3942 114.397 98.5237V87.115C114.397 86.2433 114.176 85.8419 113.338 85.7754V85.2829L116.337 84.5011H116.691V86.444C117.42 85.3273 118.565 84.5011 120.284 84.5011C122.914 84.5023 125.031 86.6238 125.031 89.9949ZM122.694 89.9949C122.694 87.2936 121.634 85.3063 119.716 85.3063C117.77 85.3063 116.695 87.1372 116.695 89.9949C116.695 92.8526 117.775 94.6835 119.716 94.6835C121.634 94.6835 122.694 92.6962 122.694 89.9949Z" fill="#231F20"/>
<path d="M136.717 94.7056C136.255 95.2855 135.637 95.5096 134.975 95.5096C134.138 95.5096 133.123 95.107 133.101 93.7859C132.549 94.8804 131.381 95.5096 130.079 95.5096C128.36 95.5096 126.485 94.7499 126.375 92.7849C126.22 90.464 128.007 89.4137 130.212 89.2143C131.579 89.1022 132.571 89.0136 133.101 88.968V88.0976C133.101 86.1276 132.638 85.0835 131.117 84.9714C130.279 84.9271 129.352 85.395 129.396 86.4674C129.441 87.6728 128.647 88.0077 127.936 87.7393C127.34 87.493 127.164 86.8023 127.495 86.1103C128.068 84.8594 129.722 84.5023 131.045 84.5023C133.097 84.5023 135.389 85.1943 135.389 88.4989V93.7674C135.389 94.5714 136.007 94.7056 136.492 94.3264L136.717 94.7056ZM133.101 91.6915V89.4815C132.771 89.5258 132.218 89.5701 131.359 89.6822C129.55 89.905 128.561 91.0217 128.58 92.4278C128.603 93.9681 129.572 94.7056 130.786 94.6613C132.197 94.6157 133.101 93.5002 133.101 91.6915Z" fill="#231F20"/>
<path d="M143.751 94.2587C143.491 94.6486 143.139 94.967 142.727 95.1853C142.316 95.4037 141.857 95.5151 141.392 95.5096C139.811 95.5096 138.569 94.6613 138.569 92.3835V85.507H136.937V84.7006C138.789 84.7006 139.827 83.4287 140.179 81.6225H140.863V84.7006H143.133V85.5046H140.862V92.3835C140.862 93.3685 141.171 93.9681 141.81 94.17C142.449 94.3929 143.026 94.1922 143.464 93.8573L143.751 94.2587Z" fill="#231F20"/>
<path d="M156.431 94.7967V95.2892H152.043V94.7967C152.859 94.7302 153.079 94.3289 153.079 93.4571V88.4768C153.079 86.6681 152.285 85.3507 150.565 85.3507C149.044 85.3507 147.985 86.6016 147.985 88.2761V93.4547C147.985 94.3264 148.206 94.7278 149.022 94.7943V95.2868H144.633V94.7943C145.449 94.7278 145.67 94.3264 145.67 93.4547V81.4661C145.67 80.5956 145.449 80.2164 144.633 80.1487V79.6562L147.632 78.8534H147.985V86.0426C148.823 84.9936 149.993 84.5023 151.293 84.5023C154.028 84.5023 155.373 86.3554 155.373 88.6996V93.4547C155.373 94.3264 155.593 94.7278 156.431 94.7967Z" fill="#231F20"/>
<path d="M167.502 84.7006V85.1931C166.862 85.2829 166.664 85.5735 166.377 86.2421L162.363 95.8457C160.842 99.1935 160.135 99.9753 158.879 100.244C158.196 100.378 157.114 100.31 156.447 99.7968C155.96 99.3954 155.785 98.5655 156.314 98.0103C156.821 97.4968 157.637 97.6754 157.836 98.323C157.968 98.7921 158.145 99.4619 158.961 99.3498C159.6 99.2834 160.438 98.7921 161.651 95.8457L161.74 95.6217L157.726 86.625C157.352 85.7545 157.13 85.3076 156.314 85.1955V84.703H160.615V85.1955C159.931 85.2411 159.885 85.821 160.151 86.4686L162.864 92.9203L165.533 86.4686C165.776 85.8653 165.731 85.2632 165.046 85.1955V84.703L167.502 84.7006Z" fill="#231F20"/>
<path d="M194.89 79.6525V80.145C194.074 80.2127 193.673 80.6141 193.39 81.4624L188.759 95.2892H187.723L183.841 83.0323L179.74 95.2892H178.703L174.073 81.4661C173.786 80.6178 173.499 80.2164 172.683 80.1487V79.6562H177.534V80.1487C176.674 80.1265 176.343 80.8628 176.63 81.7789L179.849 92.088L184.106 79.6525H185.12L188.957 92.1336L192.484 81.5954C192.748 80.7249 192.55 80.2115 191.712 80.1438V79.6513L194.89 79.6525Z" fill="#231F20"/>
<path d="M204.04 94.7056C203.578 95.2855 202.96 95.5096 202.298 95.5096C201.46 95.5096 200.446 95.107 200.423 93.7859C199.872 94.8804 198.703 95.5096 197.402 95.5096C195.682 95.5096 193.808 94.7499 193.698 92.7849C193.543 90.464 195.33 89.4137 197.535 89.2143C198.902 89.1022 199.894 89.0136 200.423 88.968V88.0976C200.423 86.1276 199.961 85.0835 198.44 84.9714C197.602 84.9271 196.675 85.395 196.719 86.4674C196.762 87.6728 195.97 88.0077 195.259 87.7393C194.663 87.493 194.487 86.8023 194.818 86.1103C195.391 84.8594 197.045 84.5023 198.368 84.5023C200.418 84.5023 202.712 85.1943 202.712 88.4989V93.7674C202.712 94.5714 203.33 94.7056 203.815 94.3264L204.04 94.7056ZM200.423 91.6915V89.4815C200.094 89.5258 199.541 89.5701 198.682 89.6822C196.873 89.905 195.884 91.0217 195.903 92.4278C195.925 93.9681 196.895 94.7056 198.109 94.6613C199.519 94.6157 200.423 93.5002 200.423 91.6915Z" fill="#231F20"/>
<path d="M215 84.7006V85.1931C214.36 85.2829 214.162 85.5735 213.875 86.2421L209.862 95.8457C208.34 99.1935 207.635 99.9753 206.377 100.244C205.694 100.378 204.613 100.31 203.945 99.7968C203.459 99.3954 203.284 98.5655 203.814 98.0103C204.321 97.4968 205.137 97.6754 205.335 98.323C205.468 98.7921 205.644 99.4619 206.46 99.3498C207.099 99.2834 207.937 98.7921 209.15 95.8457L209.238 95.6217L205.225 86.625C204.85 85.7545 204.63 85.3076 203.814 85.1955V84.703H208.113V85.1955C207.429 85.2411 207.383 85.821 207.651 86.4686L210.363 92.9203L213.031 86.4686C213.274 85.8653 213.229 85.2632 212.545 85.1955V84.703L215 84.7006Z" fill="#231F20"/>
<path d="M215 0H67.7182V72.1814H215V0Z" fill="#0073AE"/>
<path d="M67.7182 0H0V72.1814H67.7182V0Z" fill="#ED1C24"/>
<path d="M47.0483 56.5052V45.3674C47.0483 44.5302 46.8416 43.9023 46.4245 43.4898C46.0073 43.0773 45.3846 42.8643 44.5309 42.8643C44.0298 42.8643 43.6881 42.8212 43.5118 42.7264C43.4195 42.6887 43.341 42.6233 43.2866 42.539C43.2322 42.4547 43.2047 42.3555 43.2077 42.2549C43.2054 42.164 43.2246 42.0738 43.2637 41.992C43.3029 41.9102 43.3608 41.839 43.4327 41.7845C43.5823 41.6725 43.9326 41.5678 44.4725 41.4607L44.8872 41.3598C45.5701 41.2025 46.2394 40.9904 46.889 40.7257C47.4096 40.504 48.031 40.1925 48.7875 39.801C49.5439 39.4095 50.0036 39.2174 50.214 39.2174C50.2981 39.2087 50.3828 39.225 50.4579 39.2641C50.533 39.3032 50.5953 39.3635 50.6372 39.4378C50.7029 39.5794 50.7516 39.9303 50.7516 40.4634V43.9109C52.1283 42.2512 53.1766 41.1591 53.9221 40.6247C54.6408 40.0977 55.3596 39.8256 56.0552 39.8256C56.8894 39.8368 57.6955 40.1317 58.344 40.6629C59.0737 41.228 59.4301 41.771 59.4301 42.2955C59.4301 42.703 59.199 43.166 58.7575 43.6708C58.3161 44.1756 57.9354 44.4391 57.6375 44.4391C57.4672 44.4391 57.0452 44.2285 56.3289 43.8075C55.6951 43.4088 54.9673 43.1894 54.2213 43.1721C53.3177 43.1721 52.5028 43.5883 51.778 44.4034C51.0532 45.2185 50.6968 46.1505 50.6968 47.1515V55.7702C50.6968 57.5099 50.8257 58.6796 51.0763 59.2989C51.3268 59.9182 51.8218 60.3922 52.5223 60.7518C52.7328 60.8522 52.9539 60.9278 53.1814 60.9771C53.4712 61.0303 53.7651 61.0566 54.0595 61.0559C54.5812 61.0891 54.9279 61.1667 55.0981 61.2787C55.1743 61.3507 55.234 61.4387 55.2731 61.5366C55.3122 61.6344 55.3297 61.7397 55.3243 61.8451L55.0689 62.2834C54.8719 62.4005 54.6467 62.4598 54.4183 62.4546C54.2882 62.4546 53.6801 62.4152 52.577 62.3228C51.474 62.2305 50.4147 62.1997 49.4418 62.1997C48.0632 62.2014 46.6857 62.2782 45.3153 62.4299L44.9395 62.4558L44.5029 62.292L44.3169 61.9017L44.4567 61.5238C44.6268 61.3382 44.8246 61.1807 45.0429 61.0571C45.2808 60.9311 45.5074 60.7844 45.7203 60.6188L46.1192 60.2162C46.4571 59.786 46.6982 59.2864 46.8258 58.7522C46.9875 58.176 47.052 57.436 47.052 56.5114M9.32551 56.2343V31.7401C9.32551 30.4658 9.21119 29.5596 8.96066 29.0178C8.71014 28.4761 8.2638 28.0439 7.63019 27.6721C7.31034 27.4751 6.81901 27.3101 6.18539 27.1722L6.06377 27.15C5.59555 27.0614 5.30367 26.9777 5.15895 26.8693C5.09064 26.8141 5.03635 26.7432 5.0006 26.6625C4.96484 26.5817 4.94867 26.4935 4.95342 26.4051C4.95342 26.2426 5.0653 26.1023 5.26476 25.968C5.50794 25.8291 5.7848 25.7621 6.06377 25.7747C6.07593 25.7747 6.66212 25.8092 7.83085 25.8856C8.99958 25.9619 10.1257 25.9951 11.2495 25.9951C12.1202 25.9951 13.5602 25.968 15.5656 25.8856C17.5711 25.8031 19.1059 25.7747 20.2211 25.7747C26.5273 25.7747 31.4779 27.3515 35.0728 30.5052C38.6678 33.6588 40.4673 38.0091 40.4714 43.5563C40.4714 49.2692 38.637 53.84 34.9682 57.2686C31.2995 60.6972 26.3826 62.4086 20.2174 62.4029C18.5294 62.4029 16.6748 62.3438 14.6815 62.2465C12.6882 62.1492 11.5316 62.0975 11.1996 62.0975C10.144 62.0966 9.09081 62.1989 8.05463 62.4029C7.01603 62.6023 6.47362 62.7057 6.45659 62.7057C6.22084 62.7069 5.99159 62.6275 5.80595 62.4804L5.51407 62.0458C5.51149 61.9342 5.53338 61.8234 5.57818 61.7215C5.62297 61.6195 5.68955 61.5288 5.77311 61.456C5.93972 61.3058 6.28025 61.1544 6.78131 61.0017L7.0817 60.8675C7.57546 60.6668 7.90382 60.4784 8.0826 60.3134C8.52813 59.9376 8.86197 59.4441 9.04701 58.8877C9.22336 58.3262 9.32186 57.4397 9.32186 56.2307M13.4629 56.7232C13.4629 57.3486 13.503 57.8165 13.5991 58.1292C13.6475 58.3976 13.7911 58.6389 14.0029 58.8076C14.6563 59.3001 15.7209 59.7151 17.1965 60.0524C18.7207 60.4002 20.2786 60.5732 21.841 60.5683C26.5516 60.5683 30.1802 59.2599 32.7269 56.6431C35.2735 54.0263 36.5521 50.2858 36.5626 45.4216C36.5626 39.8457 34.937 35.4133 31.6858 32.1242C28.4435 28.8426 24.0581 27.2017 18.5294 27.2017C16.4619 27.2017 15.0901 27.4123 14.437 27.8395C13.784 28.2668 13.4641 29.1705 13.4641 30.5483L13.4629 56.7232Z" fill="white"/>
<path d="M195.34 59.9958L195.293 55.6618C195.293 55.2924 195.34 55.0105 195.454 54.8332C195.505 54.7447 195.58 54.6723 195.669 54.6242C195.759 54.5762 195.86 54.5543 195.961 54.5611C196.285 54.5611 196.52 54.9551 196.653 55.7394C196.743 56.2392 196.865 56.7327 197.018 57.2169C197.48 58.5909 198.17 59.6326 199.038 60.3331C199.906 61.0337 200.973 61.3969 202.218 61.3969C203.54 61.3969 204.637 60.998 205.479 60.1854C206.32 59.3728 206.741 58.3385 206.741 57.0617C206.741 55.5128 205.167 54.0107 201.998 52.5517C201.39 52.2722 200.934 52.0531 200.601 51.893C198.874 51.0878 197.649 50.2444 196.902 49.3197C196.173 48.4135 195.796 47.3029 195.796 45.9954C195.796 44.1337 196.43 42.671 197.672 41.5703C198.914 40.4696 200.62 39.9204 202.763 39.9204C204.435 39.9204 205.738 40.094 206.664 40.4277C207.57 40.7688 208.031 41.2489 208.051 41.8584L208.106 44.7888C208.12 45.0256 208.086 45.2631 208.005 45.4856L207.64 45.6826C207.354 45.6826 207.153 45.4167 206.986 44.8836C206.837 44.3406 206.685 43.9724 206.528 43.7447C205.993 42.9613 205.279 42.3202 204.447 41.8756C203.672 41.4322 202.797 41.1978 201.907 41.1948C200.812 41.1948 199.938 41.4792 199.275 42.0382C198.612 42.5972 198.284 43.3359 198.284 44.2544C198.284 45.896 200.301 47.5787 204.337 49.3025C204.629 49.4121 204.835 49.5155 204.995 49.582C206.466 50.237 207.549 51.0299 208.242 51.9767C208.935 52.9235 209.293 54.1129 209.293 55.5202C209.293 57.6589 208.577 59.4269 207.17 60.8306C205.743 62.2301 203.94 62.9306 201.761 62.9323C200.489 62.9323 199.042 62.5395 197.444 61.7651C197.17 61.6208 196.885 61.5001 196.592 61.4043L196.244 61.3218C195.636 61.2122 195.337 60.7653 195.337 59.9995M184.659 27.5637L186.861 25.2096L187.123 25.0594L187.473 25.0101C188.218 25.0101 188.952 25.5741 189.709 26.7105C190.465 27.8469 190.84 29.1348 190.84 30.5938C190.841 31.6829 190.664 32.7646 190.316 33.795C189.923 34.8636 189.376 35.8673 188.692 36.7734C188.051 37.602 187.461 38.2509 186.907 38.6917C186.352 39.1324 185.903 39.3713 185.526 39.3713L185.179 39.2691L185.065 38.9613C185.065 38.8197 185.262 38.5205 185.66 38.0994C187.011 36.6712 187.69 35.1001 187.69 33.4084C187.706 32.7613 187.587 32.1181 187.34 31.5209C187.083 30.9392 186.715 30.4155 186.255 29.9807C186.046 29.8034 185.727 29.551 185.321 29.2481C184.724 28.8011 184.42 28.4712 184.42 28.2483L184.468 27.8334L184.659 27.5637ZM175.994 59.7458C174.884 60.7849 173.59 61.6039 172.181 62.1603C170.701 62.6865 169.14 62.9465 167.571 62.9286C165.912 62.9286 164.652 62.5087 163.757 61.6432C162.888 60.7813 162.456 59.5378 162.456 57.9101C162.456 55.812 163.421 54.1568 165.353 52.9445C167.284 51.7321 170.721 50.665 175.663 49.7433V46.1554C175.663 44.5671 175.161 43.3617 174.204 42.5159C173.247 41.67 171.835 41.2563 169.992 41.2563C168.434 41.2563 167.317 41.4681 166.688 41.9163C166.059 42.3644 165.715 43.1081 165.715 44.1645C165.729 44.6788 165.797 45.1901 165.917 45.69C166.007 46.0354 166.073 46.3868 166.114 46.7415C166.114 46.9877 165.992 47.1724 165.756 47.3374C165.487 47.4948 165.178 47.5708 164.867 47.5566C164.244 47.5774 163.632 47.3848 163.13 47.0099C162.906 46.8605 162.723 46.6566 162.598 46.4169C162.473 46.1772 162.409 45.9094 162.413 45.6383C162.413 44.1608 163.234 42.8065 164.897 41.6035C166.538 40.3854 168.484 39.7752 170.734 39.7727C173.879 39.7727 176.085 40.3563 177.383 41.5346C178.681 42.7129 179.318 44.79 179.318 47.7807V57.3671C179.318 58.8162 179.467 59.7483 179.744 60.1669C180.02 60.5855 180.564 60.7936 181.349 60.7936C181.501 60.7936 181.67 60.7813 181.914 60.7641C182.159 60.7468 182.319 60.7394 182.401 60.7394L182.735 60.9057L182.886 61.3083C182.886 61.6653 182.605 61.9559 182.035 62.1886C181.449 62.4349 180.72 62.558 179.826 62.558C178.892 62.558 178.107 62.3253 177.466 61.85C176.844 61.3883 176.352 60.6914 176.006 59.7569M175.675 50.9252C171.956 51.6985 169.384 52.5603 167.961 53.5108C166.546 54.4614 165.838 55.7443 165.838 57.3412C165.838 58.5786 166.175 59.5451 166.858 60.2334C167.542 60.9217 168.511 61.2676 169.733 61.2676C171.436 61.2676 172.854 60.8392 173.975 59.9576C175.117 59.0736 175.678 57.9704 175.678 56.6148L175.675 50.9252ZM147.045 56.5052V45.3674C147.045 44.5302 146.846 43.8986 146.437 43.4886C146.027 43.0786 145.4 42.8643 144.526 42.8643C144.04 42.8643 143.7 42.8212 143.508 42.7252C143.418 42.6865 143.341 42.6206 143.289 42.5365C143.237 42.4524 143.211 42.3541 143.216 42.2549C143.214 42.1632 143.233 42.0723 143.273 41.9899C143.313 41.9076 143.372 41.8363 143.445 41.7821C143.583 41.6737 143.942 41.5691 144.482 41.4595L144.901 41.3573C145.583 41.2011 146.252 40.9899 146.901 40.7257C147.418 40.504 148.041 40.1938 148.796 39.801C149.551 39.4082 150.025 39.2174 150.204 39.2174C150.418 39.2174 150.569 39.2876 150.637 39.4378C150.705 39.588 150.752 39.9303 150.752 40.4634V43.9109C152.14 42.2524 153.196 41.1603 153.933 40.6259C154.651 40.099 155.36 39.8281 156.069 39.8281C156.879 39.8281 157.642 40.1113 158.354 40.6653C159.065 41.2194 159.437 41.7735 159.437 42.2955C159.437 42.7043 159.214 43.166 158.766 43.6708C158.318 44.1756 157.946 44.4329 157.642 44.4329C157.474 44.4329 157.05 44.2248 156.33 43.8025C155.698 43.4024 154.97 43.1825 154.225 43.166C153.313 43.166 152.497 43.5834 151.771 44.3972C151.063 45.2271 150.704 46.1443 150.704 47.1466V55.7652C150.704 57.5025 150.839 58.6685 151.084 59.2878C151.346 59.8936 151.813 60.3836 152.517 60.7444C152.735 60.8441 152.962 60.9184 153.196 60.966C153.483 61.0219 153.775 61.0487 154.068 61.046C154.593 61.0817 154.934 61.1568 155.094 61.2713C155.173 61.3411 155.235 61.4287 155.275 61.5271C155.314 61.6255 155.33 61.7319 155.322 61.8377L155.079 62.276C154.879 62.3951 154.65 62.4544 154.418 62.4472C154.297 62.4472 153.681 62.4078 152.579 62.3167C151.478 62.2256 150.417 62.1935 149.444 62.1935C148.068 62.1948 146.694 62.2717 145.326 62.4238C145.126 62.4459 144.984 62.4496 144.947 62.4496L144.502 62.2859L144.334 61.8919L144.455 61.5225C144.628 61.3387 144.826 61.1811 145.043 61.0546C145.282 60.9299 145.51 60.7836 145.723 60.6176L146.128 60.2174C146.461 59.784 146.702 59.285 146.834 58.7522C146.984 58.176 147.052 57.436 147.052 56.5101M129.573 42.6587H127.603L127.142 42.4654L126.888 42.0788C126.888 41.9557 127.276 41.5728 128.021 40.9251C128.756 40.2894 129.453 39.6106 130.108 38.8924C130.572 38.3937 131.068 37.6611 131.635 36.6934C132.201 35.7256 132.608 35.2454 132.875 35.2454L133.184 35.3686C133.24 35.4424 133.269 35.6148 133.269 35.8746V40.5668H137.838C138.878 40.5668 139.765 40.3661 140.539 39.9574C140.682 39.8669 140.841 39.8043 141.006 39.7727L141.161 39.8638L141.202 40.1556C141.218 40.8187 140.997 41.4652 140.58 41.9766C140.397 42.2255 140.158 42.4266 139.883 42.5633C139.608 42.6999 139.305 42.7681 138.999 42.7621C138.846 42.7567 138.694 42.7394 138.544 42.7104C138.383 42.682 138.22 42.6647 138.057 42.6587H133.268V57.2243C133.268 58.4974 133.589 59.459 134.213 60.1152C134.837 60.7715 135.743 61.1002 136.942 61.1002C138.057 61.1002 139.208 60.7764 140.408 60.1386C140.766 59.9453 141.005 59.8468 141.103 59.8468L141.467 59.9256L141.612 60.1558C141.612 60.7715 140.978 61.4055 139.716 62.0544C138.42 62.72 136.985 63.0604 135.531 63.0468C133.402 63.0468 131.883 62.5137 130.949 61.4462C130.028 60.3848 129.561 58.5909 129.561 56.0755L129.573 42.6587ZM117.217 59.7495C116.105 60.7925 114.808 61.6119 113.394 62.164C111.917 62.6909 110.361 62.951 108.796 62.9323C107.142 62.9323 105.857 62.5124 104.99 61.6469C104.123 60.7813 103.685 59.5415 103.685 57.9138C103.685 55.8206 104.642 54.1585 106.576 52.9482C108.509 51.7379 111.927 50.6667 116.885 49.7469V46.1554C116.885 44.5671 116.399 43.3617 115.426 42.5159C114.453 41.67 113.057 41.2563 111.215 41.2563C109.657 41.2563 108.553 41.4681 107.913 41.9163C107.274 42.3644 106.941 43.1081 106.941 44.1645C106.95 44.6787 107.015 45.1904 107.135 45.69C107.22 46.0362 107.283 46.3873 107.324 46.7415C107.324 46.9877 107.202 47.1724 106.959 47.3374C106.693 47.4919 106.39 47.5679 106.084 47.5566C105.395 47.5566 104.811 47.3805 104.338 47.0099C103.865 46.6393 103.619 46.1911 103.619 45.6383C103.619 44.1608 104.443 42.8065 106.103 41.6035C107.763 40.4006 109.683 39.7727 111.94 39.7727C115.082 39.7727 117.291 40.3563 118.584 41.5346C119.877 42.7129 120.519 44.79 120.519 47.7807V57.3671C120.519 58.8158 120.661 59.7491 120.946 60.1669C121.239 60.5855 121.768 60.7936 122.548 60.7936C122.69 60.7936 122.881 60.7813 123.126 60.7641C123.372 60.7468 123.512 60.7394 123.598 60.7394L123.94 60.9057L124.097 61.3083C124.097 61.6653 123.805 61.9559 123.246 62.1886C122.659 62.4349 121.931 62.558 121.032 62.558C120.101 62.558 119.32 62.3253 118.675 61.85C118.053 61.3883 117.56 60.6914 117.216 59.7569M116.884 50.9252C113.164 51.6985 110.594 52.5603 109.173 53.5108C107.757 54.4614 107.046 55.7443 107.046 57.3412C107.046 58.5786 107.398 59.5451 108.069 60.2334C108.74 60.9217 109.707 61.2676 110.944 61.2676C112.647 61.2676 114.049 60.8392 115.201 59.9576C116.322 59.0736 116.889 57.9704 116.889 56.6148L116.884 50.9252ZM76.0538 55.3048V32.6894C76.0538 31.3079 75.9212 30.2934 75.6634 29.6211C75.4838 29.135 75.1978 28.6964 74.8269 28.3382C74.456 27.98 74.0098 27.7114 73.5217 27.5527C73.1515 27.4184 72.7695 27.3199 72.381 27.2584C71.9018 27.1697 71.5978 27.0688 71.4567 26.9777L71.2584 26.5159C71.2584 26.2426 71.3229 26.0481 71.4713 25.9447C71.6196 25.8412 71.9067 25.7747 72.3603 25.7747C72.5305 25.7747 73.2201 25.8178 74.4192 25.9126C75.6354 26.005 76.7628 26.0481 77.8245 26.0481C78.4934 26.0481 79.6086 26.005 81.1483 25.9126C82.6879 25.8203 83.9235 25.7747 84.849 25.7747C88.6191 25.7747 91.5379 26.548 93.6577 28.1006C95.7774 29.6531 96.8404 31.7943 96.8404 34.5732C96.8404 36.1738 96.4342 37.5799 95.6242 38.7852C94.8325 39.9931 93.6127 41.0224 91.9757 41.8695V42.3521C94.5783 42.8085 96.5765 43.8177 97.9702 45.3798C99.3469 46.9336 100.049 48.9294 100.049 51.3734C100.049 54.8332 98.8799 57.5764 96.5424 59.603C94.1989 61.6321 91.0271 62.6614 87.0053 62.6614C85.6213 62.6614 83.9843 62.5863 82.0665 62.4299C80.1486 62.2736 78.9324 62.1923 78.418 62.1923C76.899 62.1923 75.3034 62.2871 73.6263 62.4546C73.2067 62.4866 72.944 62.505 72.848 62.505L72.4454 62.2797L72.2545 61.7872C72.2545 61.4314 72.567 61.1396 73.1824 60.9007H73.2067C73.535 60.7581 73.8535 60.5936 74.1602 60.4082C74.39 60.2739 74.5977 60.104 74.7756 59.9047C75.2408 59.4493 75.5789 58.8776 75.7558 58.2474C75.9528 57.5986 76.0598 56.6308 76.0598 55.3109M80.1461 57.2809C80.1461 58.7584 80.5548 59.752 81.3623 60.274C82.1698 60.7961 83.8724 61.0497 86.4799 61.0497C89.6614 61.0497 92.0532 60.3697 93.6552 59.0096C95.2496 57.6552 96.0499 55.604 96.0499 52.894C96.0499 49.9661 95.1 47.6875 93.2004 46.0582C91.2959 44.4305 88.6507 43.6105 85.2127 43.6105H82.002C81.1872 43.6105 80.68 43.7163 80.4623 43.9355C80.2446 44.1547 80.1401 44.6607 80.1401 45.4992L80.1461 57.2809ZM80.1461 39.934C80.1461 40.7614 80.2532 41.2625 80.4611 41.4656C80.6691 41.6688 81.0814 41.7771 81.743 41.7771H85.4644C88.174 41.7771 90.1345 41.3216 91.3676 40.4031C92.5838 39.4981 93.1919 38.0551 93.1919 36.0938C93.1919 33.6399 92.2579 31.6133 90.3704 29.9856C88.4829 28.3579 86.1211 27.5699 83.2473 27.5699C81.9667 27.5699 81.1361 27.7595 80.7287 28.1449C80.3407 28.5266 80.1425 29.2949 80.1425 30.4498L80.1461 39.934Z" fill="white"/>
<path d="M205.028 6.35811V8.3441H205.757C206.55 8.3441 207.089 8.29854 207.356 8.22097L207.816 7.87869L208.001 7.35295C208.002 7.22016 207.975 7.08864 207.922 6.96719C207.869 6.84574 207.791 6.73715 207.693 6.64869C207.485 6.44799 206.964 6.35196 206.126 6.35196L205.028 6.35811ZM204.282 5.75234H206.509C207.309 5.75234 207.895 5.90132 208.255 6.18574C208.417 6.31855 208.548 6.48631 208.637 6.67675C208.727 6.86719 208.773 7.07551 208.773 7.28647C208.775 7.50986 208.727 7.7308 208.633 7.93287C208.539 8.13494 208.401 8.31295 208.23 8.45368C207.961 8.679 207.566 8.82305 207.058 8.89693C207.231 8.97639 207.395 9.07597 207.545 9.19365C207.706 9.35958 207.855 9.53736 207.99 9.72555C208.194 9.99765 208.338 10.2254 208.453 10.4101L209.027 11.4517H208.12L207.555 10.5111C207.14 9.77849 206.808 9.34633 206.593 9.19612C206.377 9.0459 205.996 8.98557 205.498 8.98557H205.025V11.4481H204.28L204.282 5.75234ZM210.995 8.79227C211.002 8.17182 210.883 7.55659 210.645 6.98474C210.407 6.41289 210.056 5.89661 209.612 5.46793C209.175 5.02176 208.652 4.66998 208.077 4.43382C207.501 4.19767 206.884 4.08202 206.263 4.09386C204.939 4.09386 203.831 4.54573 202.909 5.46793C202.47 5.89978 202.12 6.41653 201.882 6.98756C201.643 7.55858 201.52 8.17227 201.52 8.79227C201.52 9.41227 201.643 10.026 201.882 10.597C202.12 11.168 202.47 11.6848 202.909 12.1166C203.804 13.0046 205.007 13.5019 206.261 13.5019C207.514 13.5019 208.717 13.0046 209.612 12.1166C210.057 11.6891 210.409 11.173 210.647 10.6009C210.885 10.0288 211.004 9.41298 210.995 8.79227ZM211.586 8.79227C211.6 9.49034 211.468 10.1835 211.2 10.8266C210.931 11.4698 210.532 12.0486 210.028 12.5254C209.023 13.5243 207.671 14.0839 206.263 14.0839C204.855 14.0839 203.503 13.5243 202.498 12.5254C202.002 12.0409 201.607 11.4601 201.338 10.8177C201.068 10.1754 200.929 9.48463 200.929 8.78673C200.929 8.08883 201.068 7.39808 201.338 6.75573C201.607 6.11338 202.002 5.5326 202.498 5.04807C203.506 4.05499 204.857 3.49932 206.263 3.49932C207.67 3.49932 209.02 4.05499 210.028 5.04807C210.533 5.5268 210.932 6.1075 211.2 6.75253C211.469 7.39756 211.6 8.09249 211.586 8.79227Z" fill="white"/>
<path d="M55.9409 0C58.7685 12.5586 59.1905 24.1052 55.5007 36.3942C58.7843 31.8509 62.119 27.0626 66.2527 23.1756C71.4056 18.3331 77.5703 14.5003 83.7873 11.1095C69.6774 18.8367 58.1811 10.665 55.9409 0Z" fill="white"/>
<path d="M67.6866 6.80505C68.1515 6.80603 68.6057 6.94648 68.9919 7.20867C69.378 7.47086 69.6787 7.84302 69.856 8.27814C70.0333 8.71326 70.0793 9.19183 69.9881 9.65338C69.8969 10.1149 69.6726 10.5388 69.3436 10.8713C69.0146 11.2039 68.5956 11.4303 68.1395 11.5219C67.6835 11.6136 67.2109 11.5663 66.7813 11.3861C66.3518 11.2059 65.9847 10.9009 65.7263 10.5096C65.4679 10.1183 65.3299 9.6582 65.3297 9.1875C65.3303 8.5552 65.5789 7.94903 66.0209 7.50227C66.4629 7.05551 67.062 6.80473 67.6866 6.80505Z" fill="white"/>
</g>
<defs>
<clipPath id="clip0_49_423">
<rect width="215" height="105" fill="white"/>
</clipPath>
</defs>
</svg>
