<svg width="120" height="140" viewBox="0 0 120 140" fill="none" xmlns="http://www.w3.org/2000/svg">
<g clip-path="url(#clip0_2201_4583)">
<path d="M102.243 55.3194C103.002 55.1837 103.77 55.1011 104.54 55.0724C109.244 55.2425 111.597 58.4013 110.412 62.9977C109.167 67.8209 106.459 71.8058 103.053 75.3209C102.147 76.1986 101.547 77.3459 101.34 78.5931C97.9508 97.6592 87.7905 111.193 69.3119 117.831C68.8713 117.948 68.4719 118.186 68.1586 118.519C67.8454 118.851 67.6307 119.265 67.5386 119.714C67.1312 121.201 66.5846 122.647 65.9064 124.031C64.6973 126.461 62.6419 127.704 59.9054 127.704C57.1689 127.704 55.1013 126.611 53.8318 124.152C53.3165 123.287 52.9283 122.351 52.6791 121.374C52.2519 118.985 50.7971 118.029 48.6086 117.163C31.4801 110.391 21.9002 97.404 18.5148 79.5003C18.1642 77.6536 17.5556 76.1633 16.1974 74.7783C12.8161 71.332 10.2166 67.3268 9.18485 62.5158C8.22162 58.0287 11.075 54.6634 15.6332 55.1412C17.5476 55.3437 17.5838 54.6836 17.733 53.1933C18.4584 45.9848 20.0665 38.9869 23.5124 32.5398C29.9607 20.4676 40.4393 14.5307 53.6988 13.3158C61.7593 12.5747 69.7915 12.9108 77.4772 15.8712C90.0031 20.6863 96.8223 30.3732 100.196 42.9678C101.256 47.0256 101.788 51.1563 102.243 55.3194ZM59.8691 16.3409C59.2001 16.3409 58.527 16.3409 57.854 16.3409C48.9875 16.5758 40.7255 18.6169 33.8499 24.6024C30.2227 27.7733 27.1879 31.3249 26.5149 36.468C25.6666 42.4743 25.8629 48.5829 27.0952 54.5216C27.6982 57.0922 27.4637 59.7895 26.4262 62.2161C25.1527 65.1805 24.008 68.1975 22.5692 71.085C21.3659 73.4869 21.0365 76.2361 21.6382 78.8564C25.3984 97.7969 36.0423 110.42 54.7829 115.741C58.4216 116.759 62.2781 116.676 65.8701 115.502C84.4616 109.743 94.8072 96.8411 98.2087 77.8723C98.6128 75.8354 98.3366 73.7214 97.4228 71.8584C95.9397 68.6997 94.6621 65.4437 93.2918 62.2323C92.2435 59.9546 91.9606 57.3962 92.4858 54.9428C93.3482 51.0551 93.6344 47.1107 93.7835 43.1257C94.1865 32.4223 88.9472 25.307 79.8953 20.5486C73.6283 17.2805 66.8575 16.264 59.8691 16.3409ZM102.251 70.8541C103.984 69.6999 106.624 65.1845 107.333 62.1432C107.93 59.5919 106.386 58.0084 103.754 58.4296C102.823 58.5794 102.271 58.9156 102.392 59.9766C102.803 63.5849 102.307 67.2094 102.251 70.8541ZM17.2736 71.1457C17.2736 67.0312 17.2736 63.4269 17.2736 59.8065C17.2736 59.4015 17.3743 58.9277 16.9471 58.7252C15.7138 58.138 14.5289 58.3203 13.3199 58.9318C12.2438 59.4825 12.0101 60.3087 12.2519 61.4345C13.0056 64.9658 14.7708 67.9626 17.2736 71.1255V71.1457ZM55.4963 119.337C56.4917 123.257 57.7573 124.634 60.0827 124.509C62.2349 124.391 63.593 122.63 64.0082 119.366C61.1893 119.851 58.3069 119.828 55.4963 119.297V119.337Z" fill="#271C19"/>
<path d="M59.8701 16.3408C66.8585 16.2639 73.6293 17.2803 79.9003 20.5727C88.9603 25.3271 94.1875 32.4465 93.7885 43.1499C93.6394 47.1348 93.3532 51.0792 92.4908 54.9669C91.9656 57.4203 92.2485 59.9787 93.2968 62.2564C94.6671 65.4678 95.9447 68.736 97.4278 71.8826C98.3416 73.7456 98.6178 75.8596 98.2137 77.8964C94.8122 96.8653 84.4666 109.768 65.8751 115.526C62.2831 116.7 58.4266 116.783 54.7879 115.765C36.0473 110.444 25.4034 97.821 21.6432 78.8805C21.0415 76.2602 21.3709 73.511 22.5742 71.1091C23.9969 68.2217 25.1576 65.2046 26.4312 62.2402C27.4687 59.8137 27.7032 57.1164 27.1002 54.5458C25.8656 48.6005 25.6692 42.4848 26.5199 36.4719C27.1929 31.3288 30.2115 27.7772 33.8549 24.6063C40.7304 18.6208 48.9965 16.5797 57.859 16.3448C58.528 16.3286 59.201 16.3408 59.8701 16.3408ZM82.0968 101.85C81.6252 100.575 80.7184 101.041 79.9849 101.64C76.9945 104.021 73.7542 106.01 70.5018 107.986C69.8408 108.391 68.9381 108.865 69.4015 109.832C69.865 110.8 70.784 110.367 71.5054 110.067C75.0261 108.612 78.2522 106.521 81.0248 103.9C81.3369 103.653 81.5937 103.343 81.7785 102.99C81.9632 102.637 82.0716 102.249 82.0968 101.85ZM50.399 109.27C50.2539 109.059 50.129 108.703 49.8791 108.541C46.2519 106.111 42.5159 103.896 39.0539 101.251C38.8936 101.121 38.6914 101.053 38.4853 101.062C38.2792 101.07 38.0831 101.153 37.9335 101.296C37.7529 101.453 37.6341 101.67 37.5987 101.908C37.5632 102.145 37.6134 102.388 37.7401 102.592C37.9518 103.013 38.2233 103.402 38.5461 103.746C41.3951 106.509 44.7514 108.689 48.4283 110.165C49.2182 110.489 50.1653 110.764 50.399 109.27Z" fill="#FAEADC"/>
<path d="M102.252 70.8542C102.308 67.2095 102.804 63.6052 102.393 59.9767C102.272 58.9157 102.824 58.5795 103.755 58.4297C106.387 58.0247 107.931 59.592 107.334 62.1433C106.625 65.1482 103.985 69.6798 102.252 70.8542Z" fill="#F3E3D4"/>
<path d="M17.2741 71.1257C14.7713 67.9629 13.0061 64.9661 12.2363 61.4307C11.9945 60.3049 12.2363 59.4788 13.3043 58.928C14.5134 58.3124 15.7224 58.1181 16.9315 58.7215C17.3587 58.924 17.258 59.414 17.258 59.8027C17.2741 63.407 17.2741 67.0112 17.2741 71.1257Z" fill="#F3E3D4"/>
<path d="M55.4961 119.297C58.3092 119.814 61.1916 119.824 64.008 119.325C63.605 122.589 62.2347 124.351 60.0826 124.468C57.7571 124.594 56.4916 123.217 55.4961 119.297Z" fill="#F3E3D4"/>
<path d="M82.0968 101.851C82.0717 102.249 81.9632 102.637 81.7785 102.99C81.5938 103.344 81.3369 103.654 81.0248 103.9C78.2523 106.522 75.0261 108.612 71.5054 110.068C70.784 110.367 69.8933 110.825 69.4016 109.833C68.9099 108.841 69.8409 108.391 70.5018 107.986C73.7542 106.01 76.9945 104.022 79.985 101.64C80.7185 101.057 81.6253 100.575 82.0968 101.851Z" fill="#2D221E"/>
<path d="M50.3977 109.27C50.1639 110.764 49.2168 110.485 48.4148 110.161C44.738 108.685 41.3817 106.505 38.5327 103.742C38.2099 103.398 37.9384 103.01 37.7266 102.588C37.6 102.384 37.5499 102.142 37.5853 101.904C37.6208 101.666 37.7395 101.449 37.9201 101.292C38.0697 101.149 38.2658 101.066 38.472 101.058C38.6781 101.05 38.8801 101.117 39.0405 101.247C42.5025 103.896 46.2425 106.127 49.8656 108.537C50.1276 108.703 50.2526 109.059 50.3977 109.27Z" fill="#2D221E"/>
</g>
<defs>
<clipPath id="clip0_2201_4583">
<rect width="101.715" height="114.7" fill="white" transform="translate(9 13)"/>
</clipPath>
</defs>
</svg>
