<svg width="120" height="140" viewBox="0 0 120 140" fill="none" xmlns="http://www.w3.org/2000/svg">
<g clip-path="url(#clip0_2201_4527)">
<path d="M60.1312 127.688C56.7346 127.781 54.3379 126.125 53.6537 123.149C52.7348 119.255 50.2288 117.81 46.8443 116.36C31.3065 109.705 22.4161 97.5391 18.9425 81.2442C18.3596 78.4953 17.6146 76.1512 15.5256 74.0541C12.575 71.0747 10.4502 67.3789 9.3599 63.3299C8.03606 58.4718 10.4611 55.1602 15.3637 55.2857C17.137 55.3302 17.6309 54.9375 17.7928 53.1117C18.4486 46.3832 19.9749 39.845 23.0152 33.744C27.8733 23.9832 35.537 17.5503 46.1156 14.8176C55.4068 12.3569 65.1833 12.396 74.4546 14.931C88.0735 18.6636 96.0691 28.0843 100.081 41.2457C101.324 45.4384 102.138 49.7464 102.51 54.1035C102.595 55.0387 102.769 55.4031 103.789 55.2573C104.657 55.1343 105.539 55.1617 106.397 55.3383C110.069 56.1156 111.716 58.3705 111.048 62.0789C110.089 67.439 107.052 71.7101 103.356 75.5035C102.506 76.3443 101.952 77.4382 101.777 78.6208C98.4091 97.701 88.1787 111.198 69.6531 117.854C69.1865 117.988 68.7658 118.248 68.4367 118.605C68.1076 118.962 67.8828 119.402 67.7868 119.878C67.4036 121.231 66.9093 122.55 66.3091 123.821C65.0622 126.477 62.9854 127.833 60.1312 127.688ZM59.7264 116.575C60.8883 116.474 61.7506 116.409 62.6291 116.324C63.0991 116.291 63.5659 116.223 64.0258 116.121C81.8389 111.506 93.0247 100.239 97.6561 82.4465C97.8702 81.6642 97.8334 80.8344 97.5508 80.0742C96.6278 77.552 95.8222 74.9853 94.8546 72.4834C91.0531 62.6578 80.0981 60.2247 73.1591 67.9856C71.5101 69.8491 69.4825 71.3394 67.2118 72.3569C64.941 73.3745 62.4793 73.8959 59.9909 73.8863C57.5026 73.8767 55.0449 73.3364 52.782 72.3014C50.5192 71.2664 48.5031 69.7605 46.8686 67.8844C40.7109 60.8401 30.7154 62.2611 26.25 70.4146C24.4727 73.6534 23.6184 77.297 22.3553 80.7705C22.1205 81.4101 22.3554 81.985 22.5011 82.5437C25.2581 93.4218 30.7558 102.519 40.0915 108.988C46.1196 113.138 52.6538 116.004 59.7628 116.575H59.7264ZM17.3474 70.9895C17.2422 67.3135 17.1855 63.7023 17.307 60.0587C17.307 59.5365 17.4608 58.9454 16.7888 58.6863C16.1924 58.4624 15.5516 58.3823 14.9185 58.4527C14.2854 58.523 13.6778 58.7418 13.1452 59.0912C12.1331 59.6782 12.1371 60.5607 12.3355 61.5202C13.0075 65.2205 15.0074 68.1758 17.3474 70.9895ZM102.64 71.536C103.413 70.528 103.879 69.9855 104.259 69.3944C105.915 66.933 107.445 64.4068 107.903 61.4109C108.178 59.5932 107.125 58.6216 105.032 58.4475C103.162 58.2896 102.761 59.1843 102.879 60.8522C103.113 64.2043 102.903 67.5605 102.64 71.536ZM55.767 119.401C56.7629 123.344 57.7912 124.493 60.2203 124.453C62.4874 124.417 63.5522 123.17 64.3942 119.437C61.5295 119.806 58.6285 119.794 55.767 119.401Z" fill="#241916"/>
<path d="M59.7628 116.575C52.6538 116.004 46.1196 113.138 40.128 108.988C30.7923 102.511 25.2945 93.4218 22.5376 82.5437C22.3959 81.981 22.157 81.4102 22.3918 80.7705C23.6549 77.3051 24.5092 73.6655 26.2864 70.4146C30.7397 62.2611 40.7474 60.8401 46.905 67.8844C48.5396 69.7605 50.5557 71.2664 52.8185 72.3014C55.0814 73.3364 57.539 73.8768 60.0274 73.8863C62.5157 73.8959 64.9774 73.3745 67.2482 72.357C69.519 71.3394 71.5466 69.8491 73.1955 67.9856C80.1345 60.2247 91.0896 62.6578 94.891 72.4834C95.8586 74.9853 96.6643 77.552 97.5873 80.0742C97.8698 80.8345 97.9067 81.6642 97.6926 82.4465C93.0612 100.239 81.9037 111.506 64.0623 116.121C63.6023 116.223 63.1355 116.291 62.6656 116.324C61.7952 116.409 60.9409 116.474 59.7628 116.575ZM50.5931 109.518C50.5486 108.79 50.0385 108.433 49.5203 108.122C46.233 106.154 42.9619 104.166 39.9539 101.774C39.3912 101.324 38.6139 100.802 37.9702 101.49C37.3265 102.179 37.9013 102.923 38.375 103.458C40.3344 105.636 42.7554 107.211 45.2897 108.628C46.5042 109.316 47.7188 110.053 49.1357 110.352C49.9049 110.514 50.4798 110.409 50.5931 109.518ZM70.7827 110.425C71.0476 110.378 71.3087 110.312 71.564 110.227C75.3252 108.742 78.7452 106.508 81.6162 103.66C82.183 103.089 82.8631 102.284 82.2316 101.543C81.4583 100.636 80.6122 101.442 79.9604 101.948C77.2467 104.042 74.3896 105.944 71.4102 107.64C70.8897 107.946 70.4014 108.304 69.9527 108.709C69.7884 108.829 69.6679 109 69.6094 109.195C69.551 109.39 69.5578 109.599 69.6288 109.79C69.8475 110.344 70.2928 110.425 70.7827 110.425Z" fill="#FAEADB"/>
<path d="M17.347 70.9897C15.007 68.176 13.0071 65.2207 12.3189 61.5649C12.1327 60.5852 12.1286 59.7027 13.1286 59.1359C13.6612 58.7865 14.2688 58.5678 14.9019 58.4974C15.535 58.4271 16.1758 58.5071 16.7722 58.731C17.4442 58.9901 17.3066 59.5812 17.2904 60.1034C17.1851 63.6984 17.2418 67.3137 17.347 70.9897Z" fill="#F3E3D4"/>
<path d="M102.641 71.5361C102.92 67.5606 103.13 64.2044 102.892 60.8523C102.774 59.1844 103.175 58.2897 105.045 58.4476C107.138 58.6217 108.191 59.5933 107.916 61.411C107.462 64.4069 105.932 66.9331 104.272 69.3945C103.855 69.9856 103.398 70.5281 102.641 71.5361Z" fill="#F3E3D4"/>
<path d="M55.7676 119.401C58.6264 119.793 61.5246 119.806 64.3867 119.437C63.5446 123.17 62.4799 124.417 60.2127 124.453C57.812 124.494 56.7635 123.344 55.7676 119.401Z" fill="#F3E3D4"/>
<path d="M50.5938 109.518C50.4804 110.409 49.9056 110.514 49.1404 110.352C47.7316 110.053 46.5251 109.316 45.2944 108.628C42.7601 107.211 40.3392 105.636 38.3797 103.458C37.902 102.924 37.3231 102.183 37.9749 101.49C38.6267 100.798 39.3959 101.324 39.9586 101.774C42.9666 104.166 46.2377 106.154 49.5251 108.122C50.0392 108.433 50.5493 108.79 50.5938 109.518Z" fill="#2D221E"/>
<path d="M70.7829 110.43C70.2931 110.43 69.8437 110.345 69.6291 109.814C69.558 109.623 69.5512 109.415 69.6097 109.219C69.6681 109.024 69.7887 108.854 69.953 108.733C70.4017 108.329 70.8899 107.971 71.4104 107.665C74.3926 105.969 77.2524 104.067 79.9688 101.972C80.6206 101.454 81.4667 100.649 82.24 101.568C82.8715 102.308 82.1914 103.114 81.6246 103.685C78.7525 106.528 75.3325 108.758 71.5724 110.239C71.3137 110.32 71.05 110.384 70.7829 110.43Z" fill="#2D221E"/>
</g>
<defs>
<clipPath id="clip0_2201_4527">
<rect width="102.207" height="114.7" fill="white" transform="translate(9 13)"/>
</clipPath>
</defs>
</svg>
