<svg width="120" height="140" viewBox="0 0 120 140" fill="none" xmlns="http://www.w3.org/2000/svg">
<g clip-path="url(#clip0_2201_4509)">
<path d="M17.5411 55.3268C18.1729 49.0169 19.234 42.8082 21.6275 36.8912C27.5243 22.3112 38.6011 14.766 53.9992 13.3364C62.3705 12.5628 70.6932 12.984 78.6353 16.1714C89.9753 20.7479 96.5485 29.504 100.076 40.8764C101.369 45.1272 102.202 49.5048 102.559 53.9336C102.636 54.8084 102.583 55.3713 103.871 55.2255C109.504 54.5937 112.437 58.1537 110.792 63.5969C109.433 67.9935 106.981 71.9734 103.664 75.1637C102.621 76.1827 101.948 77.5213 101.753 78.9666C99.4442 92.0603 93.6122 103.097 82.7177 111.103C78.7539 114.016 74.3537 116.282 69.6808 117.818C68.6683 118.154 68.1134 118.669 67.8704 119.685C67.5135 121.192 66.9693 122.648 66.2504 124.019C64.9261 126.534 62.8403 127.745 60.0215 127.696C57.2027 127.648 55.1615 126.404 53.9465 123.816C53.744 123.391 53.3917 122.986 53.3431 122.549C52.9381 118.952 50.423 117.79 47.4139 116.53C31.5014 109.868 22.4375 97.5359 18.9181 80.9228C18.347 78.2255 17.5897 75.9453 15.5242 73.9325C12.916 71.3891 11.1866 68.1531 9.85418 64.7228C6.93818 57.2708 12.0412 54.3507 17.5411 55.3268ZM60.0985 116.482C60.8396 116.445 61.5848 116.445 62.3179 116.356C63.1878 116.262 64.0499 116.107 64.8977 115.89C81.6242 111.245 92.5147 100.679 97.3423 83.936C97.6319 82.9787 97.5494 81.9474 97.1114 81.0483C92.8143 71.2311 80.3768 69.1656 72.86 77.0631C68.4981 81.6477 63.2575 83.5715 56.984 82.4739C53.0474 81.7854 49.9573 79.6956 47.2114 76.8444C39.7837 69.1211 27.2084 71.4174 23.1422 81.1374C22.7392 81.9841 22.6572 82.9483 22.9114 83.8509C25.8557 94.2311 31.3354 102.886 40.3264 109.046C46.288 113.12 52.7761 115.955 60.0985 116.474V116.482ZM102.96 71.142C105.232 68.2422 107.01 65.391 107.82 62.0255C108.435 59.4497 106.572 57.7932 103.972 58.4655C103.324 58.6356 102.915 58.8179 102.927 59.6319C102.984 63.3458 102.96 67.0718 102.96 71.1339V71.142ZM17.3791 70.8504C17.2535 67.4565 17.2819 64.1153 17.294 60.77C17.294 58.5101 16.4152 57.8823 14.216 58.5627C12.349 59.1459 11.8387 60.122 12.4745 62.3333C13.4235 65.5133 15.1031 68.4272 17.3791 70.8423V70.8504ZM55.7893 119.422C56.737 123.18 57.952 124.549 60.2443 124.485C62.4596 124.42 63.7556 122.828 64.3874 119.268C63.0084 119.594 61.5913 119.731 60.1754 119.673C58.7255 119.6 57.2594 119.503 55.7893 119.414V119.422Z" fill="#241916"/>
<path d="M60.0994 116.473C52.777 115.935 46.2888 113.112 40.3354 109.037C31.3363 102.877 25.8566 94.2226 22.9204 83.8424C22.6662 82.9398 22.7482 81.9756 23.1512 81.1289C27.2012 71.4089 39.7927 69.1126 47.2204 76.8359C49.9662 79.6709 53.0564 81.7769 56.993 82.4654C63.2664 83.563 68.5071 81.6554 72.869 77.0546C80.3858 69.1571 92.8233 71.2226 97.1204 81.0398C97.5584 81.9389 97.6409 82.9702 97.3512 83.9275C92.5237 100.67 81.6332 111.237 64.9067 115.882C64.0589 116.098 63.1968 116.254 62.3269 116.348C61.5857 116.437 60.8405 116.437 60.0994 116.473ZM38.8693 101.083C38.3387 101.108 38.0592 101.261 37.8972 101.594C37.5611 102.339 37.9944 102.926 38.4359 103.408C40.3515 105.51 42.6803 107.081 45.1468 108.462C46.4006 109.237 47.7426 109.858 49.1441 110.313C49.6746 110.459 50.2133 110.451 50.5575 109.88C50.9018 109.309 50.4887 108.867 50.1161 108.503C49.8229 108.226 49.4964 107.986 49.1441 107.79C45.9982 106.006 42.9804 104.004 40.1126 101.8C39.7173 101.529 39.3016 101.29 38.8693 101.083ZM82.512 102.096C82.535 101.91 82.4984 101.722 82.4073 101.559C82.3163 101.396 82.1756 101.266 82.0058 101.189C81.4226 100.885 80.9325 101.237 80.5316 101.549C77.4443 103.902 74.2068 106.052 70.8399 107.984C70.2 108.361 69.2523 108.831 69.7748 109.839C70.2972 110.848 71.1761 110.342 71.893 110.046C75.5089 108.588 78.8042 106.436 81.5927 103.712C82.0668 103.287 82.3896 102.72 82.512 102.096Z" fill="#FAEADB"/>
<path d="M102.961 71.1337C102.961 67.0837 102.985 63.3456 102.961 59.6236C102.961 58.8136 103.366 58.6273 104.006 58.4572C106.606 57.7849 108.461 59.4414 107.853 62.0172C107.031 65.3827 105.233 68.2339 102.961 71.1337Z" fill="#F3E3D4"/>
<path d="M17.3796 70.8422C15.1042 68.4282 13.4246 65.5157 12.4751 62.3372C11.8392 60.1259 12.3495 59.1498 14.2166 58.5666C16.4157 57.8862 17.2986 58.514 17.2946 60.7739C17.2824 64.1151 17.2541 67.4483 17.3796 70.8422Z" fill="#F3E3D4"/>
<path d="M55.7891 119.414C57.2592 119.503 58.7253 119.596 60.1914 119.669C61.6073 119.726 63.0244 119.59 64.4034 119.264C63.7716 122.84 62.4756 124.411 60.2602 124.46C57.9517 124.541 56.7368 123.172 55.7891 119.414Z" fill="#F3E3D4"/>
<path d="M38.8692 101.083C39.3016 101.29 39.7173 101.53 40.1126 101.8C42.9803 104.004 45.9981 106.006 49.1441 107.79C49.4964 107.987 49.8229 108.226 50.1161 108.503C50.4887 108.868 50.9261 109.252 50.5575 109.88C50.189 110.508 49.6746 110.459 49.1441 110.313C47.7411 109.859 46.3978 109.237 45.1427 108.463C42.6762 107.082 40.3475 105.51 38.4318 103.408C37.9904 102.926 37.557 102.339 37.8932 101.594C38.043 101.262 38.3387 101.108 38.8692 101.083Z" fill="#2D221E"/>
<path d="M82.512 102.096C82.386 102.724 82.0573 103.293 81.5765 103.716C78.7928 106.439 75.5031 108.591 71.8929 110.05C71.1761 110.346 70.2729 110.86 69.7748 109.844C69.2766 108.827 70.1798 108.365 70.8399 107.989C74.2068 106.056 77.4443 103.907 80.5316 101.553C80.9366 101.242 81.4226 100.889 82.0058 101.193C82.1749 101.27 82.3151 101.4 82.406 101.562C82.497 101.724 82.5341 101.911 82.512 102.096Z" fill="#2D221E"/>
</g>
<defs>
<clipPath id="clip0_2201_4509">
<rect width="102.246" height="114.7" fill="white" transform="translate(9 13)"/>
</clipPath>
</defs>
</svg>
