<svg width="120" height="140" viewBox="0 0 120 140" fill="none" xmlns="http://www.w3.org/2000/svg">
<g clip-path="url(#clip0_2201_4547)">
<path d="M15.7657 55.1727C18.195 55.9825 17.6767 53.869 17.8184 52.6301C18.5796 45.9657 20.1141 39.5158 23.1427 33.4952C29.0621 21.7252 38.836 15.3563 51.6911 13.6558C60.38 12.4937 69.0607 12.7488 77.4094 15.8017C89.8273 20.3445 96.8075 29.7378 100.35 42.0706C101.469 45.8814 102.172 49.8018 102.448 53.7637C102.524 54.9784 102.885 55.2861 104.14 55.2375C109.845 55.0148 112.408 58.347 110.703 63.7765C109.242 68.4246 106.577 72.3601 103.099 75.749C102.46 76.3232 102.041 77.1019 101.913 77.9516C100.217 88.3328 96.3743 97.7302 89.0742 105.484C83.7811 111.086 77.1858 115.293 69.8746 117.732C69.3358 117.872 68.847 118.16 68.4635 118.564C68.08 118.967 67.8171 119.47 67.7044 120.015C67.3474 121.309 66.8829 122.572 66.3156 123.789C65.1009 126.335 63.0765 127.651 60.2423 127.692C57.319 127.736 55.2096 126.477 53.8978 123.866C53.6371 123.472 53.4429 123.039 53.3228 122.582C52.918 119.1 50.5372 117.869 47.5694 116.634C31.3416 109.881 22.1669 97.3496 18.7659 80.3687C18.2881 77.988 17.5107 76.0567 15.7697 74.2712C12.6631 71.1591 10.4362 67.2796 9.31582 63.0275C8.07687 58.2256 10.5629 55.112 15.7657 55.1727ZM59.7767 116.525C61.2181 116.387 62.457 116.424 63.6231 116.12C80.4785 111.986 91.6897 101.755 96.9451 85.1261C97.1591 84.5597 97.1862 83.9396 97.0221 83.3568C94.5928 75.5263 92.3052 67.6553 89.7342 59.8734C88.3171 55.5695 85.0537 53.0916 80.5028 52.9337C76.292 52.788 72.9679 54.5978 70.9799 58.513C68.7125 62.9668 64.7041 64.4041 60.0844 64.4203C55.4647 64.4365 51.4846 62.8777 49.1525 58.5009C48.5415 57.2249 47.6682 56.0922 46.5896 55.1768C40.6985 50.5003 32.4874 53.1847 30.1269 60.6427C27.7948 68.0116 25.5922 75.421 23.3127 82.8061C23.0288 83.6323 23.0174 84.5279 23.2803 85.361C26.3858 95.1592 31.8153 103.305 40.411 109.124C46.3467 113.148 52.7641 115.958 59.7767 116.525ZM59.9468 30.5314C62.4004 30.4099 64.6799 29.9281 66.599 28.3734C68.9231 26.4866 68.9636 23.9925 66.7286 22.0045C63.3721 19.0205 56.8292 19.0124 53.4362 22.0045C51.2984 23.8791 51.2903 26.3813 53.4362 28.2681C55.327 29.8795 57.6146 30.3532 59.9468 30.5314ZM17.3164 71.1536C17.3164 67.1533 17.3164 63.4608 17.3164 59.8168C17.3164 59.1163 17.0896 58.6466 16.3608 58.509C15.7355 58.3602 15.084 58.3596 14.4584 58.5072C13.8327 58.6548 13.2502 58.9466 12.7573 59.3593C11.8221 60.169 12.146 61.2501 12.4051 62.1935C13.3201 65.4366 14.9964 68.3234 17.3164 71.1536ZM102.84 71.275C105.193 68.1412 106.986 65.3434 107.788 62.0153C108.027 61.0233 108.347 60.0111 107.347 59.258C106.816 58.8431 106.192 58.5641 105.528 58.4456C104.865 58.327 104.183 58.3724 103.541 58.5778C103.341 58.61 103.16 58.7135 103.03 58.869C102.901 59.0246 102.832 59.2217 102.836 59.424C102.844 63.2056 102.84 66.9913 102.84 71.275ZM64.6029 119.404C62.9834 119.521 61.7971 119.671 60.5986 119.679C59.3273 119.679 58.0519 119.558 56.7806 119.489C56.3312 119.465 55.8534 119.282 55.8493 120.084C55.8493 122.331 58.2341 124.611 60.4974 124.404C63.4126 124.145 63.5867 121.667 64.6029 119.404Z" fill="#241916"/>
<path d="M59.7768 116.525C52.7642 115.958 46.3468 113.148 40.4273 109.144C31.8316 103.326 26.4021 95.1796 23.2966 85.3814C23.0337 84.5483 23.0451 83.6528 23.329 82.8266C25.6085 75.4415 27.8111 68.0321 30.1432 60.6632C32.5037 53.2052 40.7148 50.541 46.6059 55.1972C47.6845 56.1127 48.5578 57.2454 49.1688 58.5213C51.4848 62.8981 55.4324 64.4569 60.1007 64.4407C64.769 64.4245 68.7288 62.9913 70.9962 58.5335C72.9842 54.6182 76.3083 52.8084 80.5191 52.9541C85.07 53.112 88.3334 55.59 89.7505 59.8939C92.3215 67.6717 94.6091 75.5427 97.0385 83.3772C97.2025 83.9601 97.1754 84.5802 96.9614 85.1466C91.6979 101.775 80.4948 112.007 63.6394 116.141C62.4571 116.428 61.2182 116.388 59.7768 116.525ZM49.2174 110.306C49.8531 110.306 50.4766 110.359 50.6183 109.671C50.7883 108.861 50.1324 108.456 49.5737 108.104C46.3589 106.136 43.0955 104.229 40.1642 101.86C39.5487 101.362 38.7268 100.694 38.0182 101.431C37.2085 102.289 38.0547 103.075 38.6296 103.662C41.4031 106.496 44.7474 108.472 48.3469 110.092C48.6288 110.193 48.9206 110.265 49.2174 110.306ZM70.9516 110.306C71.2564 110.274 71.5565 110.207 71.8464 110.108C75.4134 108.488 78.7659 106.537 81.5192 103.711C82.0698 103.148 83.0294 102.395 82.2196 101.496C81.4098 100.597 80.5757 101.435 79.94 101.941C77.1718 104.067 74.2606 106.001 71.227 107.727C70.8296 107.97 70.4494 108.241 70.0893 108.537C69.8933 108.673 69.7474 108.869 69.6742 109.096C69.6011 109.323 69.6046 109.567 69.6844 109.792C69.8666 110.407 70.3929 110.278 70.9354 110.31L70.9516 110.306Z" fill="#FAEADB"/>
<path d="M59.9474 30.5317C57.6153 30.3536 55.3276 29.8799 53.4692 28.2522C51.3031 26.3655 51.3112 23.8633 53.4692 21.9887C56.8622 19.0128 63.4051 19.0209 66.7616 21.9887C68.9966 23.9766 68.9561 26.4707 66.6321 28.3575C64.6805 29.9285 62.401 30.4103 59.9474 30.5317Z" fill="#F3E3D4"/>
<path d="M64.6033 119.404C63.5708 121.667 63.3886 124.145 60.4977 124.404C58.2344 124.611 55.8415 122.331 55.8496 120.084C55.8496 119.274 56.3315 119.465 56.7809 119.489C58.0522 119.558 59.3276 119.683 60.5989 119.679C61.8136 119.667 63.008 119.521 64.6033 119.404Z" fill="#F3E3D4"/>
<path d="M49.2164 110.306C48.9127 110.266 48.6141 110.194 48.3256 110.091C44.7464 108.472 41.4021 106.488 38.6084 103.662C38.0334 103.075 37.167 102.289 37.997 101.431C38.7055 100.694 39.5274 101.362 40.1429 101.86C43.0904 104.229 46.3376 106.136 49.5524 108.103C50.1111 108.444 50.7671 108.861 50.597 109.67C50.4594 110.355 49.8358 110.31 49.2164 110.306Z" fill="#2D221E"/>
<path d="M70.9351 110.31C70.3925 110.278 69.8622 110.407 69.6719 109.808C69.5922 109.583 69.5886 109.339 69.6618 109.112C69.735 108.885 69.8808 108.688 70.0768 108.553C70.4369 108.257 70.8171 107.986 71.2145 107.743C74.2481 106.016 77.1594 104.083 79.9277 101.957C80.5634 101.451 81.4055 100.613 82.2071 101.512C83.0088 102.411 82.0573 103.164 81.5067 103.727C78.7535 106.561 75.4011 108.512 71.834 110.124C71.5424 110.219 71.2408 110.282 70.9351 110.31Z" fill="#2D221E"/>
</g>
<defs>
<clipPath id="clip0_2201_4547">
<rect width="102.225" height="114.7" fill="white" transform="translate(9 13)"/>
</clipPath>
</defs>
</svg>
