<svg width="120" height="140" viewBox="0 0 120 140" fill="none" xmlns="http://www.w3.org/2000/svg">
<g clip-path="url(#clip0_2201_4566)">
<path d="M15.6662 55.2326C17.2534 55.7507 17.5589 54.8277 17.7035 53.2693C18.3505 46.1853 20.0059 39.3523 23.2848 32.9969C27.8898 24.0913 34.9178 18.0193 44.5255 15.1857C53.8172 12.4355 63.6732 12.2607 73.0552 14.6797C87.2437 18.2298 95.4972 27.9329 99.5356 41.7001C100.653 45.5081 101.38 49.4213 101.705 53.3786C101.818 54.7306 102.067 55.6616 103.775 55.2568C104.504 55.1382 105.25 55.188 105.957 55.4026C109.633 56.3336 111.152 58.9284 110.188 62.7618C108.938 67.7125 106.246 71.8455 102.698 75.4239C101.838 76.243 101.273 77.3266 101.091 78.5045C97.7273 97.6393 87.5812 111.237 69.0811 117.887C68.6684 117.991 68.2932 118.21 67.9982 118.518C67.7033 118.827 67.5006 119.213 67.4135 119.632C67.072 120.928 66.6258 122.194 66.0794 123.417C64.8539 126.178 62.8287 127.708 59.6784 127.688C56.528 127.667 54.101 126.251 53.4138 123.344C52.4173 119.142 49.6165 117.677 46.0443 116.098C30.3248 109.079 21.6775 96.3966 18.5151 79.6662C18.1575 77.7718 17.5427 76.2578 16.1363 74.8086C12.8855 71.4609 10.346 67.5587 9.27711 62.9156C8.15601 58.135 10.5831 55.2164 15.6662 55.2326ZM59.6542 116.454C60.9271 116.463 62.1976 116.345 63.4475 116.102C78.1865 112.459 88.6782 103.804 94.7056 89.685C96.1642 86.2726 96.8715 82.9775 95.1517 79.476C94.8207 78.6668 94.552 77.8332 94.348 76.9825C92.6202 71.3153 90.9767 65.6481 89.1243 60.0416C87.7058 55.7143 84.5595 53.2126 80.051 53.0102C75.7956 52.8159 72.4885 54.6294 70.4593 58.6491C68.2653 62.9926 64.2954 64.4701 59.7869 64.4903C55.2784 64.5106 51.1998 63.0897 48.9134 58.6693C47.9876 56.7123 46.4543 55.1123 44.5455 54.1112C38.711 51.1603 32.1411 53.9534 30.0797 60.4018C27.6687 67.9432 25.4467 75.5413 23.1121 83.107C22.8811 83.8046 22.8811 84.5589 23.1121 85.2565C26.5959 96.6962 33.2742 105.606 43.7418 111.407C48.7205 114.139 53.88 116.333 59.6542 116.454ZM59.6542 40.6759C65.1713 40.6759 70.4232 36.883 72.1431 31.6327C73.3204 28.0422 72.4484 25.1559 69.5191 22.8729C64.3516 18.8734 55.4069 18.7884 50.155 22.6948C47.0529 24.9981 46.1367 27.8357 47.2699 31.5437C48.8973 36.8384 54.0769 40.6679 59.6381 40.6759H59.6542ZM102.164 71.129C103.655 69.4297 104.892 67.5206 105.836 65.4618C106.551 63.956 107.315 62.4097 107.186 60.6771C107.038 58.6531 105.402 58.6531 103.952 58.4912C102.376 58.3252 102.107 59.2441 102.139 60.6123C102.196 64.0086 102.147 67.4453 102.147 71.129H102.164ZM17.2534 71.2626C17.2534 67.0972 17.2534 63.3771 17.2534 59.657C17.2534 59.2198 17.1931 58.8474 16.7471 58.6936C16.1215 58.4603 15.449 58.3837 14.7875 58.4704C14.126 58.5572 13.4953 58.8046 12.9499 59.1915C11.9051 59.8918 12.0779 60.8633 12.319 61.8834C13.1065 65.2797 14.9067 68.1457 17.2373 71.2626H17.2534ZM63.994 119.365C61.0526 119.826 58.2799 119.636 55.4913 119.478C56.1945 123.024 57.3397 124.393 59.5658 124.445C61.9205 124.498 63.0778 123.227 63.9779 119.365H63.994Z" fill="#241916"/>
<path d="M59.6536 116.454C53.8793 116.333 48.7198 114.139 43.7894 111.407C33.3218 105.606 26.6434 96.6961 23.1596 85.2565C22.9286 84.5589 22.9286 83.8046 23.1596 83.107C25.4942 75.5413 27.7244 67.9432 30.1273 60.4018C32.1847 53.9533 38.7545 51.1602 44.5931 54.1112C46.5019 55.1122 48.0351 56.7123 48.9609 58.6693C51.2473 63.0897 55.2656 64.5105 59.8344 64.4903C64.4031 64.47 68.3129 62.9925 70.5069 58.649C72.5361 54.6253 75.8431 52.8159 80.0985 53.0102C84.607 53.2126 87.7332 55.7142 89.1718 60.0415C91.0121 65.6561 92.6556 71.3314 94.3955 76.9824C94.5995 77.8332 94.8682 78.6668 95.1992 79.476C96.919 82.9775 96.2118 86.2725 94.7532 89.685C88.7258 103.804 78.2341 112.479 63.495 116.102C62.2294 116.348 60.9425 116.466 59.6536 116.454ZM48.8725 110.354C49.3828 110.354 49.9896 110.54 50.2066 109.82C50.4236 109.099 50.0257 108.666 49.4793 108.322C46.0758 106.201 42.6482 104.132 39.4818 101.635C38.9394 101.206 38.2764 100.902 37.6897 101.554C37.103 102.205 37.6495 102.837 38.0594 103.323C40.181 105.82 42.9214 107.5 45.7503 109.038C46.7388 109.544 47.7112 110.184 48.8725 110.354ZM70.6275 110.322C70.9622 110.252 71.2903 110.153 71.6079 110.026C74.9774 108.557 78.0731 106.518 80.7616 103.999C81.1315 103.611 81.4539 103.18 81.7219 102.716C81.8583 102.54 81.9284 102.322 81.9197 102.099C81.9109 101.877 81.824 101.664 81.6743 101.5C81.5246 101.336 81.3219 101.231 81.1025 101.204C80.883 101.177 80.6611 101.229 80.4763 101.351C79.997 101.573 79.5418 101.845 79.118 102.161C76.6402 104.1 74.0284 105.858 71.3025 107.423C70.6791 107.807 70.0806 108.23 69.5104 108.69C69.3359 108.798 69.2017 108.961 69.129 109.154C69.0562 109.346 69.0491 109.558 69.1086 109.755C69.3055 110.257 69.7435 110.407 70.6275 110.306V110.322Z" fill="#FAEADB"/>
<path d="M59.6379 40.676C54.0766 40.676 48.885 36.8385 47.2535 31.5437C46.1083 27.8357 47.0366 24.9981 50.1387 22.6948C55.3906 18.7885 64.3353 18.8735 69.5028 22.8729C72.4321 25.1398 73.3041 28.0422 72.1267 31.6328C70.4069 36.883 65.155 40.6841 59.6379 40.676Z" fill="#FAEADB"/>
<path d="M102.148 71.1291C102.148 67.4252 102.196 64.0087 102.124 60.6044C102.091 59.2361 102.361 58.3172 103.936 58.4832C105.386 58.6289 107.022 58.637 107.171 60.6691C107.299 62.4017 106.536 63.948 105.82 65.4539C104.876 67.5154 103.639 69.4273 102.148 71.1291Z" fill="#F3E3D4"/>
<path d="M63.9771 119.365C63.077 123.227 61.9197 124.498 59.557 124.445C57.3309 124.393 56.1856 123.025 55.4824 119.479C58.2631 119.636 61.0357 119.827 63.9771 119.365Z" fill="#F3E3D4"/>
<path d="M48.87 110.354C47.7128 110.2 46.7404 109.577 45.7519 109.039C42.9391 107.5 40.1826 105.8 38.0609 103.323C37.6591 102.837 37.0725 102.25 37.6913 101.554C38.3101 100.858 38.9409 101.206 39.4834 101.635C42.6418 104.132 46.0774 106.201 49.4808 108.322C50.0273 108.666 50.4171 109.132 50.2082 109.82C49.9992 110.508 49.3844 110.33 48.87 110.354Z" fill="#2D221E"/>
<path d="M70.6288 110.306C69.7448 110.407 69.3068 110.257 69.1219 109.743C69.0625 109.546 69.0696 109.334 69.1423 109.142C69.2151 108.949 69.3492 108.786 69.5238 108.678C70.094 108.218 70.6925 107.795 71.3159 107.411C74.0418 105.846 76.6536 104.088 79.1314 102.149C79.5552 101.832 80.0104 101.561 80.4896 101.339C80.6744 101.217 80.8964 101.165 81.1158 101.192C81.3353 101.219 81.5379 101.324 81.6876 101.488C81.8373 101.652 81.9243 101.865 81.933 102.087C81.9417 102.31 81.8716 102.528 81.7352 102.703C81.4673 103.168 81.1449 103.599 80.7749 103.987C78.0865 106.506 74.9908 108.545 71.6213 110.014C71.2996 110.141 70.9675 110.238 70.6288 110.306Z" fill="#2D221E"/>
</g>
<defs>
<clipPath id="clip0_2201_4566">
<rect width="101.465" height="114.7" fill="white" transform="translate(9 13)"/>
</clipPath>
</defs>
</svg>
