<svg width="120" height="140" viewBox="0 0 120 140" fill="none" xmlns="http://www.w3.org/2000/svg">
<g clip-path="url(#clip0_2201_4311)">
<path d="M79.9144 117.513C76.5679 120.689 73.0212 123.221 69.0286 125.133C65.4485 126.85 61.779 128.064 57.7214 127.602C54.7014 127.251 51.9817 126.062 49.3059 124.747C45.9822 123.112 43.008 120.951 40.2795 118.544C40.0021 118.544 39.9564 118.698 39.8774 118.851C39.0926 120.396 38.4236 120.635 36.9927 119.782C35.346 118.774 33.7825 117.637 32.317 116.381C24.3739 109.737 19.1347 101.339 16.1235 91.4767C14.1009 84.8223 13.2967 78.0081 13.065 71.0816C12.8613 64.9364 13.0755 58.8122 13.9885 52.7179C15.1438 45.0083 17.3526 37.6674 21.5805 31.0534C26.5318 23.3105 33.5039 18.1695 42.2196 15.3656C48.9372 13.2042 55.8602 12.8302 62.8482 13.0585C67.961 13.2341 72.9615 14.0171 77.8074 15.6781C87.1142 18.8689 94.1525 24.7695 98.9224 33.3798C102.545 39.9113 104.45 46.9766 105.356 54.3543C105.864 58.2381 106.128 62.1501 106.144 66.0671C106.111 75.2094 105.489 84.278 102.516 93.0481C98.9136 103.676 92.7333 112.362 83.5541 118.858C81.642 120.212 80.7185 119.906 79.9144 117.513ZM59.8617 70.3811C57.7567 73.1655 55.226 75.6008 52.3627 77.5973C47.6221 80.9069 42.404 83.2333 36.9611 85.0628C34.5715 85.8652 33.065 87.3734 32.4189 89.7315C32.1521 90.7511 32.0187 91.801 32.0221 92.855C31.9852 96.9512 33.0913 100.823 34.2747 104.684C34.6347 105.858 35.0069 107.017 35.6793 108.067C40.3181 115.266 46.5265 120.547 54.5803 123.574C58.0058 124.863 61.405 124.789 64.8393 123.462C71.1601 121.023 76.387 117.132 80.6571 111.914C83.5313 108.402 85.9244 104.65 86.8023 100.071C87.4256 96.7879 88.1367 93.5362 87.408 90.1774C86.869 87.7018 85.5012 85.9758 83.0519 85.1418C81.3962 84.5765 79.7423 83.9936 78.1252 83.3246C73.4127 81.3704 68.9267 79.0142 64.9569 75.7519C63.0572 74.1875 61.4296 72.3686 59.8617 70.3811ZM66.7285 30.5074C66.7888 30.3651 66.866 30.2307 66.9585 30.107C67.4115 29.6962 68.4228 29.7383 68.3473 28.9851C68.2701 28.195 67.1569 28.8447 66.7531 28.2354C66.8988 27.6876 67.6977 27.8948 67.8504 27.268C67.048 27.0134 66.0104 27.0204 66.128 25.6878C66.1947 24.9117 65.5855 24.0654 66.43 23.2297H64.4442C64.5689 22.4343 65.3221 22.3202 65.5995 21.6811C64.6918 21.7812 63.9737 21.5283 63.4417 20.8541C63.4891 20.3274 64.1967 20.2835 64.2054 19.6444C63.5558 19.3073 62.9764 18.7051 62.0441 19.079C61.498 19.2985 61.0556 19.144 60.7325 18.5698C60.5429 18.2292 59.0557 18.2328 59.0083 18.5435C58.8064 19.9113 57.6862 19.4705 56.9014 19.6075C57.1314 20.7997 57.1314 20.7997 55.6074 21.0736C55.6899 21.2878 55.8567 21.509 55.8392 21.7144C55.7865 22.3447 55.3581 22.9171 55.9533 23.6019C56.2114 23.8986 55.5828 23.9987 55.251 24.076C54.9753 24.1409 54.3731 23.9355 54.5346 24.4658C54.7102 25.0697 54.3169 25.226 54.1045 25.6088C53.5321 26.6429 52.3943 27.6227 53.2494 28.9992C53.6199 29.5979 53.3354 29.9367 53.0457 30.4213C52.67 31.0499 52.684 31.8734 51.9923 32.3703C51.5094 32.7214 51.4655 33.1217 52.131 33.3938C52.3364 33.4799 52.8719 33.522 52.4962 33.9013C51.6183 34.7915 52.6542 35.2655 52.8473 35.8642C52.4224 36.3365 51.7043 36.1469 51.3145 36.642C52.3171 37.9571 51.6165 39.1809 51.0336 40.3959C51.3163 40.4942 51.4761 40.5574 51.6411 40.6031C51.8062 40.6487 51.9923 40.661 52.1538 40.7172C53.1581 41.0561 52.979 41.1386 52.6928 42.171C52.4154 43.1735 51.3865 42.7855 51.0301 43.3544C51.3479 44.3973 52.4172 43.997 52.9263 44.5465C52.6981 44.8977 52.1011 44.7221 51.9642 45.2296C51.9185 45.7282 54.1097 45.7387 52.3013 46.6869C52.1433 46.7694 52.4909 46.8308 52.6033 46.8624C52.8614 46.9537 53.2073 46.9327 53.1089 47.3681C52.7139 47.7614 51.8922 47.5437 51.7377 48.4216C52.6261 48.7095 53.1142 49.2819 52.6911 50.2774C52.5664 50.5724 52.8666 50.6461 52.9369 50.8234C53.1493 51.3379 54.4188 51.9419 52.8789 52.4036C52.8333 52.4177 52.8157 52.6916 52.8228 52.6934C54.0658 53.0059 52.7859 54.6949 54.0869 55.0145C54.3029 55.0689 54.0869 55.3938 53.9113 55.55C53.6954 55.7467 53.1335 55.55 53.2652 56.1926C53.4682 56.2737 53.6757 56.3429 53.8867 56.3998C55.5003 56.7509 55.6425 57.1021 54.6136 58.3733C54.4539 58.5717 54.2871 58.8175 54.5452 58.9404C55.1966 59.2476 55.0385 59.5795 54.6927 59.9939C54.5364 60.187 54.5048 60.5469 54.6927 60.633C55.5705 61.0596 55.6583 62.5643 57.1297 62.2781C57.9303 62.1236 58.0567 62.4713 57.7337 63.3316C57.6546 63.544 57.5019 63.7267 57.7337 64.1147C59.4596 63.6529 61.2733 63.4124 63.1098 64.1147C63.0923 63.7811 63.1098 63.6564 63.0747 63.5581C62.8991 63.1543 62.2565 62.9137 62.548 62.3694C62.8816 61.7496 63.4768 62.1394 63.9667 62.1429C64.1422 62.1429 64.3178 62.1745 64.4548 61.9814C64.2318 61.4845 65.1571 61.1439 64.676 60.5944C64.1194 59.9605 64.7603 59.8552 65.0851 59.5901C65.4362 59.3004 66.0244 59.5707 66.3247 59.1019C66.2509 58.4488 64.9973 58.4962 65.4275 57.6429C65.9542 56.6 65.9542 55.1971 67.4132 54.8178C67.1095 54.3736 66.43 54.393 66.7109 53.6678C67.1446 52.5196 66.5722 51.0166 67.9593 50.1931C68.2156 50.0421 68.0576 49.8279 67.94 49.612C67.5695 48.9395 68.3421 48.2249 67.9927 47.6209C67.2693 46.3673 69.0461 47.1943 68.9987 46.3269C68.9741 45.9213 70.1119 45.5017 69.0514 44.9223C68.9618 44.8749 68.8477 44.7046 68.8758 44.6414C69.4166 43.2999 67.7995 42.3483 68.2279 41.035C67.2745 39.4548 68.0295 38.1028 68.8266 36.772C68.9144 36.6245 69.3534 36.556 68.9741 36.3576C68.242 35.9784 68.1085 35.1145 67.3764 34.7774C67.9154 34.1805 68.695 34.2402 69.1638 33.5185C68.393 33.3324 67.9347 32.7267 67.3623 32.2895C67.494 31.7628 68.1717 31.919 68.3965 31.5012C68.0892 30.7374 67.1762 31.0991 66.7285 30.5074Z" fill="#251A17"/>
<path d="M59.8632 70.3799C61.4311 72.3674 63.0587 74.1864 64.955 75.7508C68.923 79.013 73.409 81.3693 78.1233 83.3235C79.7404 83.9924 81.3943 84.5753 83.05 85.1407C85.5081 85.9747 86.8671 87.7006 87.4061 90.1763C88.1347 93.5351 87.4236 96.7867 86.8003 100.07C85.9224 104.649 83.5328 108.399 80.6551 111.913C76.3851 117.131 71.1529 121.022 64.8373 123.46C61.403 124.788 58.0039 124.865 54.5783 123.573C46.5246 120.546 40.3162 115.266 35.6774 108.066C35.0014 107.012 34.6239 105.857 34.2728 104.682C33.0894 100.82 31.9903 96.9571 32.0201 92.8538C32.0168 91.7999 32.1502 90.7499 32.4169 89.7303C33.0631 87.3723 34.5695 85.8676 36.9591 85.0617C42.402 83.2321 47.6202 80.9057 52.3608 77.5961C55.2253 75.5999 57.7572 73.1646 59.8632 70.3799ZM59.7912 116.985C60.1652 117.034 60.7323 116.901 61.2836 116.704C63.28 116.002 65.1464 112.666 64.7179 110.559C64.5617 109.771 63.9173 109.542 63.3133 110.094C62.5952 110.747 62.3775 111.674 62.0193 112.538C61.5663 113.618 60.9009 114.469 59.5928 114.469C58.2848 114.469 57.6158 113.669 57.1663 112.557C56.8818 111.856 56.5606 111.17 56.2042 110.503C55.9461 110.018 55.5528 109.614 54.94 109.867C54.4484 110.071 54.3431 110.559 54.3799 111.049C54.4879 112.271 54.8523 113.457 55.4492 114.529C56.3253 116.165 57.7124 116.975 59.7912 116.985ZM72.7295 101.139C74.2255 101.102 75.8145 100.822 77.205 99.8365C78.2725 99.0833 78.8871 98.065 78.9327 96.7551C78.959 95.9492 78.4358 95.5928 77.6773 95.8632C77.4149 95.9874 77.1624 96.1318 76.9223 96.2951C74.5204 97.5944 72.0062 98.4021 69.225 98.158C68.9326 98.1324 68.6382 98.1389 68.3471 98.1773C67.8081 98.2493 67.2708 98.4161 67.1462 99.0183C67.0127 99.6486 67.478 99.9647 67.9784 100.191C69.441 100.85 70.9755 101.141 72.7295 101.141V101.139ZM81.3539 91.4106C81.2363 90.9488 80.8518 90.7644 80.3391 90.7381C79.0872 90.6731 77.9214 91.0735 76.7275 91.3614C73.7762 92.0903 70.9295 93.1912 68.2558 94.6377C67.5219 95.0049 66.8585 95.4988 66.2964 96.0967C66.0471 96.3759 65.9136 96.7095 66.0997 97.0606C66.3245 97.4838 66.709 97.5874 67.1532 97.4364C67.5968 97.293 68.0312 97.123 68.4542 96.9272C71.7164 95.3524 75.1127 94.072 78.6026 93.1014C79.3278 92.8959 80.0072 92.5448 80.7096 92.2621C80.8907 92.2029 81.0495 92.0899 81.1646 91.938C81.2798 91.7861 81.3458 91.6027 81.3539 91.4123V91.4106ZM39.138 90.7346C38.6956 90.7346 38.52 90.7346 38.3444 90.7346C37.9125 90.7346 37.4911 90.8364 37.363 91.2947C37.2067 91.8512 37.5701 92.1726 38.0424 92.3481C38.8009 92.6413 39.5577 92.9521 40.3372 93.1821C43.7532 94.1636 47.0785 95.4366 50.2767 96.9869C50.6949 97.1898 51.1349 97.3441 51.5883 97.4469C51.7581 97.499 51.9407 97.4905 52.1049 97.4229C52.2692 97.3553 52.4049 97.2329 52.489 97.0765C52.5772 96.9226 52.6104 96.7432 52.5829 96.568C52.5555 96.3927 52.469 96.2321 52.338 96.1125C52.0032 95.7886 51.6458 95.4888 51.2687 95.2153C49.7482 94.0987 47.9801 93.4596 46.2647 92.7572C43.9662 91.8369 41.5776 91.1596 39.138 90.7363V90.7346ZM46.3666 101.141C48.3822 101.106 49.8553 100.813 51.2459 100.168C51.6796 99.9664 52.0711 99.668 52.0167 99.1149C51.9535 98.4793 51.4548 98.2686 50.9158 98.1914C50.5116 98.1413 50.1037 98.129 49.6973 98.1545C47.3217 98.2581 45.0726 97.8279 42.9972 96.6182C42.5491 96.3536 42.084 96.119 41.6049 95.9159C40.7481 95.5647 40.2846 95.886 40.2933 96.8429C40.3039 98.1036 40.9096 99.0587 41.8999 99.7856C43.3747 100.867 45.0796 101.138 46.3666 101.143V101.141ZM59.7438 120.195C61.3468 120.051 63.071 119.793 64.6705 119.003C65.1973 118.744 65.6977 118.455 66.0752 117.979C66.3157 117.677 66.4263 117.371 66.2507 117.017C66.1748 116.856 66.0427 116.728 65.8791 116.657C65.7156 116.586 65.5318 116.577 65.3623 116.632C64.7368 116.767 64.1209 116.943 63.5187 117.159C60.9881 118.138 58.1835 118.138 55.6529 117.159C55.1094 116.949 54.5506 116.78 53.9814 116.655C53.6039 116.576 53.1386 116.48 52.9419 117.006C52.8606 117.197 52.8449 117.41 52.8974 117.611C52.9498 117.811 53.0674 117.989 53.2317 118.116C53.6214 118.465 54.0517 118.767 54.5134 119.013C56.1146 119.775 57.8283 120.1 59.7438 120.197V120.195Z" fill="#F8E8DA"/>
<path d="M66.7318 30.5076C67.1795 31.0993 68.0925 30.7376 68.384 31.5067C68.1592 31.9245 67.4815 31.7665 67.3498 32.295C67.9274 32.7357 68.3804 33.3485 69.1512 33.524C68.6824 34.2457 67.9029 34.186 67.3638 34.783C68.096 35.1166 68.2295 35.9804 68.9616 36.3632C69.3444 36.5616 68.9019 36.63 68.8141 36.7775C68.017 38.1084 67.262 39.4586 68.2154 41.0405C67.787 42.3538 69.4041 43.3055 68.8633 44.6469C68.837 44.7101 68.9511 44.8804 69.0389 44.9278C70.0923 45.5037 68.9616 45.9234 68.9862 46.3325C69.0389 47.1998 67.2567 46.3728 67.9801 47.6264C68.3313 48.2304 67.557 48.945 67.9275 49.6175C68.0451 49.8335 68.2031 50.0477 67.9468 50.1987C66.5597 51.0221 67.1321 52.525 66.6984 53.6733C66.4245 54.3985 67.104 54.3756 67.4007 54.8234C65.9434 55.2026 65.9434 56.6055 65.4149 57.6484C64.9848 58.5017 66.2384 58.4543 66.3121 59.1075C66.0119 59.5763 65.4343 59.3058 65.0726 59.5956C64.7477 59.8607 64.1069 59.9661 64.6635 60.5999C65.1445 61.1495 64.2192 61.4901 64.4422 61.9869C64.307 62.1801 64.1262 62.1485 63.9541 62.1485C63.4643 62.1485 62.8691 61.7552 62.5355 62.375C62.244 62.9193 62.8866 63.1598 63.0622 63.5636C63.1043 63.6619 63.0798 63.7866 63.0973 64.1202C61.2608 63.4179 59.4471 63.6549 57.7211 64.1202C57.4964 63.7322 57.6491 63.5496 57.7211 63.3371C58.0442 62.475 57.9178 62.1274 57.1171 62.2837C55.6458 62.5681 55.565 61.0652 54.6801 60.6385C54.5045 60.5525 54.5309 60.1925 54.6801 59.9994C55.0313 59.578 55.184 59.2462 54.5326 58.9459C54.2745 58.823 54.4413 58.5772 54.6011 58.3788C55.6212 57.1094 55.4878 56.7617 53.8742 56.4053C53.6632 56.3484 53.4556 56.2793 53.2527 56.1982C53.121 55.559 53.6828 55.7522 53.8988 55.5556C54.0744 55.3993 54.2851 55.0745 54.0744 55.02C52.7733 54.7005 54.0533 53.0114 52.8102 52.6989C52.8102 52.6989 52.8208 52.4232 52.8664 52.4092C54.4062 51.9474 53.1368 51.3434 52.9243 50.829C52.8506 50.6534 52.5539 50.5779 52.6785 50.283C53.1017 49.2874 52.6136 48.715 51.7252 48.4271C51.8797 47.5492 52.7014 47.7739 53.0964 47.3736C53.1947 46.9382 52.8488 46.9592 52.5907 46.8679C52.4784 46.8293 52.1307 46.7679 52.2888 46.6924C54.0972 45.7442 51.906 45.7337 51.9517 45.2351C52.0886 44.7277 52.6856 44.912 52.9138 44.5521C52.4046 44.0025 51.3336 44.4028 51.0176 43.3599C51.3687 42.791 52.4029 43.1843 52.6803 42.1765C52.9665 41.1441 53.1456 41.0616 52.1413 40.7227C51.9762 40.6665 51.7901 40.656 51.6286 40.6086C51.4671 40.5612 51.3038 40.4998 51.0211 40.4014C51.604 39.1864 52.3046 37.9626 51.302 36.6476C51.6918 36.1524 52.4099 36.3421 52.8348 35.8698C52.6399 35.2711 51.6058 34.797 52.4836 33.9068C52.8594 33.5276 52.3239 33.4854 52.1184 33.3994C51.46 33.1272 51.4969 32.7217 51.9797 32.3758C52.6733 31.8789 52.6592 31.0554 53.0332 30.4269C53.3229 29.9423 53.6074 29.6034 53.2369 29.0047C52.3818 27.6281 53.5196 26.6485 54.0919 25.6143C54.3044 25.2315 54.7065 25.0753 54.5221 24.4713C54.3606 23.9446 54.9628 24.1465 55.2385 24.0815C55.5633 24.0043 56.1918 23.9059 55.9408 23.6074C55.3456 22.9227 55.7652 22.3503 55.8267 21.72C55.8442 21.5145 55.6774 21.2933 55.5949 21.0774C57.1189 20.8052 57.1189 20.8052 56.8889 19.613C57.679 19.4761 58.7992 19.9168 58.9958 18.5491C59.0432 18.2383 60.5304 18.2348 60.72 18.5754C61.0431 19.1495 61.4855 19.304 62.0316 19.0845C62.9604 18.7106 63.5433 19.3128 64.1929 19.6499C64.1929 20.289 63.4766 20.3399 63.4292 20.8596C63.9559 21.5339 64.6793 21.7867 65.587 21.6866C65.3008 22.3257 64.5564 22.4398 64.4317 23.2352H66.4175C65.573 24.0745 66.1822 24.9208 66.1155 25.6933C65.9979 27.033 67.0355 27.0259 67.8379 27.2735C67.6852 27.9003 66.8863 27.6931 66.7405 28.2409C67.1444 28.8502 68.2575 28.2006 68.3348 28.9907C68.4103 29.7439 67.399 29.7017 66.946 30.1126C66.8593 30.2354 66.7874 30.368 66.7318 30.5076Z" fill="#F5E5D6"/>
<path d="M59.7909 116.985C57.712 116.973 56.325 116.163 55.4471 114.527C54.8502 113.455 54.4858 112.269 54.3778 111.047C54.3409 110.557 54.4463 110.069 54.9379 109.865C55.5507 109.613 55.944 110.016 56.2021 110.501C56.5585 111.168 56.8796 111.854 57.1642 112.555C57.6137 113.667 58.2932 114.469 59.5907 114.467C60.8882 114.465 61.5642 113.612 62.0172 112.536C62.3683 111.679 62.5931 110.745 63.3112 110.092C63.9169 109.541 64.5613 109.769 64.7158 110.557C65.1354 112.664 63.2778 116 61.2815 116.702C60.732 116.902 60.1648 117.036 59.7909 116.985Z" fill="#352A26"/>
<path d="M72.7288 101.14C70.973 101.14 69.4402 100.849 67.9882 100.192C67.4878 99.9658 67.0225 99.6497 67.156 99.0194C67.2806 98.4171 67.8179 98.2503 68.3569 98.1783C68.648 98.1399 68.9423 98.1335 69.2348 98.1591C72.0107 98.3996 74.5302 97.5954 76.9321 96.2962C77.1722 96.1328 77.4246 95.9884 77.6871 95.8642C78.4456 95.5939 78.9688 95.9503 78.9425 96.7562C78.8968 98.066 78.2823 99.0844 77.2148 99.8376C75.8137 100.831 74.2247 101.103 72.7288 101.14Z" fill="#352A26"/>
<path d="M81.3531 91.4144C81.3454 91.6051 81.2795 91.7888 81.1643 91.941C81.0491 92.0932 80.8902 92.2066 80.7087 92.2659C80.0064 92.5486 79.3217 92.8997 78.6018 93.1051C75.1119 94.0758 71.7156 95.3562 68.4534 96.931C68.0304 97.1268 67.5959 97.2968 67.1524 97.4401C66.7134 97.5947 66.3289 97.4876 66.0989 97.0644C65.9128 96.7133 66.0462 96.3797 66.2956 96.1005C66.8577 95.5026 67.5211 95.0087 68.255 94.6414C70.9287 93.1949 73.7754 92.094 76.7266 91.3652C77.9206 91.0772 79.0864 90.6769 80.3383 90.7419C80.8509 90.7682 81.2355 90.9526 81.3531 91.4144Z" fill="#352A26"/>
<path d="M39.138 90.7384C41.5775 91.161 43.9661 91.8378 46.2647 92.7575C47.9801 93.4598 49.7482 94.106 51.2687 95.2156C51.6458 95.4891 52.0032 95.7889 52.338 96.1128C52.469 96.2323 52.5554 96.393 52.5829 96.5682C52.6104 96.7435 52.5772 96.9229 52.489 97.0767C52.4049 97.2332 52.2692 97.3556 52.1049 97.4232C51.9407 97.4907 51.7581 97.4992 51.5882 97.4472C51.1349 97.3444 50.6949 97.1901 50.2767 96.9872C47.0785 95.4369 43.7532 94.1639 40.3372 93.1824C39.5577 92.9524 38.8009 92.6416 38.0424 92.3484C37.5701 92.1728 37.2067 91.8498 37.3629 91.2949C37.4911 90.8367 37.9125 90.7384 38.3444 90.7349C38.5253 90.7366 38.7008 90.7384 39.138 90.7384Z" fill="#352A26"/>
<path d="M46.3663 101.143C45.0793 101.143 43.3815 100.867 41.8996 99.7842C40.9094 99.0573 40.3036 98.1021 40.2931 96.8415C40.2843 95.8846 40.7478 95.5545 41.6047 95.9144C42.0837 96.1176 42.5489 96.3522 42.997 96.6167C45.0723 97.8265 47.3215 98.2566 49.697 98.153C50.1035 98.1275 50.5114 98.1398 50.9155 98.1899C51.4546 98.2671 51.9532 98.4778 52.0164 99.1134C52.0708 99.663 51.6793 99.9615 51.2456 100.167C49.855 100.815 48.3819 101.108 46.3663 101.143Z" fill="#352A26"/>
<path d="M59.746 120.196C57.8305 120.099 56.1168 119.775 54.5156 119.014C54.0539 118.768 53.6236 118.467 53.2338 118.117C53.0696 117.99 52.952 117.813 52.8995 117.612C52.8471 117.411 52.8628 117.198 52.9441 117.007C53.1408 116.481 53.6061 116.574 53.9836 116.656C54.5528 116.781 55.1115 116.95 55.6551 117.16C58.1857 118.139 60.9903 118.139 63.5209 117.16C64.1231 116.944 64.739 116.768 65.3645 116.634C65.534 116.579 65.7178 116.587 65.8813 116.658C66.0449 116.729 66.177 116.857 66.2529 117.018C66.4285 117.369 66.3161 117.678 66.0773 117.98C65.7016 118.456 65.1995 118.746 64.6727 119.004C63.0732 119.794 61.3525 120.052 59.746 120.196Z" fill="#352A26"/>
</g>
<defs>
<clipPath id="clip0_2201_4311">
<rect width="93.1492" height="114.698" fill="white" transform="translate(13 13)"/>
</clipPath>
</defs>
</svg>
