<svg width="120" height="140" viewBox="0 0 120 140" fill="none" xmlns="http://www.w3.org/2000/svg">
<g clip-path="url(#clip0_2201_4259)">
<path d="M79.9774 117.456C78.2336 119.054 76.6609 120.494 74.9258 121.727C71.891 123.881 68.6575 125.639 65.1371 126.819C61.2728 128.113 57.4241 127.95 53.641 126.506C49.2096 124.83 45.1229 122.332 41.5883 119.14C41.3326 118.908 41.0699 118.69 40.7916 118.474C40.7519 118.443 40.6793 118.453 40.6188 118.445C40.5533 118.517 40.4986 118.599 40.4564 118.687C39.9051 120.443 39.0582 120.794 37.5391 119.765C35.8553 118.644 34.2394 117.422 32.7001 116.104C26.679 110.892 22.1994 104.542 19.1214 97.1388C15.9173 89.4457 14.5901 81.3627 14.1718 73.0814C13.8452 66.5841 13.9817 60.1026 14.8631 53.6563C16.0608 44.9306 18.4924 36.6422 23.6096 29.3758C28.8444 21.9479 35.944 17.2734 44.5453 14.8378C48.3889 13.749 52.3223 13.2574 56.2973 13.0818C61.3627 12.8675 66.4194 13.0062 71.414 13.9756C84.9771 16.6096 94.7554 24.1605 100.41 37.076C103.08 43.1746 104.477 49.5929 105.168 56.192C106.08 64.8966 105.98 73.5977 104.684 82.2513C102.901 94.1676 98.395 104.795 89.8939 113.438C87.8994 115.467 85.7215 117.3 83.3889 118.913C81.4706 120.239 80.724 119.974 79.9774 117.456ZM60.1443 70.4877C55.9654 75.4713 53.5909 77.431 48.064 80.5164C44.7944 82.3508 41.351 83.8458 37.7863 84.9784C34.7187 85.946 33.222 88.1392 32.8591 91.2667C32.73 92.3699 32.7098 93.4835 32.7986 94.5909C33.1028 98.4646 34.1535 102.158 35.3322 105.829C35.6293 106.776 36.0551 107.675 36.5972 108.502C41.1805 115.431 47.1394 120.619 54.9026 123.572C58.1067 124.789 61.2607 124.882 64.4925 123.683C67.9247 122.41 71.1513 120.752 73.9977 118.434C79.6369 113.832 84.412 108.555 86.3873 101.208C87.2722 97.9132 87.7596 94.575 87.4243 91.1596C87.1339 88.1515 85.6701 86.0022 82.7581 85.0697C80.3501 84.2892 77.9932 83.3543 75.7017 82.2706C70.9716 80.0616 66.5318 77.4012 62.8524 73.5906C61.933 72.6371 61.1086 71.5958 60.1443 70.4877ZM60.5003 41.5696C60.6627 41.1763 60.7371 40.7987 60.9859 40.4528C61.9088 39.1762 61.9036 38.9602 60.9859 37.6555C60.8131 37.4114 60.6074 37.2446 60.725 36.9162C61.0343 36.0593 59.8384 34.9003 61.2434 34.2453C61.238 34.0824 61.1985 33.9226 61.1276 33.7764C60.9548 33.4375 60.9341 32.9353 61.1121 32.786C61.8742 32.1468 61.4076 31.3812 61.4577 30.6613C61.5528 29.4075 60.2151 28.1853 61.373 26.9069C61.3834 26.8946 61.3333 26.7927 61.2918 26.7699C60.5089 26.3397 61.3022 25.4617 60.7181 24.8049C60.4104 24.4537 59.9732 23.1718 61.0239 22.5344C61.2331 22.408 61.2244 22.1727 61.1155 21.9251C60.6247 20.8047 60.2238 19.6861 60.5469 18.3972C60.604 18.1707 60.2117 17.4244 59.7381 17.4648C59.0883 17.5192 59.6379 17.9635 59.6569 18.2269C59.6828 18.5781 59.3735 18.5324 59.2231 18.6747C58.9985 18.8872 58.8308 19.1277 59.0676 19.421C60.0924 20.7011 59.5636 22.0199 59.0676 23.2632C58.7219 24.157 58.5232 24.9858 59.0676 25.7936C59.3458 26.2045 59.2646 26.3801 58.9311 26.6207C58.6684 26.8103 58.2795 26.877 58.2225 27.3687C58.5681 27.971 59.65 28.5488 58.4368 29.4022C58.2415 29.5392 58.5111 29.8201 58.6874 29.9659C58.9121 30.1415 59.1419 30.3171 59.1782 30.6542C59.1592 30.6999 59.1419 30.7526 59.1194 30.8035C58.8429 31.4005 56.9315 31.6639 58.7461 32.6912C58.7727 32.7045 58.7952 32.7252 58.8108 32.7508C58.8265 32.7764 58.8348 32.8059 58.8348 32.8361C58.8348 32.8662 58.8265 32.8958 58.8108 32.9214C58.7952 32.947 58.7727 32.9676 58.7461 32.9809C57.6816 33.5885 58.5146 34.0609 58.8326 34.5895C58.9777 34.8318 59.0935 35.1163 58.8447 35.392C58.3262 35.9521 59.0745 36.939 58.1845 37.3956C58.0117 37.4834 58.1499 37.7802 58.2812 37.8241C59.2007 38.1349 58.9725 38.5265 58.4212 39.0269C58.1292 39.2938 58.4091 39.4448 58.5716 39.6924C58.8222 40.0682 59.2767 40.653 58.6839 41.0218C57.6867 41.6416 57.9563 42.1895 58.6321 42.7778C58.9967 43.0921 59.173 43.3221 58.7444 43.7436C58.2259 44.2546 57.8803 44.8077 58.7202 45.4048C58.7769 45.4517 58.8211 45.5125 58.8486 45.5813C58.8762 45.6502 58.8862 45.725 58.8777 45.7989C58.8693 45.8727 58.8427 45.9432 58.8004 46.0039C58.758 46.0645 58.7013 46.1133 58.6355 46.1458C58.1171 46.4127 58.1171 46.6586 58.5076 47.0344C58.5869 47.1118 58.641 47.212 58.6626 47.3215C58.6842 47.4311 58.6724 47.5447 58.6286 47.6472C58.4264 48.2952 58.5699 49.4173 58.9172 49.9739C59.0728 50.2233 59.3735 50.5271 59.0901 50.7097C58.0704 51.3735 58.6649 52.4341 58.4817 53.27C58.2381 54.3745 58.086 55.6511 59.0572 56.6503C59.2819 56.8821 58.9587 57.1894 58.9311 57.4669C58.8568 58.2237 58.8066 58.9753 58.5733 59.7128C58.3054 60.5574 59.5308 60.942 59.23 61.9377C59.0762 62.4452 59.7485 62.7946 60.3378 62.6612C60.9272 62.5277 60.7301 62.1344 60.661 61.6989C60.5276 60.85 60.6625 59.9801 61.0464 59.2141C61.3264 58.6592 61.3558 58.3993 60.7906 58.1605C59.9732 57.8093 60.0631 57.2825 60.4657 56.6135C60.6385 56.322 60.7232 55.9936 61.0429 55.7881C61.6755 55.3825 61.5891 54.9716 60.9825 54.6151C60.6368 54.4149 60.165 54.2639 60.8356 53.8495C61.1207 53.6739 61.1449 53.3859 60.9099 53.1084C60.7613 52.9328 60.623 52.7572 60.4813 52.5816C61.3869 52.2813 60.1685 51.2751 61.0343 50.9152C61.4923 50.7238 61.5528 50.297 61.1864 49.9212C60.8909 49.6175 61.0136 49.2768 61.0136 48.9361C61.0032 48.4866 61.259 48.0581 61.0291 47.5752C60.8287 47.152 60.483 46.6797 61.2175 46.2529C61.5631 46.0492 60.8943 45.54 61.0931 45.1045C61.4681 44.2844 60.4951 43.1729 61.6254 42.5056C61.6478 42.4915 61.6254 42.402 61.6254 42.2756L60.5003 41.5696Z" fill="#251A17"/>
<path d="M60.1458 70.4863C61.1102 71.5944 61.9345 72.6357 62.8522 73.5857C66.5316 77.3963 70.9749 80.0566 75.7015 82.2657C77.9931 83.3494 80.3499 84.2843 82.7579 85.0648C85.6717 85.9973 87.1355 88.1466 87.4241 91.1547C87.7524 94.5701 87.2651 97.9083 86.3871 101.203C84.4118 108.55 79.6367 113.827 73.9975 118.429C71.158 120.747 67.9314 122.405 64.4923 123.678C61.2605 124.877 58.1065 124.784 54.9024 123.567C47.134 120.619 41.1803 115.426 36.597 108.497C36.0549 107.67 35.6291 106.771 35.332 105.824C34.1533 102.156 33.1026 98.4632 32.7984 94.5859C32.7096 93.4786 32.7298 92.365 32.8589 91.2618C33.2218 88.1343 34.7185 85.9411 37.7861 84.9735C41.3508 83.8408 44.7941 82.3459 48.0638 80.5114C53.5924 77.4296 55.967 75.4699 60.1458 70.4863ZM60.1458 116.959C60.7317 117.003 61.5025 116.796 62.2197 116.404C63.718 115.586 65.2285 112.38 64.9364 110.685C64.8742 110.334 64.7636 109.983 64.3921 109.869C64.2008 109.801 63.9923 109.803 63.8027 109.876C63.6132 109.948 63.4548 110.086 63.3551 110.265C62.8367 111.047 62.5325 111.925 62.1592 112.775C61.7427 113.727 61.1585 114.448 59.9955 114.471C58.8807 114.494 58.1359 113.997 57.6831 113.001C57.3478 112.264 57.0644 111.498 56.6997 110.775C56.4439 110.264 56.1467 109.672 55.4191 109.853C54.6414 110.046 54.8004 110.696 54.8246 111.275C54.8713 112.345 55.229 113.326 55.6593 114.28C56.4889 116.116 57.9389 116.963 60.1475 116.959H60.1458ZM72.6288 101.245C73.7919 101.152 74.9532 101.069 76.0092 100.565C77.3468 99.9278 78.4736 99.041 78.802 97.45C78.9074 96.9373 79.056 96.3964 78.579 95.9784C78.0606 95.5377 77.6302 95.9012 77.1757 96.1646C75.152 97.3429 73.0038 98.1208 70.6482 98.2033C70.0157 98.2261 69.3832 98.2279 68.7472 98.2332C68.144 98.2332 67.5374 98.314 67.3646 99.0076C67.1918 99.7293 67.7604 100.017 68.2875 100.286C69.6631 100.99 71.1529 101.118 72.6288 101.245ZM47.1409 101.245C48.4285 101.138 49.7523 101.052 50.9776 100.504C51.6274 100.21 52.5779 100.021 52.3757 99.0287C52.1735 98.0365 51.2368 98.2261 50.5144 98.2419C47.8823 98.2946 45.3902 97.7819 43.0831 96.4403C42.8359 96.2963 42.5888 96.1558 42.3434 96.0083C41.9822 95.7905 41.6141 95.6571 41.2183 95.924C40.7534 96.2295 40.7327 96.6931 40.8346 97.1655C40.9899 97.9671 41.3656 98.7075 41.9182 99.3008C43.3596 100.813 45.207 101.092 47.1444 101.243L47.1409 101.245ZM80.0014 90.6472C75.406 91.5498 70.9714 92.8984 67.0189 95.564C66.7861 95.735 66.5839 95.9453 66.421 96.1856C66.3088 96.3211 66.2416 96.4891 66.2289 96.6657C66.2162 96.8422 66.2586 97.0184 66.3501 97.169C66.4369 97.3239 66.5757 97.4418 66.7411 97.5011C66.9064 97.5605 67.0873 97.5573 67.2505 97.4922C67.7997 97.3201 68.3348 97.1046 68.8509 96.8477C72.1621 95.1882 75.622 93.9432 79.1666 92.923C79.6078 92.7934 80.0397 92.6332 80.4593 92.4436C80.964 92.2171 81.3788 91.8834 81.1645 91.2354C80.983 90.677 80.4887 90.6929 80.0048 90.6454L80.0014 90.6472ZM39.001 90.6963C38.8282 90.6963 38.2285 90.6121 38.0176 91.2372C37.7688 91.98 38.3408 92.2697 38.8818 92.5209C39.1444 92.6384 39.4139 92.7393 39.6888 92.8229C40.7845 93.1741 41.8889 93.4884 42.9725 93.8536C45.7578 94.7781 48.4785 95.8927 51.1158 97.1901C51.6239 97.4447 52.3532 97.954 52.7991 97.1602C53.245 96.3665 52.5243 95.91 52.0024 95.4675C51.8245 95.3194 51.6355 95.1855 51.4373 95.0671C49.9202 94.1172 48.3071 93.3354 46.6259 92.7351C44.2427 91.9062 41.8871 90.9457 39.0045 90.6946L39.001 90.6963ZM59.9989 120.278C60.9598 120.162 62.0624 120.103 63.0976 119.743C64.1328 119.383 65.1542 118.988 66.02 118.276C66.4054 117.96 66.6405 117.574 66.4279 117.058C66.1929 116.491 65.7107 116.531 65.2544 116.661C64.7014 116.815 64.1605 117.012 63.623 117.223C61.1863 118.186 58.4814 118.179 56.0499 117.202C55.5142 116.993 54.9698 116.803 54.4185 116.643C54.0193 116.527 53.5872 116.526 53.3349 116.933C53.0463 117.404 53.2035 117.836 53.5993 118.171C53.8594 118.399 54.1394 118.603 54.4358 118.78C56.1242 119.751 57.9596 120.169 60.0024 120.276L59.9989 120.278Z" fill="#FDF1E6"/>
<path d="M60.5012 41.5684L61.6332 42.2585C61.6332 42.385 61.6522 42.4745 61.6332 42.4886C60.5029 43.1576 61.4759 44.2674 61.1009 45.0875C60.9021 45.523 61.5779 46.0322 61.2253 46.2359C60.4908 46.6626 60.8364 47.135 61.0369 47.5582C61.2668 48.0464 61.011 48.4696 61.0214 48.9191C61.0214 49.2598 60.9038 49.6005 61.1942 49.9043C61.5571 50.28 61.5001 50.7068 61.0421 50.8982C60.178 51.2494 61.3877 52.2643 60.4891 52.5646C60.6308 52.7402 60.769 52.9158 60.9177 53.0914C61.1527 53.3689 61.1285 53.6534 60.8434 53.8325C60.1728 54.2539 60.6481 54.3979 60.9903 54.5981C61.5969 54.9493 61.6815 55.3655 61.0507 55.7711C60.731 55.9766 60.6515 56.2979 60.4735 56.5964C60.0708 57.2585 59.981 57.7853 60.7984 58.1435C61.3635 58.3911 61.3342 58.651 61.0542 59.1971C60.6703 59.9631 60.5354 60.8331 60.6688 61.6819C60.7379 62.1103 60.9159 62.516 60.3456 62.6442C59.7753 62.7724 59.084 62.4282 59.2378 61.9207C59.5386 60.925 58.3132 60.5405 58.5811 59.6958C58.8144 58.9583 58.8645 58.2067 58.9389 57.4499C58.9665 57.1724 59.2845 56.8651 59.065 56.6333C58.0938 55.6342 58.2458 54.3505 58.4895 53.253C58.6727 52.4171 58.0782 51.3565 59.0979 50.6927C59.3796 50.5171 59.0788 50.2063 58.925 49.9569C58.5794 49.4003 58.4342 48.2782 58.6364 47.6302C58.6815 47.5272 58.6943 47.4126 58.673 47.302C58.6516 47.1914 58.5972 47.0901 58.5172 47.0121C58.1352 46.6363 58.1318 46.3905 58.6451 46.1235C58.7109 46.091 58.7675 46.0422 58.8099 45.9816C58.8522 45.921 58.8788 45.8504 58.8872 45.7766C58.8957 45.7028 58.8857 45.628 58.8582 45.5591C58.8306 45.4902 58.7865 45.4295 58.7297 45.3825C57.8898 44.7855 58.2337 44.2323 58.7539 43.7213C59.1825 43.2999 59.0063 43.0698 58.6416 42.7555C57.9659 42.1743 57.6963 41.6264 58.6934 40.9995C59.2862 40.6307 58.8317 40.046 58.5811 39.6702C58.4187 39.4226 58.1387 39.2716 58.4308 39.0047C58.9734 38.5095 59.2102 38.1126 58.2908 37.8018C58.1594 37.7579 58.0229 37.4611 58.194 37.3733C59.084 36.9167 58.3322 35.9299 58.8542 35.3697C59.103 35.1028 58.9872 34.8095 58.8421 34.5672C58.5241 34.0404 57.6911 33.5663 58.7557 32.9587C58.7823 32.9453 58.8047 32.9247 58.8203 32.8991C58.836 32.8735 58.8443 32.844 58.8443 32.8138C58.8443 32.7837 58.836 32.7541 58.8203 32.7285C58.8047 32.7029 58.7823 32.6823 58.7557 32.6689C56.941 31.6417 58.8524 31.3783 59.129 30.7812C59.1514 30.7303 59.1687 30.6776 59.1877 30.632C59.1514 30.3036 58.9216 30.128 58.6969 29.9436C58.5241 29.7978 58.251 29.5169 58.4463 29.3799C59.6561 28.5265 58.5794 27.9488 58.232 27.3464C58.289 26.8548 58.6779 26.788 58.9406 26.5984C59.2741 26.3578 59.3554 26.1822 59.0771 25.7713C58.5293 24.9635 58.7194 24.1347 59.0771 23.2409C59.5697 21.9976 60.0985 20.6788 59.0771 19.3987C58.8404 19.1055 59.008 18.8719 59.2327 18.6524C59.383 18.5102 59.6924 18.5541 59.6664 18.2046C59.6474 17.9412 59.0978 17.5022 59.7477 17.4425C60.2212 17.4021 60.6118 18.1449 60.5565 18.375C60.2333 19.6639 60.6342 20.7825 61.1251 21.9028C61.2339 22.1504 61.2426 22.3857 61.0335 22.5121C59.9827 23.1496 60.4199 24.4438 60.7276 24.7827C61.3117 25.4394 60.5185 26.3174 61.3013 26.7476C61.3428 26.7705 61.3929 26.8723 61.3826 26.8846C60.2247 28.163 61.5554 29.3852 61.4672 30.639C61.4119 31.3519 61.8786 32.1246 61.1216 32.7638C60.9488 32.913 60.9712 33.4152 61.1372 33.7542C61.208 33.9003 61.2475 34.0602 61.2529 34.223C59.8531 34.878 61.049 36.037 60.7345 36.8939C60.617 37.2223 60.8243 37.3891 60.9954 37.6332C61.9131 38.9379 61.9183 39.1539 60.9954 40.4305C60.7379 40.7976 60.6636 41.1751 60.5012 41.5684Z" fill="#F5E5D6"/>
<path d="M60.1448 116.958C57.9395 116.958 56.4861 116.115 55.6514 114.279C55.221 113.325 54.8633 112.347 54.8166 111.274C54.7924 110.694 54.6334 110.045 55.4111 109.852C56.1387 109.676 56.436 110.262 56.6918 110.773C57.0564 111.497 57.3398 112.263 57.6751 113C58.1279 113.996 58.8728 114.493 59.9875 114.47C61.1506 114.447 61.7347 113.725 62.1512 112.774C62.5245 111.924 62.8425 111.046 63.3471 110.264C63.4468 110.085 63.6052 109.947 63.7948 109.875C63.9843 109.802 64.1929 109.8 64.3841 109.867C64.7487 109.987 64.8663 110.324 64.9285 110.684C65.2205 112.378 63.7187 115.585 62.2117 116.403C61.5014 116.795 60.7306 117.007 60.1448 116.958Z" fill="#352A26"/>
<path d="M72.6262 101.245C71.1468 101.119 69.6571 100.99 68.2866 100.286C67.7682 100.018 67.1892 99.7295 67.3638 99.0078C67.5366 98.3142 68.1449 98.2387 68.7463 98.2334C69.3789 98.2334 70.0114 98.2334 70.6474 98.2035C73.0029 98.121 75.1511 97.3431 77.1749 96.1648C77.6294 95.9014 78.0649 95.5379 78.5782 95.9787C79.0552 96.3878 78.9066 96.9375 78.8011 97.4502C78.4728 99.0412 77.346 99.928 76.0083 100.565C74.9541 101.069 73.7927 101.152 72.6262 101.245Z" fill="#352A26"/>
<path d="M47.1443 101.244C45.2069 101.093 43.3594 100.814 41.9285 99.3C41.3758 98.7066 41.0001 97.9662 40.8449 97.1647C40.7429 96.6923 40.7637 96.2287 41.2285 95.9232C41.6243 95.6633 41.9924 95.7897 42.3536 96.0074C42.599 96.1549 42.8462 96.2955 43.0933 96.4395C45.3936 97.7811 47.8857 98.2938 50.5247 98.2411C51.2471 98.2253 52.182 98.0357 52.386 99.0278C52.5899 100.02 51.6376 100.21 50.9878 100.503C49.7556 101.051 48.4335 101.137 47.1443 101.244Z" fill="#352A26"/>
<path d="M80.0032 90.645C80.4871 90.6924 80.9814 90.6766 81.1663 91.235C81.3806 91.883 80.9658 92.2167 80.4612 92.4432C80.0416 92.6328 79.6097 92.793 79.1685 92.9226C75.6239 93.9428 72.164 95.1878 68.8527 96.8472C68.3366 97.1042 67.8016 97.3197 67.2524 97.4917C67.0891 97.5569 66.9083 97.56 66.7429 97.5007C66.5775 97.4414 66.4387 97.3235 66.352 97.1686C66.2604 97.018 66.218 96.8418 66.2307 96.6653C66.2434 96.4887 66.3107 96.3207 66.4228 96.1852C66.5857 95.9448 66.788 95.7346 67.0208 95.5636C70.9732 92.8962 75.4079 91.5459 80.0032 90.645Z" fill="#352A26"/>
<path d="M39.0031 90.6945C41.8857 90.9456 44.2413 91.9062 46.6297 92.7315C48.3107 93.3301 49.9237 94.1102 51.4411 95.0582C51.6393 95.1767 51.8283 95.3105 52.0062 95.4586C52.5247 95.9011 53.2574 96.3366 52.8029 97.1514C52.3484 97.9662 51.6277 97.4359 51.1196 97.1813C48.4823 95.8839 45.7616 94.7692 42.9762 93.8448C41.8875 93.4796 40.7831 93.16 39.6926 92.814C39.4177 92.7304 39.1482 92.6296 38.8855 92.512C38.3481 92.2609 37.776 91.9711 38.0214 91.2283C38.2357 90.6102 38.8233 90.6928 39.0031 90.6945Z" fill="#352A26"/>
<path d="M59.9996 120.277C57.9568 120.172 56.1215 119.75 54.4365 118.779C54.1401 118.602 53.8601 118.398 53.6 118.17C53.2042 117.835 53.047 117.403 53.3356 116.932C53.5879 116.525 54.0269 116.526 54.4192 116.642C54.9705 116.802 55.5149 116.994 56.0506 117.201C58.4821 118.178 61.187 118.185 63.6237 117.222C64.1612 117.016 64.7021 116.814 65.2551 116.66C65.7114 116.533 66.1936 116.484 66.4286 117.057C66.6412 117.573 66.4061 117.959 66.0207 118.275C65.1566 118.987 64.1283 119.382 63.0983 119.742C62.0683 120.102 60.9605 120.17 59.9996 120.277Z" fill="#352A26"/>
</g>
<defs>
<clipPath id="clip0_2201_4259">
<rect width="91.7583" height="114.698" fill="white" transform="translate(14 13)"/>
</clipPath>
</defs>
</svg>
