<svg width="120" height="140" viewBox="0 0 120 140" fill="none" xmlns="http://www.w3.org/2000/svg">
<path d="M36.9961 93.706L37.4041 93.0933C37.4041 93.0933 51.0494 93.0933 54.7709 93.0933C58.4924 93.0933 58.2856 96.4024 57.8721 97.6435C57.4586 98.8845 53.9956 102.607 52.2899 109.433C50.5842 116.258 52.0832 121.222 55.3911 125.152C57.8683 128.094 61.1801 129.861 65.5218 130.529C69.8635 131.197 75.0322 129.495 77.3064 127.633C79.5807 125.772 82.8886 120.808 83.5089 117.292C84.1291 113.776 84.5426 113.569 83.9224 109.019C83.3021 104.469 77.5132 98.6778 77.5132 95.9889C77.5132 93.3001 80.6144 93.0933 85.5763 93.0933C90.5383 93.0933 98.6015 93.0933 98.6015 93.0933L99.0094 93.706" stroke="black" stroke-width="2.22582"/>
<g clip-path="url(#clip0_2201_4496)">
<path d="M42.5337 31.9198C45.6116 36.5255 48.4134 41.3099 50.9243 46.2477C51.1659 46.7255 51.4074 47.2087 51.6436 47.6918C52.6368 49.7156 53.5977 51.7932 54.4996 53.9351C55.4766 53.6506 56.4751 53.3339 57.479 52.9796C58.4828 52.6253 59.3632 52.2924 60.2168 51.9435C59.1431 49.9143 57.9729 47.8582 56.7435 45.7968L55.8846 44.3849C52.7579 39.2891 49.2949 34.4074 45.5184 29.7725C44.8742 30.3093 44.1978 30.7871 43.4892 31.2756C43.1725 31.4742 42.8558 31.6889 42.5337 31.9198Z" fill="#30292B"/>
<path d="M54.276 53.8041C55.9087 57.7802 57.3051 61.8493 58.4579 65.9901C58.5974 66.5269 58.737 67.0208 58.8712 67.5415C59.5262 70.0754 60.0952 72.6575 60.5569 75.288C62.0224 75.1108 63.5416 74.8746 65.0823 74.5794C66.623 74.2841 68.0134 73.962 69.377 73.5916C68.561 71.1759 67.6323 68.6152 66.5747 65.9525C66.3761 65.4425 66.1721 64.9326 65.9627 64.4172C64.3147 60.3802 62.3767 56.1232 60.1006 51.7534C59.1343 52.1507 58.1411 52.5318 57.1426 52.8808C56.1441 53.2297 55.2262 53.5303 54.276 53.8041Z" fill="#30292B"/>
<path d="M58.9566 112.228C58.9566 112.228 56.3101 121.574 65.9086 124.151C65.9086 124.151 82.2979 128.87 74.8468 95.3392C74.8468 95.3392 73.8053 87.1311 69.9026 75.1276C69.7415 74.623 69.5697 74.113 69.398 73.5923C68.0129 73.9627 66.5689 74.2955 65.1033 74.58C63.6378 74.8646 62.0434 75.1169 60.5779 75.2887C60.6638 75.8255 60.7496 76.3623 60.8302 76.8723C62.737 88.6561 62.0981 100.712 58.9566 112.228Z" fill="#30292B"/>
<path d="M24.7279 10.1816C24.9802 10.4178 31.7442 16.7256 39.6034 27.3601L40.5536 28.6646C41.3875 29.8063 42.2231 30.9963 43.0606 32.2345C43.3719 32.0306 43.6887 31.8212 44 31.6065C44.6711 31.1448 45.3153 30.6724 45.9219 30.1946C45.0164 29.0995 44.077 28.0133 43.1035 26.9361C42.7439 26.5281 42.3734 26.1254 42.0299 25.7228C36.7747 19.9991 30.9807 14.7947 24.7279 10.1816Z" fill="#30292B"/>
</g>
<defs>
<clipPath id="clip0_2201_4496">
<rect width="56.7042" height="115.771" fill="white" transform="translate(20 9)"/>
</clipPath>
</defs>
</svg>
