<svg width="122" height="122" viewBox="0 0 122 122" fill="none" xmlns="http://www.w3.org/2000/svg">
<g filter="url(#filter0_b_1235_7421)">
<circle cx="61.1969" cy="60.9996" r="60.4918" fill="#1E1E1E" fill-opacity="0.72"/>
</g>
<path d="M62.5703 36.0458V85.9515C62.5703 86.5532 62.3024 87.1301 61.8254 87.5556C61.3485 87.981 60.7016 88.22 60.0271 88.22C59.3526 88.22 58.7057 87.981 58.2288 87.5556C57.7519 87.1301 57.4839 86.5532 57.4839 85.9515V36.0458C57.4839 35.4442 57.7519 34.8672 58.2288 34.4418C58.7057 34.0163 59.3526 33.7773 60.0271 33.7773C60.7016 33.7773 61.3485 34.0163 61.8254 34.4418C62.3024 34.8672 62.5703 35.4442 62.5703 36.0458ZM49.8543 58.7302H37.1382V51.9249C37.1386 51.476 36.9897 51.037 36.7102 50.6637C36.4308 50.2903 36.0335 49.9993 35.5685 49.8274C35.1036 49.6556 34.5919 49.6107 34.0983 49.6983C33.6047 49.786 33.1514 50.0024 32.7957 50.32L22.6228 59.3937C22.3864 59.6044 22.1988 59.8546 22.0708 60.13C21.9428 60.4054 21.877 60.7005 21.877 60.9987C21.877 61.2968 21.9428 61.5919 22.0708 61.8673C22.1988 62.1427 22.3864 62.3929 22.6228 62.6036L32.7957 71.6773C33.1514 71.995 33.6047 72.2113 34.0983 72.299C34.5919 72.3866 35.1036 72.3417 35.5685 72.1699C36.0335 71.998 36.4308 71.707 36.7102 71.3336C36.9897 70.9603 37.1386 70.5213 37.1382 70.0724V63.2671H49.8543C50.5288 63.2671 51.1757 63.0281 51.6526 62.6027C52.1295 62.1773 52.3975 61.6003 52.3975 60.9987C52.3975 60.397 52.1295 59.82 51.6526 59.3946C51.1757 58.9692 50.5288 58.7302 49.8543 58.7302ZM97.4314 59.3937L87.2586 50.32C86.9029 50.0024 86.4495 49.786 85.9559 49.6983C85.4623 49.6107 84.9507 49.6556 84.4857 49.8274C84.0208 49.9993 83.6234 50.2903 83.344 50.6637C83.0646 51.037 82.9156 51.476 82.916 51.9249V58.7302H70.2C69.5255 58.7302 68.8786 58.9692 68.4016 59.3946C67.9247 59.82 67.6567 60.397 67.6567 60.9987C67.6567 61.6003 67.9247 62.1773 68.4016 62.6027C68.8786 63.0281 69.5255 63.2671 70.2 63.2671H82.916V70.0724C82.9156 70.5213 83.0646 70.9603 83.344 71.3336C83.6234 71.707 84.0208 71.998 84.4857 72.1699C84.9507 72.3417 85.4623 72.3866 85.9559 72.299C86.4495 72.2113 86.9029 71.995 87.2586 71.6773L97.4314 62.6036C97.6679 62.3929 97.8554 62.1427 97.9834 61.8673C98.1114 61.5919 98.1773 61.2968 98.1773 60.9987C98.1773 60.7005 98.1114 60.4054 97.9834 60.13C97.8554 59.8546 97.6679 59.6044 97.4314 59.3937Z" fill="white"/>
<defs>
<filter id="filter0_b_1235_7421" x="-11.3933" y="-11.5905" width="145.18" height="145.18" filterUnits="userSpaceOnUse" color-interpolation-filters="sRGB">
<feFlood flood-opacity="0" result="BackgroundImageFix"/>
<feGaussianBlur in="BackgroundImageFix" stdDeviation="6.04918"/>
<feComposite in2="SourceAlpha" operator="in" result="effect1_backgroundBlur_1235_7421"/>
<feBlend mode="normal" in="SourceGraphic" in2="effect1_backgroundBlur_1235_7421" result="shape"/>
</filter>
</defs>
</svg>
