<svg width="120" height="140" viewBox="0 0 120 140" fill="none" xmlns="http://www.w3.org/2000/svg">
<path d="M30.4082 93.6063L30.8112 93.001C30.8112 93.001 44.2901 93.001 47.9662 93.001C51.6423 93.001 51.438 96.2698 51.0296 97.4957C50.6211 98.7215 47.2004 102.399 45.5155 109.141C43.8306 115.883 45.3113 120.786 48.5789 124.668C51.0259 127.575 54.2972 129.32 58.5859 129.98C62.8747 130.64 67.9803 128.959 70.2268 127.12C72.4733 125.281 75.7409 120.378 76.3536 116.905C76.9663 113.431 77.3747 113.227 76.7621 108.732C76.1494 104.238 70.4311 98.5174 70.4311 95.8613C70.4311 93.2053 73.4944 93.001 78.3959 93.001C83.2973 93.001 91.2621 93.001 91.2621 93.001L91.6651 93.6063" stroke="black" stroke-width="2.22582"/>
<g clip-path="url(#clip0_2201_4463)">
<path d="M39.0763 28.9309C35.2741 20.7938 32.5092 6.43115 32.5092 6.43115C33.4757 15.1388 35.9072 23.7297 36.7559 26.5588C33.9674 23.8098 30.9297 21.1508 27.6191 18.6152C27.6191 18.6152 53.9922 43.4537 55.7603 79.5754C55.7603 79.5754 56.4676 100.264 54.1674 117.622C54.1674 117.622 53.4601 123.057 60.1856 124.285C60.1856 124.285 66.3789 124.812 66.7359 116.044C66.7325 116.044 73.6264 65.433 39.0763 28.9309Z" fill="#251A17"/>
</g>
<defs>
<clipPath id="clip0_2201_4463">
<rect width="39.4457" height="114.625" fill="white" transform="translate(27.623 9.93262)"/>
</clipPath>
</defs>
</svg>
