<svg width="120" height="140" viewBox="0 0 120 140" fill="none" xmlns="http://www.w3.org/2000/svg">
<path d="M37.2188 94.7527L37.6152 94.1572C37.6152 94.1572 50.8744 94.1572 54.4905 94.1572C58.1066 94.1572 57.9057 97.3727 57.5039 98.5786C57.1022 99.7845 53.7372 103.402 52.0797 110.034C50.4223 116.666 51.8788 121.49 55.0932 125.308C57.5003 128.168 60.7183 129.884 64.9371 130.533C69.1559 131.183 74.1784 129.529 76.3882 127.72C78.5981 125.911 81.8124 121.088 82.4151 117.671C83.0178 114.255 83.4196 114.054 82.8169 109.632C82.2142 105.211 76.5891 99.5837 76.5891 96.971C76.5891 94.3582 79.6026 94.1572 84.4241 94.1572C89.2456 94.1572 97.0806 94.1572 97.0806 94.1572L97.477 94.7527" stroke="black" stroke-width="2.22582"/>
<g clip-path="url(#clip0_2201_4484)">
<path d="M68.4382 124.811C68.4382 124.811 58.6282 127.031 60.6634 112.958C60.6634 112.958 63.255 90.923 62.5155 80.1906C61.8359 70.3251 56.7796 37.3 38.1526 18.2207C35.075 15.0708 27.9799 18.1925 29.3989 22.3607C35.1983 39.3965 51.7619 35.4784 76.9348 36.4896C76.9348 36.4896 19.2755 50.1887 23.1735 16.6387C23.9587 9.89131 33.8285 6.55816 40.1667 11.0787C50.5013 18.4497 66.9487 34.4073 72.8643 79.4507C72.8784 79.4437 78.308 124.935 68.4382 124.811Z" fill="#251A17"/>
</g>
<defs>
<clipPath id="clip0_2201_4484">
<rect width="53.9514" height="115.938" fill="white" transform="translate(23 9)"/>
</clipPath>
</defs>
</svg>
